<svg xmlns="http://www.w3.org/2000/svg" xmlns:xlink="http://www.w3.org/1999/xlink" width="500" zoomAndPan="magnify" viewBox="0 0 375 374.999991" height="500" preserveAspectRatio="xMidYMid meet" version="1.0"><defs><g/><clipPath id="e24ad17e73"><path d="M 120 81.957031 L 256.78125 81.957031 L 256.78125 228.957031 L 120 228.957031 Z M 120 81.957031 " clip-rule="nonzero"/></clipPath></defs><g clip-path="url(#e24ad17e73)"><path fill="#4f8936" d="M 239.25 117.398438 C 227.96875 105.140625 212.652344 97.589844 196.125 96.128906 L 195.933594 98.253906 C 229.441406 101.210938 254.710938 128.847656 254.710938 162.53125 C 254.710938 197.796875 226.269531 226.542969 191.113281 227.046875 L 191.113281 185.152344 L 188.984375 185.152344 L 188.984375 227.042969 C 153.953125 226.398438 125.652344 197.707031 125.652344 162.53125 C 125.652344 161.769531 125.671875 161.011719 125.699219 160.257812 C 126.035156 160.277344 126.425781 160.292969 126.878906 160.292969 C 129.316406 160.292969 133.382812 159.886719 138.488281 157.859375 C 146.074219 154.851562 157.546875 147.519531 169.128906 129.636719 C 191.277344 95.457031 187.835938 83.234375 187.675781 82.730469 L 187.433594 81.957031 L 186.621094 81.984375 C 186.230469 81.996094 176.96875 82.34375 165.34375 85.660156 C 154.566406 88.734375 139.738281 95.046875 130.269531 107.679688 C 120.390625 120.855469 118.121094 138.234375 123.523438 159.328125 L 123.585938 159.589844 C 123.546875 160.566406 123.519531 161.546875 123.519531 162.53125 C 123.523438 199.289062 153.425781 229.191406 190.183594 229.191406 C 226.941406 229.191406 256.847656 199.289062 256.847656 162.53125 C 256.847656 145.761719 250.597656 129.730469 239.25 117.398438 Z M 131.96875 108.964844 C 147.867188 87.742188 179.878906 84.574219 185.757812 84.167969 C 186.050781 87.347656 185.671875 100.183594 167.34375 128.476562 C 156.128906 145.78125 145.128906 152.890625 137.875 155.804688 C 132.089844 158.128906 127.714844 158.226562 125.808594 158.117188 C 126.878906 141.992188 133.824219 127.113281 145.644531 115.835938 L 144.171875 114.292969 C 133.257812 124.707031 126.367188 138.097656 124.234375 152.71875 C 120.867188 135.023438 123.460938 120.324219 131.96875 108.964844 Z M 131.96875 108.964844 " fill-opacity="1" fill-rule="nonzero"/></g><path fill="#4f8936" d="M 196.175781 168.359375 C 191.78125 172.246094 192.039062 178.195312 192.050781 178.445312 L 192.089844 179.203125 L 192.820312 179.414062 C 194.476562 179.894531 196.066406 180.132812 197.570312 180.132812 C 199.910156 180.132812 202.066406 179.554688 204.007812 178.40625 C 209.96875 174.882812 211.738281 167.261719 211.8125 166.9375 L 212.058594 165.847656 L 210.957031 165.652344 C 204.460938 164.511719 199.488281 165.425781 196.175781 168.359375 Z M 202.914062 176.578125 C 200.4375 178.039062 197.507812 178.371094 194.199219 177.574219 C 194.289062 176.015625 194.816406 172.402344 197.605469 169.941406 C 200.214844 167.640625 204.1875 166.84375 209.414062 167.570312 C 208.722656 169.675781 206.835938 174.265625 202.914062 176.578125 Z M 202.914062 176.578125 " fill-opacity="1" fill-rule="nonzero"/><path fill="#4f8936" d="M 183.382812 157.03125 C 184.269531 162.832031 189.402344 165.839844 189.625 165.964844 L 190.285156 166.34375 L 190.859375 165.847656 C 194.179688 162.957031 195.9375 159.613281 196.082031 155.898438 C 196.351562 148.980469 190.910156 143.355469 190.679688 143.121094 L 189.894531 142.324219 L 189.136719 143.144531 C 184.652344 147.984375 182.714844 152.652344 183.382812 157.03125 Z M 189.902344 145.484375 C 191.296875 147.203125 194.128906 151.277344 193.945312 155.828125 C 193.828125 158.703125 192.519531 161.34375 190.050781 163.691406 C 188.792969 162.777344 186.050781 160.394531 185.492188 156.707031 C 184.96875 153.261719 186.449219 149.488281 189.902344 145.484375 Z M 189.902344 145.484375 " fill-opacity="1" fill-rule="nonzero"/><path fill="#4f8936" d="M 188.015625 179.203125 L 188.054688 178.445312 C 188.066406 178.195312 188.324219 172.246094 183.929688 168.359375 C 180.617188 165.425781 175.644531 164.515625 169.148438 165.65625 L 168.046875 165.847656 L 168.289062 166.941406 C 168.363281 167.265625 170.132812 174.886719 176.09375 178.410156 C 178.039062 179.558594 180.191406 180.136719 182.53125 180.136719 C 184.039062 180.136719 185.625 179.898438 187.285156 179.417969 Z M 177.195312 176.578125 C 173.273438 174.265625 171.386719 169.675781 170.695312 167.570312 C 175.921875 166.84375 179.890625 167.640625 182.503906 169.941406 C 185.292969 172.398438 185.816406 176.015625 185.910156 177.574219 C 182.601562 178.371094 179.671875 178.039062 177.195312 176.578125 Z M 177.195312 176.578125 " fill-opacity="1" fill-rule="nonzero"/><path fill="#4f8936" d="M 167.484375 184.136719 L 174.554688 193.0625 C 177.523438 196.8125 179.335938 201.761719 181.089844 206.550781 C 181.734375 208.300781 182.394531 210.109375 183.097656 211.796875 L 185.066406 210.980469 C 184.382812 209.332031 183.753906 207.625 183.097656 205.816406 C 181.285156 200.871094 179.410156 195.757812 176.230469 191.738281 L 169.160156 182.808594 C 166.828125 179.867188 162.597656 179.292969 159.574219 181.445312 L 152.710938 161.738281 C 151.929688 159.480469 149.585938 158.203125 147.265625 158.753906 C 144.867188 159.328125 143.339844 161.671875 143.785156 164.105469 C 143.785156 164.105469 146.5 178.167969 146.519531 178.273438 C 147.9375 185.605469 150.511719 192.273438 154.171875 198.097656 C 156.078125 201.136719 158.324219 204.011719 160.851562 206.652344 C 161.996094 207.847656 164.011719 211.015625 165.40625 213.460938 L 167.257812 212.402344 C 165.75 209.769531 163.664062 206.511719 162.390625 205.179688 C 159.964844 202.640625 157.808594 199.878906 155.976562 196.964844 C 152.457031 191.363281 149.980469 184.941406 148.621094 177.898438 C 148.617188 177.878906 148.617188 177.878906 145.882812 163.714844 C 145.644531 162.40625 146.46875 161.140625 147.761719 160.832031 C 149.011719 160.535156 150.273438 161.226562 150.699219 162.445312 L 158.707031 184.84375 L 169.121094 197.992188 L 170.792969 196.667969 L 160.378906 183.515625 L 160.609375 183.335938 C 162.722656 181.660156 165.808594 182.019531 167.484375 184.136719 Z M 167.484375 184.136719 " fill-opacity="1" fill-rule="nonzero"/><path fill="#4f8936" d="M 233.105469 158.757812 C 230.78125 158.203125 228.441406 159.484375 227.65625 161.742188 L 220.796875 181.445312 C 219.378906 180.433594 217.65625 179.992188 215.910156 180.195312 C 214.042969 180.414062 212.378906 181.34375 211.210938 182.8125 L 204.140625 191.742188 C 200.960938 195.757812 199.085938 200.871094 197.273438 205.820312 C 196.613281 207.628906 195.988281 209.335938 195.304688 210.980469 L 197.273438 211.800781 C 197.976562 210.113281 198.636719 208.300781 199.28125 206.554688 C 201.035156 201.765625 202.847656 196.816406 205.816406 193.066406 L 212.886719 184.136719 C 213.699219 183.113281 214.863281 182.464844 216.160156 182.3125 C 217.464844 182.164062 218.742188 182.523438 219.765625 183.335938 L 219.992188 183.515625 L 209.582031 196.667969 L 211.253906 197.992188 L 221.664062 184.84375 L 229.675781 162.441406 C 230.097656 161.226562 231.367188 160.535156 232.613281 160.832031 C 233.90625 161.140625 234.730469 162.40625 234.492188 163.703125 C 234.492188 163.703125 231.894531 177.160156 231.761719 177.84375 L 231.757812 177.871094 C 230.394531 184.941406 227.914062 191.363281 224.394531 196.964844 C 222.5625 199.878906 220.40625 202.644531 217.980469 205.179688 C 216.707031 206.507812 214.617188 209.765625 213.113281 212.402344 L 214.964844 213.460938 C 216.359375 211.019531 218.378906 207.847656 219.523438 206.652344 C 222.046875 204.011719 224.296875 201.136719 226.203125 198.097656 C 229.863281 192.273438 232.4375 185.605469 233.855469 178.273438 C 233.910156 177.996094 234.25 176.226562 236.59375 164.097656 C 237.03125 161.675781 235.503906 159.328125 233.105469 158.757812 Z M 233.105469 158.757812 " fill-opacity="1" fill-rule="nonzero"/><g fill="#4f8936" fill-opacity="1"><g transform="translate(108.407787, 269.109053)"><g><path d="M 20.640625 -13.203125 C 21.242188 -13.203125 21.742188 -13 22.140625 -12.59375 C 22.535156 -12.1875 22.734375 -11.675781 22.734375 -11.0625 L 22.734375 -3.671875 C 22.734375 -2.847656 22.375 -2.21875 21.65625 -1.78125 C 19.375 -0.363281 16.867188 0.34375 14.140625 0.34375 C 11.835938 0.34375 9.707031 -0.21875 7.75 -1.34375 C 5.789062 -2.46875 4.238281 -3.988281 3.09375 -5.90625 C 1.957031 -7.832031 1.390625 -9.9375 1.390625 -12.21875 C 1.390625 -14.5 1.957031 -16.597656 3.09375 -18.515625 C 4.238281 -20.441406 5.789062 -21.96875 7.75 -23.09375 C 9.707031 -24.226562 11.835938 -24.796875 14.140625 -24.796875 C 16.441406 -24.796875 18.445312 -24.328125 20.15625 -23.390625 C 20.5 -23.210938 20.757812 -22.96875 20.9375 -22.65625 C 21.113281 -22.351562 21.203125 -22.03125 21.203125 -21.6875 C 21.203125 -21.101562 21.007812 -20.59375 20.625 -20.15625 C 20.238281 -19.726562 19.765625 -19.515625 19.203125 -19.515625 C 18.859375 -19.515625 18.472656 -19.609375 18.046875 -19.796875 C 16.796875 -20.335938 15.492188 -20.609375 14.140625 -20.609375 C 12.648438 -20.609375 11.273438 -20.226562 10.015625 -19.46875 C 8.765625 -18.707031 7.769531 -17.6875 7.03125 -16.40625 C 6.300781 -15.132812 5.9375 -13.738281 5.9375 -12.21875 C 5.9375 -10.707031 6.300781 -9.3125 7.03125 -8.03125 C 7.769531 -6.75 8.765625 -5.726562 10.015625 -4.96875 C 11.273438 -4.21875 12.648438 -3.84375 14.140625 -3.84375 C 14.796875 -3.84375 15.492188 -3.898438 16.234375 -4.015625 C 16.984375 -4.128906 17.632812 -4.28125 18.1875 -4.46875 L 18.1875 -9.015625 L 14.90625 -9.015625 C 14.300781 -9.015625 13.796875 -9.210938 13.390625 -9.609375 C 12.984375 -10.003906 12.78125 -10.503906 12.78125 -11.109375 C 12.78125 -11.710938 12.984375 -12.210938 13.390625 -12.609375 C 13.796875 -13.003906 14.300781 -13.203125 14.90625 -13.203125 Z M 20.640625 -13.203125 "/></g></g></g><g fill="#4f8936" fill-opacity="1"><g transform="translate(133.621674, 269.109053)"><g><path d="M 16.453125 -4.015625 C 17.054688 -4.015625 17.5625 -3.8125 17.96875 -3.40625 C 18.375 -3 18.578125 -2.523438 18.578125 -1.984375 C 18.578125 -1.410156 18.375 -0.9375 17.96875 -0.5625 C 17.5625 -0.1875 17.054688 0 16.453125 0 L 4.75 0 C 4.144531 0 3.640625 -0.203125 3.234375 -0.609375 C 2.828125 -1.015625 2.625 -1.519531 2.625 -2.125 L 2.625 -22.3125 C 2.625 -22.914062 2.828125 -23.421875 3.234375 -23.828125 C 3.640625 -24.242188 4.144531 -24.453125 4.75 -24.453125 L 16.453125 -24.453125 C 17.054688 -24.453125 17.5625 -24.257812 17.96875 -23.875 C 18.375 -23.488281 18.578125 -22.992188 18.578125 -22.390625 C 18.578125 -21.804688 18.378906 -21.332031 17.984375 -20.96875 C 17.585938 -20.601562 17.078125 -20.421875 16.453125 -20.421875 L 6.984375 -20.421875 L 6.984375 -14.5 L 14.875 -14.5 C 15.476562 -14.5 15.984375 -14.304688 16.390625 -13.921875 C 16.796875 -13.535156 17 -13.039062 17 -12.4375 C 17 -11.851562 16.800781 -11.378906 16.40625 -11.015625 C 16.007812 -10.660156 15.5 -10.484375 14.875 -10.484375 L 6.984375 -10.484375 L 6.984375 -4.015625 Z M 16.453125 -4.015625 "/></g></g></g><g fill="#4f8936" fill-opacity="1"><g transform="translate(154.505219, 269.109053)"><g><path d="M 23.8125 -24.484375 C 24.394531 -24.484375 24.898438 -24.28125 25.328125 -23.875 C 25.765625 -23.46875 25.984375 -22.957031 25.984375 -22.34375 L 25.984375 -2.125 C 25.984375 -1.519531 25.785156 -1.015625 25.390625 -0.609375 C 24.992188 -0.203125 24.46875 0 23.8125 0 C 23.164062 0 22.632812 -0.195312 22.21875 -0.59375 C 21.8125 -0.988281 21.609375 -1.5 21.609375 -2.125 L 21.609375 -16.203125 L 15.859375 -7.40625 C 15.617188 -7.125 15.347656 -6.894531 15.046875 -6.71875 C 14.742188 -6.539062 14.429688 -6.46875 14.109375 -6.5 C 13.804688 -6.46875 13.503906 -6.539062 13.203125 -6.71875 C 12.898438 -6.894531 12.628906 -7.125 12.390625 -7.40625 L 6.640625 -16.515625 L 6.640625 -2.125 C 6.640625 -1.5 6.453125 -0.988281 6.078125 -0.59375 C 5.703125 -0.195312 5.210938 0 4.609375 0 C 4.023438 0 3.546875 -0.203125 3.171875 -0.609375 C 2.804688 -1.015625 2.625 -1.519531 2.625 -2.125 L 2.625 -22.34375 C 2.625 -22.925781 2.835938 -23.425781 3.265625 -23.84375 C 3.691406 -24.269531 4.207031 -24.484375 4.8125 -24.484375 C 5.164062 -24.484375 5.515625 -24.394531 5.859375 -24.21875 C 6.210938 -24.039062 6.484375 -23.8125 6.671875 -23.53125 L 14.28125 -11.84375 L 22.109375 -23.53125 C 22.296875 -23.8125 22.546875 -24.039062 22.859375 -24.21875 C 23.171875 -24.394531 23.488281 -24.484375 23.8125 -24.484375 Z M 23.8125 -24.484375 "/></g></g></g><g fill="#4f8936" fill-opacity="1"><g transform="translate(184.014525, 269.109053)"><g><path d="M 17.28125 -13.546875 C 18.519531 -13.054688 19.53125 -12.3125 20.3125 -11.3125 C 21.09375 -10.3125 21.484375 -9.019531 21.484375 -7.4375 C 21.484375 -4.664062 20.691406 -2.734375 19.109375 -1.640625 C 17.523438 -0.546875 15.632812 0 13.4375 0 L 4.75 0 C 4.144531 0 3.640625 -0.203125 3.234375 -0.609375 C 2.828125 -1.015625 2.625 -1.519531 2.625 -2.125 L 2.625 -22.3125 C 2.625 -22.914062 2.828125 -23.421875 3.234375 -23.828125 C 3.640625 -24.242188 4.144531 -24.453125 4.75 -24.453125 L 13.546875 -24.453125 C 17.972656 -24.453125 20.1875 -22.378906 20.1875 -18.234375 C 20.1875 -17.179688 19.9375 -16.253906 19.4375 -15.453125 C 18.9375 -14.648438 18.21875 -14.015625 17.28125 -13.546875 Z M 15.640625 -17.46875 C 15.640625 -18.414062 15.398438 -19.128906 14.921875 -19.609375 C 14.453125 -20.085938 13.785156 -20.328125 12.921875 -20.328125 L 7.15625 -20.328125 L 7.15625 -14.875 L 13.03125 -14.875 C 13.726562 -14.875 14.335938 -15.109375 14.859375 -15.578125 C 15.378906 -16.046875 15.640625 -16.675781 15.640625 -17.46875 Z M 13.4375 -4.015625 C 14.539062 -4.015625 15.398438 -4.304688 16.015625 -4.890625 C 16.628906 -5.472656 16.9375 -6.320312 16.9375 -7.4375 C 16.9375 -8.8125 16.570312 -9.707031 15.84375 -10.125 C 15.125 -10.539062 14.242188 -10.75 13.203125 -10.75 L 7.15625 -10.75 L 7.15625 -4.015625 Z M 13.4375 -4.015625 "/></g></g></g><g fill="#4f8936" fill-opacity="1"><g transform="translate(207.796601, 269.109053)"><g><path d="M 6.984375 -2.125 C 6.984375 -1.519531 6.757812 -1.015625 6.3125 -0.609375 C 5.875 -0.203125 5.363281 0 4.78125 0 C 4.15625 0 3.640625 -0.203125 3.234375 -0.609375 C 2.828125 -1.015625 2.625 -1.519531 2.625 -2.125 L 2.625 -22.3125 C 2.625 -22.914062 2.832031 -23.421875 3.25 -23.828125 C 3.664062 -24.242188 4.203125 -24.453125 4.859375 -24.453125 C 5.441406 -24.453125 5.941406 -24.242188 6.359375 -23.828125 C 6.773438 -23.421875 6.984375 -22.914062 6.984375 -22.3125 Z M 6.984375 -2.125 "/></g></g></g><g fill="#4f8936" fill-opacity="1"><g transform="translate(218.308274, 269.109053)"><g><path d="M 25.109375 -12.21875 C 25.109375 -9.914062 24.59375 -7.800781 23.5625 -5.875 C 22.539062 -3.957031 21.128906 -2.441406 19.328125 -1.328125 C 17.523438 -0.210938 15.492188 0.34375 13.234375 0.34375 C 10.972656 0.34375 8.941406 -0.210938 7.140625 -1.328125 C 5.335938 -2.441406 3.925781 -3.957031 2.90625 -5.875 C 1.894531 -7.800781 1.390625 -9.914062 1.390625 -12.21875 C 1.390625 -14.53125 1.894531 -16.644531 2.90625 -18.5625 C 3.925781 -20.476562 5.335938 -21.992188 7.140625 -23.109375 C 8.941406 -24.234375 10.972656 -24.796875 13.234375 -24.796875 C 15.492188 -24.796875 17.523438 -24.234375 19.328125 -23.109375 C 21.128906 -21.992188 22.539062 -20.476562 23.5625 -18.5625 C 24.59375 -16.644531 25.109375 -14.53125 25.109375 -12.21875 Z M 20.5625 -12.21875 C 20.5625 -13.78125 20.25 -15.195312 19.625 -16.46875 C 19 -17.738281 18.125 -18.742188 17 -19.484375 C 15.882812 -20.234375 14.628906 -20.609375 13.234375 -20.609375 C 11.816406 -20.609375 10.550781 -20.238281 9.4375 -19.5 C 8.332031 -18.769531 7.472656 -17.765625 6.859375 -16.484375 C 6.242188 -15.203125 5.9375 -13.78125 5.9375 -12.21875 C 5.9375 -10.664062 6.242188 -9.25 6.859375 -7.96875 C 7.472656 -6.6875 8.332031 -5.675781 9.4375 -4.9375 C 10.550781 -4.207031 11.816406 -3.84375 13.234375 -3.84375 C 14.628906 -3.84375 15.882812 -4.210938 17 -4.953125 C 18.125 -5.703125 19 -6.710938 19.625 -7.984375 C 20.25 -9.253906 20.5625 -10.664062 20.5625 -12.21875 Z M 20.5625 -12.21875 "/></g></g></g><g fill="#4f8936" fill-opacity="1"><g transform="translate(245.722256, 269.109053)"><g><path d="M 10.484375 0.34375 C 8.804688 0.34375 7.3125 0.132812 6 -0.28125 C 4.695312 -0.695312 3.476562 -1.40625 2.34375 -2.40625 C 1.707031 -2.96875 1.390625 -3.585938 1.390625 -4.265625 C 1.390625 -4.796875 1.585938 -5.265625 1.984375 -5.671875 C 2.378906 -6.078125 2.859375 -6.28125 3.421875 -6.28125 C 3.859375 -6.28125 4.253906 -6.140625 4.609375 -5.859375 C 5.535156 -5.097656 6.441406 -4.539062 7.328125 -4.1875 C 8.210938 -3.84375 9.265625 -3.671875 10.484375 -3.671875 C 11.785156 -3.671875 12.90625 -3.957031 13.84375 -4.53125 C 14.789062 -5.113281 15.265625 -5.835938 15.265625 -6.703125 C 15.265625 -7.753906 14.796875 -8.578125 13.859375 -9.171875 C 12.929688 -9.765625 11.453125 -10.210938 9.421875 -10.515625 C 4.328125 -11.253906 1.78125 -13.628906 1.78125 -17.640625 C 1.78125 -19.097656 2.160156 -20.367188 2.921875 -21.453125 C 3.691406 -22.535156 4.738281 -23.363281 6.0625 -23.9375 C 7.394531 -24.507812 8.878906 -24.796875 10.515625 -24.796875 C 11.984375 -24.796875 13.363281 -24.570312 14.65625 -24.125 C 15.945312 -23.6875 17.019531 -23.109375 17.875 -22.390625 C 18.550781 -21.847656 18.890625 -21.226562 18.890625 -20.53125 C 18.890625 -20 18.691406 -19.53125 18.296875 -19.125 C 17.898438 -18.71875 17.4375 -18.515625 16.90625 -18.515625 C 16.550781 -18.515625 16.234375 -18.617188 15.953125 -18.828125 C 15.347656 -19.316406 14.503906 -19.765625 13.421875 -20.171875 C 12.335938 -20.578125 11.367188 -20.78125 10.515625 -20.78125 C 9.046875 -20.78125 7.910156 -20.503906 7.109375 -19.953125 C 6.304688 -19.410156 5.90625 -18.695312 5.90625 -17.8125 C 5.90625 -16.8125 6.316406 -16.050781 7.140625 -15.53125 C 7.960938 -15.019531 9.257812 -14.601562 11.03125 -14.28125 C 13.03125 -13.9375 14.628906 -13.488281 15.828125 -12.9375 C 17.035156 -12.394531 17.941406 -11.648438 18.546875 -10.703125 C 19.148438 -9.765625 19.453125 -8.515625 19.453125 -6.953125 C 19.453125 -5.484375 19.035156 -4.195312 18.203125 -3.09375 C 17.378906 -1.988281 16.28125 -1.140625 14.90625 -0.546875 C 13.53125 0.046875 12.054688 0.34375 10.484375 0.34375 Z M 10.484375 0.34375 "/></g></g></g><g fill="#4f8936" fill-opacity="1"><g transform="translate(130.026119, 285.506933)"><g><path d="M 6.15625 -0.890625 C 5.894531 -0.578125 5.523438 -0.332031 5.046875 -0.15625 C 4.578125 0.0078125 4.054688 0.09375 3.484375 0.09375 C 2.878906 0.09375 2.347656 -0.0351562 1.890625 -0.296875 C 1.429688 -0.566406 1.078125 -0.953125 0.828125 -1.453125 C 0.585938 -1.953125 0.460938 -2.539062 0.453125 -3.21875 L 0.453125 -3.703125 C 0.453125 -4.398438 0.566406 -5.003906 0.796875 -5.515625 C 1.035156 -6.023438 1.375 -6.414062 1.8125 -6.6875 C 2.257812 -6.957031 2.785156 -7.09375 3.390625 -7.09375 C 4.210938 -7.09375 4.859375 -6.894531 5.328125 -6.5 C 5.796875 -6.101562 6.070312 -5.523438 6.15625 -4.765625 L 4.765625 -4.765625 C 4.691406 -5.171875 4.546875 -5.46875 4.328125 -5.65625 C 4.109375 -5.84375 3.804688 -5.9375 3.421875 -5.9375 C 2.929688 -5.9375 2.554688 -5.75 2.296875 -5.375 C 2.046875 -5.007812 1.921875 -4.460938 1.921875 -3.734375 L 1.921875 -3.28125 C 1.921875 -2.550781 2.054688 -2 2.328125 -1.625 C 2.609375 -1.25 3.019531 -1.0625 3.5625 -1.0625 C 4.101562 -1.0625 4.488281 -1.175781 4.71875 -1.40625 L 4.71875 -2.609375 L 3.40625 -2.609375 L 3.40625 -3.671875 L 6.15625 -3.671875 Z M 6.15625 -0.890625 "/></g></g></g><g fill="#4f8936" fill-opacity="1"><g transform="translate(138.741005, 285.506933)"><g><path d="M 3.21875 -2.5625 L 2.0625 -2.5625 L 2.0625 0 L 0.625 0 L 0.625 -7 L 3.21875 -7 C 4.050781 -7 4.691406 -6.8125 5.140625 -6.4375 C 5.585938 -6.070312 5.8125 -5.554688 5.8125 -4.890625 C 5.8125 -4.410156 5.707031 -4.007812 5.5 -3.6875 C 5.289062 -3.363281 4.976562 -3.109375 4.5625 -2.921875 L 6.078125 -0.0625 L 6.078125 0 L 4.53125 0 Z M 2.0625 -3.734375 L 3.234375 -3.734375 C 3.585938 -3.734375 3.863281 -3.820312 4.0625 -4 C 4.269531 -4.1875 4.375 -4.441406 4.375 -4.765625 C 4.375 -5.097656 4.28125 -5.359375 4.09375 -5.546875 C 3.90625 -5.734375 3.613281 -5.828125 3.21875 -5.828125 L 2.0625 -5.828125 Z M 2.0625 -3.734375 "/></g></g></g><g fill="#4f8936" fill-opacity="1"><g transform="translate(147.032917, 285.506933)"><g><path d="M 5.921875 -7 L 5.921875 -2.390625 C 5.921875 -1.617188 5.679688 -1.007812 5.203125 -0.5625 C 4.722656 -0.125 4.066406 0.09375 3.234375 0.09375 C 2.421875 0.09375 1.773438 -0.117188 1.296875 -0.546875 C 0.816406 -0.984375 0.570312 -1.582031 0.5625 -2.34375 L 0.5625 -7 L 2 -7 L 2 -2.375 C 2 -1.914062 2.109375 -1.582031 2.328125 -1.375 C 2.546875 -1.164062 2.847656 -1.0625 3.234375 -1.0625 C 4.046875 -1.0625 4.457031 -1.488281 4.46875 -2.34375 L 4.46875 -7 Z M 5.921875 -7 "/></g></g></g><g fill="#4f8936" fill-opacity="1"><g transform="translate(155.521895, 285.506933)"><g><path d="M 2.0625 -2.46875 L 2.0625 0 L 0.625 0 L 0.625 -7 L 3.359375 -7 C 3.878906 -7 4.335938 -6.898438 4.734375 -6.703125 C 5.140625 -6.515625 5.445312 -6.242188 5.65625 -5.890625 C 5.875 -5.535156 5.984375 -5.132812 5.984375 -4.6875 C 5.984375 -4 5.75 -3.457031 5.28125 -3.0625 C 4.8125 -2.664062 4.160156 -2.46875 3.328125 -2.46875 Z M 2.0625 -3.640625 L 3.359375 -3.640625 C 3.734375 -3.640625 4.019531 -3.726562 4.21875 -3.90625 C 4.425781 -4.082031 4.53125 -4.335938 4.53125 -4.671875 C 4.53125 -5.015625 4.425781 -5.289062 4.21875 -5.5 C 4.019531 -5.71875 3.742188 -5.828125 3.390625 -5.828125 L 2.0625 -5.828125 Z M 2.0625 -3.640625 "/></g></g></g><g fill="#4f8936" fill-opacity="1"><g transform="translate(163.881099, 285.506933)"><g><path d="M 6.375 -3.34375 C 6.375 -2.65625 6.25 -2.050781 6 -1.53125 C 5.757812 -1.007812 5.410156 -0.609375 4.953125 -0.328125 C 4.503906 -0.046875 3.988281 0.09375 3.40625 0.09375 C 2.820312 0.09375 2.300781 -0.0390625 1.84375 -0.3125 C 1.394531 -0.59375 1.046875 -0.992188 0.796875 -1.515625 C 0.546875 -2.035156 0.414062 -2.628906 0.40625 -3.296875 L 0.40625 -3.640625 C 0.40625 -4.335938 0.53125 -4.945312 0.78125 -5.46875 C 1.03125 -5.988281 1.378906 -6.390625 1.828125 -6.671875 C 2.285156 -6.953125 2.804688 -7.09375 3.390625 -7.09375 C 3.972656 -7.09375 4.488281 -6.953125 4.9375 -6.671875 C 5.394531 -6.390625 5.75 -5.988281 6 -5.46875 C 6.25 -4.945312 6.375 -4.34375 6.375 -3.65625 Z M 4.90625 -3.65625 C 4.90625 -4.394531 4.773438 -4.953125 4.515625 -5.328125 C 4.253906 -5.710938 3.878906 -5.90625 3.390625 -5.90625 C 2.910156 -5.90625 2.535156 -5.710938 2.265625 -5.328125 C 2.003906 -4.953125 1.875 -4.40625 1.875 -3.6875 L 1.875 -3.34375 C 1.875 -2.625 2.003906 -2.066406 2.265625 -1.671875 C 2.523438 -1.285156 2.90625 -1.09375 3.40625 -1.09375 C 3.882812 -1.09375 4.253906 -1.28125 4.515625 -1.65625 C 4.773438 -2.03125 4.90625 -2.582031 4.90625 -3.3125 Z M 4.90625 -3.65625 "/></g></g></g><g fill="#4f8936" fill-opacity="1"><g transform="translate(172.68731, 285.506933)"><g/></g></g><g fill="#4f8936" fill-opacity="1"><g transform="translate(177.148429, 285.506933)"><g><path d="M 0.625 0 L 0.625 -7 L 2.78125 -7 C 3.394531 -7 3.941406 -6.859375 4.421875 -6.578125 C 4.910156 -6.304688 5.289062 -5.914062 5.5625 -5.40625 C 5.832031 -4.894531 5.96875 -4.3125 5.96875 -3.65625 L 5.96875 -3.328125 C 5.96875 -2.679688 5.832031 -2.101562 5.5625 -1.59375 C 5.300781 -1.09375 4.925781 -0.703125 4.4375 -0.421875 C 3.945312 -0.140625 3.398438 0 2.796875 0 Z M 2.0625 -5.828125 L 2.0625 -1.15625 L 2.765625 -1.15625 C 3.328125 -1.15625 3.753906 -1.335938 4.046875 -1.703125 C 4.347656 -2.078125 4.503906 -2.609375 4.515625 -3.296875 L 4.515625 -3.65625 C 4.515625 -4.375 4.363281 -4.914062 4.0625 -5.28125 C 3.769531 -5.644531 3.34375 -5.828125 2.78125 -5.828125 Z M 2.0625 -5.828125 "/></g></g></g><g fill="#4f8936" fill-opacity="1"><g transform="translate(185.555699, 285.506933)"><g><path d="M 4.828125 -3.03125 L 2.0625 -3.03125 L 2.0625 -1.15625 L 5.3125 -1.15625 L 5.3125 0 L 0.625 0 L 0.625 -7 L 5.3125 -7 L 5.3125 -5.828125 L 2.0625 -5.828125 L 2.0625 -4.15625 L 4.828125 -4.15625 Z M 4.828125 -3.03125 "/></g></g></g><g fill="#4f8936" fill-opacity="1"><g transform="translate(193.102602, 285.506933)"><g/></g></g><g fill="#4f8936" fill-opacity="1"><g transform="translate(197.56372, 285.506933)"><g><path d="M 4.828125 -3.03125 L 2.0625 -3.03125 L 2.0625 -1.15625 L 5.3125 -1.15625 L 5.3125 0 L 0.625 0 L 0.625 -7 L 5.3125 -7 L 5.3125 -5.828125 L 2.0625 -5.828125 L 2.0625 -4.15625 L 4.828125 -4.15625 Z M 4.828125 -3.03125 "/></g></g></g><g fill="#4f8936" fill-opacity="1"><g transform="translate(205.110623, 285.506933)"><g><path d="M 4.25 -1.84375 C 4.25 -2.113281 4.148438 -2.320312 3.953125 -2.46875 C 3.765625 -2.613281 3.421875 -2.765625 2.921875 -2.921875 C 2.421875 -3.085938 2.023438 -3.25 1.734375 -3.40625 C 0.941406 -3.832031 0.546875 -4.410156 0.546875 -5.140625 C 0.546875 -5.515625 0.648438 -5.847656 0.859375 -6.140625 C 1.078125 -6.441406 1.382812 -6.675781 1.78125 -6.84375 C 2.1875 -7.007812 2.632812 -7.09375 3.125 -7.09375 C 3.625 -7.09375 4.066406 -7 4.453125 -6.8125 C 4.847656 -6.632812 5.15625 -6.378906 5.375 -6.046875 C 5.59375 -5.722656 5.703125 -5.351562 5.703125 -4.9375 L 4.265625 -4.9375 C 4.265625 -5.25 4.160156 -5.492188 3.953125 -5.671875 C 3.753906 -5.859375 3.472656 -5.953125 3.109375 -5.953125 C 2.753906 -5.953125 2.476562 -5.875 2.28125 -5.71875 C 2.082031 -5.570312 1.984375 -5.378906 1.984375 -5.140625 C 1.984375 -4.910156 2.097656 -4.71875 2.328125 -4.5625 C 2.554688 -4.40625 2.894531 -4.257812 3.34375 -4.125 C 4.164062 -3.882812 4.765625 -3.578125 5.140625 -3.203125 C 5.515625 -2.835938 5.703125 -2.382812 5.703125 -1.84375 C 5.703125 -1.238281 5.472656 -0.765625 5.015625 -0.421875 C 4.554688 -0.078125 3.9375 0.09375 3.15625 0.09375 C 2.625 0.09375 2.132812 -0.00390625 1.6875 -0.203125 C 1.25 -0.398438 0.910156 -0.671875 0.671875 -1.015625 C 0.441406 -1.359375 0.328125 -1.753906 0.328125 -2.203125 L 1.78125 -2.203125 C 1.78125 -1.429688 2.238281 -1.046875 3.15625 -1.046875 C 3.5 -1.046875 3.765625 -1.113281 3.953125 -1.25 C 4.148438 -1.394531 4.25 -1.59375 4.25 -1.84375 Z M 4.25 -1.84375 "/></g></g></g><g fill="#4f8936" fill-opacity="1"><g transform="translate(213.171824, 285.506933)"><g><path d="M 5.890625 -5.828125 L 3.75 -5.828125 L 3.75 0 L 2.3125 0 L 2.3125 -5.828125 L 0.1875 -5.828125 L 0.1875 -7 L 5.890625 -7 Z M 5.890625 -5.828125 "/></g></g></g><g fill="#4f8936" fill-opacity="1"><g transform="translate(221.271476, 285.506933)"><g><path d="M 5.921875 -7 L 5.921875 -2.390625 C 5.921875 -1.617188 5.679688 -1.007812 5.203125 -0.5625 C 4.722656 -0.125 4.066406 0.09375 3.234375 0.09375 C 2.421875 0.09375 1.773438 -0.117188 1.296875 -0.546875 C 0.816406 -0.984375 0.570312 -1.582031 0.5625 -2.34375 L 0.5625 -7 L 2 -7 L 2 -2.375 C 2 -1.914062 2.109375 -1.582031 2.328125 -1.375 C 2.546875 -1.164062 2.847656 -1.0625 3.234375 -1.0625 C 4.046875 -1.0625 4.457031 -1.488281 4.46875 -2.34375 L 4.46875 -7 Z M 5.921875 -7 "/></g></g></g><g fill="#4f8936" fill-opacity="1"><g transform="translate(229.760457, 285.506933)"><g><path d="M 0.625 0 L 0.625 -7 L 2.78125 -7 C 3.394531 -7 3.941406 -6.859375 4.421875 -6.578125 C 4.910156 -6.304688 5.289062 -5.914062 5.5625 -5.40625 C 5.832031 -4.894531 5.96875 -4.3125 5.96875 -3.65625 L 5.96875 -3.328125 C 5.96875 -2.679688 5.832031 -2.101562 5.5625 -1.59375 C 5.300781 -1.09375 4.925781 -0.703125 4.4375 -0.421875 C 3.945312 -0.140625 3.398438 0 2.796875 0 Z M 2.0625 -5.828125 L 2.0625 -1.15625 L 2.765625 -1.15625 C 3.328125 -1.15625 3.753906 -1.335938 4.046875 -1.703125 C 4.347656 -2.078125 4.503906 -2.609375 4.515625 -3.296875 L 4.515625 -3.65625 C 4.515625 -4.375 4.363281 -4.914062 4.0625 -5.28125 C 3.769531 -5.644531 3.34375 -5.828125 2.78125 -5.828125 Z M 2.0625 -5.828125 "/></g></g></g><g fill="#4f8936" fill-opacity="1"><g transform="translate(238.167721, 285.506933)"><g><path d="M 6.375 -3.34375 C 6.375 -2.65625 6.25 -2.050781 6 -1.53125 C 5.757812 -1.007812 5.410156 -0.609375 4.953125 -0.328125 C 4.503906 -0.046875 3.988281 0.09375 3.40625 0.09375 C 2.820312 0.09375 2.300781 -0.0390625 1.84375 -0.3125 C 1.394531 -0.59375 1.046875 -0.992188 0.796875 -1.515625 C 0.546875 -2.035156 0.414062 -2.628906 0.40625 -3.296875 L 0.40625 -3.640625 C 0.40625 -4.335938 0.53125 -4.945312 0.78125 -5.46875 C 1.03125 -5.988281 1.378906 -6.390625 1.828125 -6.671875 C 2.285156 -6.953125 2.804688 -7.09375 3.390625 -7.09375 C 3.972656 -7.09375 4.488281 -6.953125 4.9375 -6.671875 C 5.394531 -6.390625 5.75 -5.988281 6 -5.46875 C 6.25 -4.945312 6.375 -4.34375 6.375 -3.65625 Z M 4.90625 -3.65625 C 4.90625 -4.394531 4.773438 -4.953125 4.515625 -5.328125 C 4.253906 -5.710938 3.878906 -5.90625 3.390625 -5.90625 C 2.910156 -5.90625 2.535156 -5.710938 2.265625 -5.328125 C 2.003906 -4.953125 1.875 -4.40625 1.875 -3.6875 L 1.875 -3.34375 C 1.875 -2.625 2.003906 -2.066406 2.265625 -1.671875 C 2.523438 -1.285156 2.90625 -1.09375 3.40625 -1.09375 C 3.882812 -1.09375 4.253906 -1.28125 4.515625 -1.65625 C 4.773438 -2.03125 4.90625 -2.582031 4.90625 -3.3125 Z M 4.90625 -3.65625 "/></g></g></g><g fill="#4f8936" fill-opacity="1"><g transform="translate(116.889401, 299.006932)"><g><path d="M 2.515625 -7 L 4.3125 -1.921875 L 6.09375 -7 L 7.984375 -7 L 7.984375 0 L 6.546875 0 L 6.546875 -1.90625 L 6.6875 -5.21875 L 4.796875 0 L 3.8125 0 L 1.921875 -5.203125 L 2.0625 -1.90625 L 2.0625 0 L 0.625 0 L 0.625 -7 Z M 2.515625 -7 "/></g></g></g><g fill="#4f8936" fill-opacity="1"><g transform="translate(127.522088, 299.006932)"><g><path d="M 5.921875 -7 L 5.921875 -2.390625 C 5.921875 -1.617188 5.679688 -1.007812 5.203125 -0.5625 C 4.722656 -0.125 4.066406 0.09375 3.234375 0.09375 C 2.421875 0.09375 1.773438 -0.117188 1.296875 -0.546875 C 0.816406 -0.984375 0.570312 -1.582031 0.5625 -2.34375 L 0.5625 -7 L 2 -7 L 2 -2.375 C 2 -1.914062 2.109375 -1.582031 2.328125 -1.375 C 2.546875 -1.164062 2.847656 -1.0625 3.234375 -1.0625 C 4.046875 -1.0625 4.457031 -1.488281 4.46875 -2.34375 L 4.46875 -7 Z M 5.921875 -7 "/></g></g></g><g fill="#4f8936" fill-opacity="1"><g transform="translate(136.011067, 299.006932)"><g><path d="M 2.0625 -1.15625 L 5.125 -1.15625 L 5.125 0 L 0.625 0 L 0.625 -7 L 2.0625 -7 Z M 2.0625 -1.15625 "/></g></g></g><g fill="#4f8936" fill-opacity="1"><g transform="translate(143.351287, 299.006932)"><g><path d="M 5.890625 -5.828125 L 3.75 -5.828125 L 3.75 0 L 2.3125 0 L 2.3125 -5.828125 L 0.1875 -5.828125 L 0.1875 -7 L 5.890625 -7 Z M 5.890625 -5.828125 "/></g></g></g><g fill="#4f8936" fill-opacity="1"><g transform="translate(151.45094, 299.006932)"><g><path d="M 2.15625 0 L 0.71875 0 L 0.71875 -7 L 2.15625 -7 Z M 2.15625 0 "/></g></g></g><g fill="#4f8936" fill-opacity="1"><g transform="translate(156.330225, 299.006932)"><g><path d="M 0.625 0 L 0.625 -7 L 2.78125 -7 C 3.394531 -7 3.941406 -6.859375 4.421875 -6.578125 C 4.910156 -6.304688 5.289062 -5.914062 5.5625 -5.40625 C 5.832031 -4.894531 5.96875 -4.3125 5.96875 -3.65625 L 5.96875 -3.328125 C 5.96875 -2.679688 5.832031 -2.101562 5.5625 -1.59375 C 5.300781 -1.09375 4.925781 -0.703125 4.4375 -0.421875 C 3.945312 -0.140625 3.398438 0 2.796875 0 Z M 2.0625 -5.828125 L 2.0625 -1.15625 L 2.765625 -1.15625 C 3.328125 -1.15625 3.753906 -1.335938 4.046875 -1.703125 C 4.347656 -2.078125 4.503906 -2.609375 4.515625 -3.296875 L 4.515625 -3.65625 C 4.515625 -4.375 4.363281 -4.914062 4.0625 -5.28125 C 3.769531 -5.644531 3.34375 -5.828125 2.78125 -5.828125 Z M 2.0625 -5.828125 "/></g></g></g><g fill="#4f8936" fill-opacity="1"><g transform="translate(164.737495, 299.006932)"><g><path d="M 2.15625 0 L 0.71875 0 L 0.71875 -7 L 2.15625 -7 Z M 2.15625 0 "/></g></g></g><g fill="#4f8936" fill-opacity="1"><g transform="translate(169.616781, 299.006932)"><g><path d="M 4.25 -1.84375 C 4.25 -2.113281 4.148438 -2.320312 3.953125 -2.46875 C 3.765625 -2.613281 3.421875 -2.765625 2.921875 -2.921875 C 2.421875 -3.085938 2.023438 -3.25 1.734375 -3.40625 C 0.941406 -3.832031 0.546875 -4.410156 0.546875 -5.140625 C 0.546875 -5.515625 0.648438 -5.847656 0.859375 -6.140625 C 1.078125 -6.441406 1.382812 -6.675781 1.78125 -6.84375 C 2.1875 -7.007812 2.632812 -7.09375 3.125 -7.09375 C 3.625 -7.09375 4.066406 -7 4.453125 -6.8125 C 4.847656 -6.632812 5.15625 -6.378906 5.375 -6.046875 C 5.59375 -5.722656 5.703125 -5.351562 5.703125 -4.9375 L 4.265625 -4.9375 C 4.265625 -5.25 4.160156 -5.492188 3.953125 -5.671875 C 3.753906 -5.859375 3.472656 -5.953125 3.109375 -5.953125 C 2.753906 -5.953125 2.476562 -5.875 2.28125 -5.71875 C 2.082031 -5.570312 1.984375 -5.378906 1.984375 -5.140625 C 1.984375 -4.910156 2.097656 -4.71875 2.328125 -4.5625 C 2.554688 -4.40625 2.894531 -4.257812 3.34375 -4.125 C 4.164062 -3.882812 4.765625 -3.578125 5.140625 -3.203125 C 5.515625 -2.835938 5.703125 -2.382812 5.703125 -1.84375 C 5.703125 -1.238281 5.472656 -0.765625 5.015625 -0.421875 C 4.554688 -0.078125 3.9375 0.09375 3.15625 0.09375 C 2.625 0.09375 2.132812 -0.00390625 1.6875 -0.203125 C 1.25 -0.398438 0.910156 -0.671875 0.671875 -1.015625 C 0.441406 -1.359375 0.328125 -1.753906 0.328125 -2.203125 L 1.78125 -2.203125 C 1.78125 -1.429688 2.238281 -1.046875 3.15625 -1.046875 C 3.5 -1.046875 3.765625 -1.113281 3.953125 -1.25 C 4.148438 -1.394531 4.25 -1.59375 4.25 -1.84375 Z M 4.25 -1.84375 "/></g></g></g><g fill="#4f8936" fill-opacity="1"><g transform="translate(177.677981, 299.006932)"><g><path d="M 6.125 -2.328125 C 6.0625 -1.578125 5.78125 -0.984375 5.28125 -0.546875 C 4.78125 -0.117188 4.117188 0.09375 3.296875 0.09375 C 2.398438 0.09375 1.691406 -0.207031 1.171875 -0.8125 C 0.660156 -1.414062 0.40625 -2.242188 0.40625 -3.296875 L 0.40625 -3.71875 C 0.40625 -4.394531 0.523438 -4.988281 0.765625 -5.5 C 1.003906 -6.007812 1.34375 -6.398438 1.78125 -6.671875 C 2.226562 -6.953125 2.742188 -7.09375 3.328125 -7.09375 C 4.128906 -7.09375 4.773438 -6.875 5.265625 -6.4375 C 5.765625 -6.007812 6.050781 -5.40625 6.125 -4.625 L 4.6875 -4.625 C 4.65625 -5.070312 4.53125 -5.394531 4.3125 -5.59375 C 4.09375 -5.800781 3.765625 -5.90625 3.328125 -5.90625 C 2.835938 -5.90625 2.472656 -5.734375 2.234375 -5.390625 C 2.003906 -5.046875 1.882812 -4.515625 1.875 -3.796875 L 1.875 -3.265625 C 1.875 -2.503906 1.988281 -1.945312 2.21875 -1.59375 C 2.445312 -1.25 2.804688 -1.078125 3.296875 -1.078125 C 3.742188 -1.078125 4.078125 -1.175781 4.296875 -1.375 C 4.515625 -1.582031 4.640625 -1.898438 4.671875 -2.328125 Z M 6.125 -2.328125 "/></g></g></g><g fill="#4f8936" fill-opacity="1"><g transform="translate(186.12851, 299.006932)"><g><path d="M 2.15625 0 L 0.71875 0 L 0.71875 -7 L 2.15625 -7 Z M 2.15625 0 "/></g></g></g><g fill="#4f8936" fill-opacity="1"><g transform="translate(191.007795, 299.006932)"><g><path d="M 2.0625 -2.46875 L 2.0625 0 L 0.625 0 L 0.625 -7 L 3.359375 -7 C 3.878906 -7 4.335938 -6.898438 4.734375 -6.703125 C 5.140625 -6.515625 5.445312 -6.242188 5.65625 -5.890625 C 5.875 -5.535156 5.984375 -5.132812 5.984375 -4.6875 C 5.984375 -4 5.75 -3.457031 5.28125 -3.0625 C 4.8125 -2.664062 4.160156 -2.46875 3.328125 -2.46875 Z M 2.0625 -3.640625 L 3.359375 -3.640625 C 3.734375 -3.640625 4.019531 -3.726562 4.21875 -3.90625 C 4.425781 -4.082031 4.53125 -4.335938 4.53125 -4.671875 C 4.53125 -5.015625 4.425781 -5.289062 4.21875 -5.5 C 4.019531 -5.71875 3.742188 -5.828125 3.390625 -5.828125 L 2.0625 -5.828125 Z M 2.0625 -3.640625 "/></g></g></g><g fill="#4f8936" fill-opacity="1"><g transform="translate(199.367, 299.006932)"><g><path d="M 2.0625 -1.15625 L 5.125 -1.15625 L 5.125 0 L 0.625 0 L 0.625 -7 L 2.0625 -7 Z M 2.0625 -1.15625 "/></g></g></g><g fill="#4f8936" fill-opacity="1"><g transform="translate(206.707223, 299.006932)"><g><path d="M 2.15625 0 L 0.71875 0 L 0.71875 -7 L 2.15625 -7 Z M 2.15625 0 "/></g></g></g><g fill="#4f8936" fill-opacity="1"><g transform="translate(211.586508, 299.006932)"><g><path d="M 6.3125 0 L 4.875 0 L 2.0625 -4.609375 L 2.0625 0 L 0.625 0 L 0.625 -7 L 2.0625 -7 L 4.875 -2.390625 L 4.875 -7 L 6.3125 -7 Z M 6.3125 0 "/></g></g></g><g fill="#4f8936" fill-opacity="1"><g transform="translate(220.546522, 299.006932)"><g><path d="M 4.578125 -1.4375 L 2.046875 -1.4375 L 1.5625 0 L 0.03125 0 L 2.640625 -7 L 3.96875 -7 L 6.59375 0 L 5.0625 0 Z M 2.4375 -2.609375 L 4.1875 -2.609375 L 3.3125 -5.234375 Z M 2.4375 -2.609375 "/></g></g></g><g fill="#4f8936" fill-opacity="1"><g transform="translate(229.179692, 299.006932)"><g><path d="M 3.21875 -2.5625 L 2.0625 -2.5625 L 2.0625 0 L 0.625 0 L 0.625 -7 L 3.21875 -7 C 4.050781 -7 4.691406 -6.8125 5.140625 -6.4375 C 5.585938 -6.070312 5.8125 -5.554688 5.8125 -4.890625 C 5.8125 -4.410156 5.707031 -4.007812 5.5 -3.6875 C 5.289062 -3.363281 4.976562 -3.109375 4.5625 -2.921875 L 6.078125 -0.0625 L 6.078125 0 L 4.53125 0 Z M 2.0625 -3.734375 L 3.234375 -3.734375 C 3.585938 -3.734375 3.863281 -3.820312 4.0625 -4 C 4.269531 -4.1875 4.375 -4.441406 4.375 -4.765625 C 4.375 -5.097656 4.28125 -5.359375 4.09375 -5.546875 C 3.90625 -5.734375 3.613281 -5.828125 3.21875 -5.828125 L 2.0625 -5.828125 Z M 2.0625 -3.734375 "/></g></g></g><g fill="#4f8936" fill-opacity="1"><g transform="translate(237.4716, 299.006932)"><g/></g></g><g fill="#4f8936" fill-opacity="1"><g transform="translate(241.932713, 299.006932)"><g><path d="M 4.828125 -3.03125 L 2.0625 -3.03125 L 2.0625 -1.15625 L 5.3125 -1.15625 L 5.3125 0 L 0.625 0 L 0.625 -7 L 5.3125 -7 L 5.3125 -5.828125 L 2.0625 -5.828125 L 2.0625 -4.15625 L 4.828125 -4.15625 Z M 4.828125 -3.03125 "/></g></g></g><g fill="#4f8936" fill-opacity="1"><g transform="translate(249.47961, 299.006932)"><g><path d="M 2.515625 -7 L 4.3125 -1.921875 L 6.09375 -7 L 7.984375 -7 L 7.984375 0 L 6.546875 0 L 6.546875 -1.90625 L 6.6875 -5.21875 L 4.796875 0 L 3.8125 0 L 1.921875 -5.203125 L 2.0625 -1.90625 L 2.0625 0 L 0.625 0 L 0.625 -7 Z M 2.515625 -7 "/></g></g></g><g fill="#4f8936" fill-opacity="1"><g transform="translate(129.522213, 312.506931)"><g><path d="M 0.625 0 L 0.625 -7 L 3.078125 -7 C 3.921875 -7 4.5625 -6.832031 5 -6.5 C 5.445312 -6.175781 5.671875 -5.703125 5.671875 -5.078125 C 5.671875 -4.734375 5.582031 -4.429688 5.40625 -4.171875 C 5.226562 -3.910156 4.984375 -3.71875 4.671875 -3.59375 C 5.023438 -3.507812 5.304688 -3.328125 5.515625 -3.046875 C 5.722656 -2.773438 5.828125 -2.445312 5.828125 -2.0625 C 5.828125 -1.382812 5.609375 -0.875 5.171875 -0.53125 C 4.742188 -0.1875 4.132812 -0.0078125 3.34375 0 Z M 2.0625 -3.046875 L 2.0625 -1.15625 L 3.296875 -1.15625 C 3.640625 -1.15625 3.90625 -1.234375 4.09375 -1.390625 C 4.289062 -1.554688 4.390625 -1.785156 4.390625 -2.078125 C 4.390625 -2.710938 4.054688 -3.035156 3.390625 -3.046875 Z M 2.0625 -4.0625 L 3.140625 -4.0625 C 3.859375 -4.070312 4.21875 -4.363281 4.21875 -4.9375 C 4.21875 -5.25 4.125 -5.472656 3.9375 -5.609375 C 3.757812 -5.753906 3.472656 -5.828125 3.078125 -5.828125 L 2.0625 -5.828125 Z M 2.0625 -4.0625 "/></g></g></g><g fill="#4f8936" fill-opacity="1"><g transform="translate(137.814125, 312.506931)"><g><path d="M 2.15625 0 L 0.71875 0 L 0.71875 -7 L 2.15625 -7 Z M 2.15625 0 "/></g></g></g><g fill="#4f8936" fill-opacity="1"><g transform="translate(142.693409, 312.506931)"><g><path d="M 6.375 -3.34375 C 6.375 -2.65625 6.25 -2.050781 6 -1.53125 C 5.757812 -1.007812 5.410156 -0.609375 4.953125 -0.328125 C 4.503906 -0.046875 3.988281 0.09375 3.40625 0.09375 C 2.820312 0.09375 2.300781 -0.0390625 1.84375 -0.3125 C 1.394531 -0.59375 1.046875 -0.992188 0.796875 -1.515625 C 0.546875 -2.035156 0.414062 -2.628906 0.40625 -3.296875 L 0.40625 -3.640625 C 0.40625 -4.335938 0.53125 -4.945312 0.78125 -5.46875 C 1.03125 -5.988281 1.378906 -6.390625 1.828125 -6.671875 C 2.285156 -6.953125 2.804688 -7.09375 3.390625 -7.09375 C 3.972656 -7.09375 4.488281 -6.953125 4.9375 -6.671875 C 5.394531 -6.390625 5.75 -5.988281 6 -5.46875 C 6.25 -4.945312 6.375 -4.34375 6.375 -3.65625 Z M 4.90625 -3.65625 C 4.90625 -4.394531 4.773438 -4.953125 4.515625 -5.328125 C 4.253906 -5.710938 3.878906 -5.90625 3.390625 -5.90625 C 2.910156 -5.90625 2.535156 -5.710938 2.265625 -5.328125 C 2.003906 -4.953125 1.875 -4.40625 1.875 -3.6875 L 1.875 -3.34375 C 1.875 -2.625 2.003906 -2.066406 2.265625 -1.671875 C 2.523438 -1.285156 2.90625 -1.09375 3.40625 -1.09375 C 3.882812 -1.09375 4.253906 -1.28125 4.515625 -1.65625 C 4.773438 -2.03125 4.90625 -2.582031 4.90625 -3.3125 Z M 4.90625 -3.65625 "/></g></g></g><g fill="#4f8936" fill-opacity="1"><g transform="translate(151.499619, 312.506931)"><g><path d="M 2.0625 -1.15625 L 5.125 -1.15625 L 5.125 0 L 0.625 0 L 0.625 -7 L 2.0625 -7 Z M 2.0625 -1.15625 "/></g></g></g><g fill="#4f8936" fill-opacity="1"><g transform="translate(158.83984, 312.506931)"><g><path d="M 6.375 -3.34375 C 6.375 -2.65625 6.25 -2.050781 6 -1.53125 C 5.757812 -1.007812 5.410156 -0.609375 4.953125 -0.328125 C 4.503906 -0.046875 3.988281 0.09375 3.40625 0.09375 C 2.820312 0.09375 2.300781 -0.0390625 1.84375 -0.3125 C 1.394531 -0.59375 1.046875 -0.992188 0.796875 -1.515625 C 0.546875 -2.035156 0.414062 -2.628906 0.40625 -3.296875 L 0.40625 -3.640625 C 0.40625 -4.335938 0.53125 -4.945312 0.78125 -5.46875 C 1.03125 -5.988281 1.378906 -6.390625 1.828125 -6.671875 C 2.285156 -6.953125 2.804688 -7.09375 3.390625 -7.09375 C 3.972656 -7.09375 4.488281 -6.953125 4.9375 -6.671875 C 5.394531 -6.390625 5.75 -5.988281 6 -5.46875 C 6.25 -4.945312 6.375 -4.34375 6.375 -3.65625 Z M 4.90625 -3.65625 C 4.90625 -4.394531 4.773438 -4.953125 4.515625 -5.328125 C 4.253906 -5.710938 3.878906 -5.90625 3.390625 -5.90625 C 2.910156 -5.90625 2.535156 -5.710938 2.265625 -5.328125 C 2.003906 -4.953125 1.875 -4.40625 1.875 -3.6875 L 1.875 -3.34375 C 1.875 -2.625 2.003906 -2.066406 2.265625 -1.671875 C 2.523438 -1.285156 2.90625 -1.09375 3.40625 -1.09375 C 3.882812 -1.09375 4.253906 -1.28125 4.515625 -1.65625 C 4.773438 -2.03125 4.90625 -2.582031 4.90625 -3.3125 Z M 4.90625 -3.65625 "/></g></g></g><g fill="#4f8936" fill-opacity="1"><g transform="translate(167.646051, 312.506931)"><g><path d="M 6.15625 -0.890625 C 5.894531 -0.578125 5.523438 -0.332031 5.046875 -0.15625 C 4.578125 0.0078125 4.054688 0.09375 3.484375 0.09375 C 2.878906 0.09375 2.347656 -0.0351562 1.890625 -0.296875 C 1.429688 -0.566406 1.078125 -0.953125 0.828125 -1.453125 C 0.585938 -1.953125 0.460938 -2.539062 0.453125 -3.21875 L 0.453125 -3.703125 C 0.453125 -4.398438 0.566406 -5.003906 0.796875 -5.515625 C 1.035156 -6.023438 1.375 -6.414062 1.8125 -6.6875 C 2.257812 -6.957031 2.785156 -7.09375 3.390625 -7.09375 C 4.210938 -7.09375 4.859375 -6.894531 5.328125 -6.5 C 5.796875 -6.101562 6.070312 -5.523438 6.15625 -4.765625 L 4.765625 -4.765625 C 4.691406 -5.171875 4.546875 -5.46875 4.328125 -5.65625 C 4.109375 -5.84375 3.804688 -5.9375 3.421875 -5.9375 C 2.929688 -5.9375 2.554688 -5.75 2.296875 -5.375 C 2.046875 -5.007812 1.921875 -4.460938 1.921875 -3.734375 L 1.921875 -3.28125 C 1.921875 -2.550781 2.054688 -2 2.328125 -1.625 C 2.609375 -1.25 3.019531 -1.0625 3.5625 -1.0625 C 4.101562 -1.0625 4.488281 -1.175781 4.71875 -1.40625 L 4.71875 -2.609375 L 3.40625 -2.609375 L 3.40625 -3.671875 L 6.15625 -3.671875 Z M 6.15625 -0.890625 "/></g></g></g><g fill="#4f8936" fill-opacity="1"><g transform="translate(176.360938, 312.506931)"><g><path d="M 2.15625 0 L 0.71875 0 L 0.71875 -7 L 2.15625 -7 Z M 2.15625 0 "/></g></g></g><g fill="#4f8936" fill-opacity="1"><g transform="translate(181.240223, 312.506931)"><g><path d="M 4.578125 -1.4375 L 2.046875 -1.4375 L 1.5625 0 L 0.03125 0 L 2.640625 -7 L 3.96875 -7 L 6.59375 0 L 5.0625 0 Z M 2.4375 -2.609375 L 4.1875 -2.609375 L 3.3125 -5.234375 Z M 2.4375 -2.609375 "/></g></g></g><g fill="#4f8936" fill-opacity="1"><g transform="translate(189.8734, 312.506931)"><g/></g></g><g fill="#4f8936" fill-opacity="1"><g transform="translate(194.334518, 312.506931)"><g><path d="M 4.828125 -3.03125 L 2.0625 -3.03125 L 2.0625 -1.15625 L 5.3125 -1.15625 L 5.3125 0 L 0.625 0 L 0.625 -7 L 5.3125 -7 L 5.3125 -5.828125 L 2.0625 -5.828125 L 2.0625 -4.15625 L 4.828125 -4.15625 Z M 4.828125 -3.03125 "/></g></g></g><g fill="#4f8936" fill-opacity="1"><g transform="translate(201.881421, 312.506931)"><g/></g></g><g fill="#4f8936" fill-opacity="1"><g transform="translate(206.34254, 312.506931)"><g><path d="M 4.25 -1.84375 C 4.25 -2.113281 4.148438 -2.320312 3.953125 -2.46875 C 3.765625 -2.613281 3.421875 -2.765625 2.921875 -2.921875 C 2.421875 -3.085938 2.023438 -3.25 1.734375 -3.40625 C 0.941406 -3.832031 0.546875 -4.410156 0.546875 -5.140625 C 0.546875 -5.515625 0.648438 -5.847656 0.859375 -6.140625 C 1.078125 -6.441406 1.382812 -6.675781 1.78125 -6.84375 C 2.1875 -7.007812 2.632812 -7.09375 3.125 -7.09375 C 3.625 -7.09375 4.066406 -7 4.453125 -6.8125 C 4.847656 -6.632812 5.15625 -6.378906 5.375 -6.046875 C 5.59375 -5.722656 5.703125 -5.351562 5.703125 -4.9375 L 4.265625 -4.9375 C 4.265625 -5.25 4.160156 -5.492188 3.953125 -5.671875 C 3.753906 -5.859375 3.472656 -5.953125 3.109375 -5.953125 C 2.753906 -5.953125 2.476562 -5.875 2.28125 -5.71875 C 2.082031 -5.570312 1.984375 -5.378906 1.984375 -5.140625 C 1.984375 -4.910156 2.097656 -4.71875 2.328125 -4.5625 C 2.554688 -4.40625 2.894531 -4.257812 3.34375 -4.125 C 4.164062 -3.882812 4.765625 -3.578125 5.140625 -3.203125 C 5.515625 -2.835938 5.703125 -2.382812 5.703125 -1.84375 C 5.703125 -1.238281 5.472656 -0.765625 5.015625 -0.421875 C 4.554688 -0.078125 3.9375 0.09375 3.15625 0.09375 C 2.625 0.09375 2.132812 -0.00390625 1.6875 -0.203125 C 1.25 -0.398438 0.910156 -0.671875 0.671875 -1.015625 C 0.441406 -1.359375 0.328125 -1.753906 0.328125 -2.203125 L 1.78125 -2.203125 C 1.78125 -1.429688 2.238281 -1.046875 3.15625 -1.046875 C 3.5 -1.046875 3.765625 -1.113281 3.953125 -1.25 C 4.148438 -1.394531 4.25 -1.59375 4.25 -1.84375 Z M 4.25 -1.84375 "/></g></g></g><g fill="#4f8936" fill-opacity="1"><g transform="translate(214.40374, 312.506931)"><g><path d="M 4.578125 -1.4375 L 2.046875 -1.4375 L 1.5625 0 L 0.03125 0 L 2.640625 -7 L 3.96875 -7 L 6.59375 0 L 5.0625 0 Z M 2.4375 -2.609375 L 4.1875 -2.609375 L 3.3125 -5.234375 Z M 2.4375 -2.609375 "/></g></g></g><g fill="#4f8936" fill-opacity="1"><g transform="translate(223.036916, 312.506931)"><g><path d="M 5.921875 -7 L 5.921875 -2.390625 C 5.921875 -1.617188 5.679688 -1.007812 5.203125 -0.5625 C 4.722656 -0.125 4.066406 0.09375 3.234375 0.09375 C 2.421875 0.09375 1.773438 -0.117188 1.296875 -0.546875 C 0.816406 -0.984375 0.570312 -1.582031 0.5625 -2.34375 L 0.5625 -7 L 2 -7 L 2 -2.375 C 2 -1.914062 2.109375 -1.582031 2.328125 -1.375 C 2.546875 -1.164062 2.847656 -1.0625 3.234375 -1.0625 C 4.046875 -1.0625 4.457031 -1.488281 4.46875 -2.34375 L 4.46875 -7 Z M 3.5 -8.875 L 5.015625 -8.875 L 3.671875 -7.375 L 2.546875 -7.375 Z M 3.5 -8.875 "/></g></g></g><g fill="#4f8936" fill-opacity="1"><g transform="translate(231.525891, 312.506931)"><g><path d="M 0.625 0 L 0.625 -7 L 2.78125 -7 C 3.394531 -7 3.941406 -6.859375 4.421875 -6.578125 C 4.910156 -6.304688 5.289062 -5.914062 5.5625 -5.40625 C 5.832031 -4.894531 5.96875 -4.3125 5.96875 -3.65625 L 5.96875 -3.328125 C 5.96875 -2.679688 5.832031 -2.101562 5.5625 -1.59375 C 5.300781 -1.09375 4.925781 -0.703125 4.4375 -0.421875 C 3.945312 -0.140625 3.398438 0 2.796875 0 Z M 2.0625 -5.828125 L 2.0625 -1.15625 L 2.765625 -1.15625 C 3.328125 -1.15625 3.753906 -1.335938 4.046875 -1.703125 C 4.347656 -2.078125 4.503906 -2.609375 4.515625 -3.296875 L 4.515625 -3.65625 C 4.515625 -4.375 4.363281 -4.914062 4.0625 -5.28125 C 3.769531 -5.644531 3.34375 -5.828125 2.78125 -5.828125 Z M 2.0625 -5.828125 "/></g></g></g><g fill="#4f8936" fill-opacity="1"><g transform="translate(239.933155, 312.506931)"><g><path d="M 4.828125 -3.03125 L 2.0625 -3.03125 L 2.0625 -1.15625 L 5.3125 -1.15625 L 5.3125 0 L 0.625 0 L 0.625 -7 L 5.3125 -7 L 5.3125 -5.828125 L 2.0625 -5.828125 L 2.0625 -4.15625 L 4.828125 -4.15625 Z M 4.828125 -3.03125 "/></g></g></g></svg>