<svg xmlns="http://www.w3.org/2000/svg" xmlns:xlink="http://www.w3.org/1999/xlink" width="1366" zoomAndPan="magnify" viewBox="0 0 1024.5 576" height="768" preserveAspectRatio="xMidYMid meet" version="1.0"><defs><g/><clipPath id="a046862273"><path d="M 19.972656 162.226562 L 350.5625 162.226562 L 350.5625 492.820312 L 19.972656 492.820312 Z M 19.972656 162.226562 " clip-rule="nonzero"/></clipPath><clipPath id="54cc4d75f2"><path d="M 49 189 L 268 189 L 268 428 L 49 428 Z M 49 189 " clip-rule="nonzero"/></clipPath><clipPath id="e5ecfc8b71"><path d="M -34.050781 265.152344 L 215.664062 126.289062 L 309.765625 295.515625 L 60.054688 434.378906 Z M -34.050781 265.152344 " clip-rule="nonzero"/></clipPath><clipPath id="cbaa5af4f2"><path d="M -34.050781 265.152344 L 215.664062 126.289062 L 309.765625 295.515625 L 60.054688 434.378906 Z M -34.050781 265.152344 " clip-rule="nonzero"/></clipPath><clipPath id="6cb7596094"><path d="M 154 231 L 282 231 L 282 479 L 154 479 Z M 154 231 " clip-rule="nonzero"/></clipPath><clipPath id="7762e1a3f4"><path d="M 34.484375 325.160156 L 144.140625 231.757812 L 281.949219 393.542969 L 172.292969 486.945312 Z M 34.484375 325.160156 " clip-rule="nonzero"/></clipPath><clipPath id="90764e8070"><path d="M 34.484375 325.160156 L 273.570312 121.511719 L 411.378906 283.300781 L 172.292969 486.945312 Z M 34.484375 325.160156 " clip-rule="nonzero"/></clipPath><clipPath id="da4cec681e"><path d="M 255 250.074219 L 421 250.074219 L 421 434 L 255 434 Z M 255 250.074219 " clip-rule="nonzero"/></clipPath></defs><g clip-path="url(#a046862273)"><path fill="#002885" d="M 188.082031 493.449219 C 209.738281 493.136719 231.234375 488.570312 250.996094 480.066406 C 270.761719 471.558594 288.871094 459.277344 303.910156 444 C 318.949219 428.726562 331.078125 410.535156 339.1875 390.773438 C 347.375 371.007812 351.550781 349.589844 351.550781 328.175781 C 351.550781 349.589844 347.296875 371.007812 339.109375 390.773438 C 330.917969 410.535156 318.636719 428.648438 303.4375 443.609375 C 288.242188 458.648438 270.050781 470.535156 250.289062 478.488281 C 230.523438 486.441406 209.1875 490.300781 188.003906 489.984375 C 166.824219 489.671875 145.800781 485.105469 126.429688 476.757812 C 107.136719 468.410156 89.5 456.207031 74.933594 441.246094 C 60.289062 426.285156 48.632812 408.488281 40.839844 389.121094 C 32.964844 369.828125 28.949219 348.960938 28.949219 328.175781 C 28.949219 307.308594 32.964844 286.519531 40.839844 267.230469 C 48.714844 247.9375 60.367188 230.140625 74.933594 215.179688 C 89.578125 200.21875 107.136719 188.015625 126.429688 179.667969 C 145.878906 171.164062 166.902344 166.675781 188.082031 166.363281 C 209.265625 166.046875 230.605469 169.90625 250.367188 177.859375 C 270.132812 185.730469 288.320312 197.699219 303.597656 212.742188 C 318.792969 227.78125 330.996094 245.8125 339.265625 265.574219 C 347.535156 285.339844 351.707031 306.757812 351.707031 328.175781 C 351.707031 306.757812 347.535156 285.339844 339.34375 265.574219 C 331.15625 245.734375 319.109375 227.621094 304.070312 212.347656 C 289.027344 197.070312 270.917969 184.707031 251.15625 176.285156 C 231.234375 167.621094 209.738281 163.132812 188.082031 162.738281 C 166.429688 162.425781 144.617188 166.285156 124.382812 174.394531 C 104.144531 182.425781 85.40625 194.550781 69.738281 209.828125 C 54.066406 225.101562 41.46875 243.605469 32.886719 263.84375 C 24.382812 284.078125 19.972656 306.125 19.972656 328.09375 C 19.972656 350.0625 24.382812 372.109375 32.964844 392.347656 C 41.46875 412.582031 54.144531 431.085938 69.816406 446.363281 C 85.484375 461.640625 104.144531 473.765625 124.460938 481.796875 C 144.617188 489.90625 166.429688 493.765625 188.082031 493.449219 Z M 188.082031 493.449219 " fill-opacity="1" fill-rule="nonzero"/></g><g clip-path="url(#54cc4d75f2)"><g clip-path="url(#e5ecfc8b71)"><g clip-path="url(#cbaa5af4f2)"><path fill="#002885" d="M 108.640625 329.359375 C 100.613281 344.933594 93.058594 360.695312 85.09375 376.234375 C 81.867188 382.507812 78.570312 388.734375 75.164062 394.902344 C 70.597656 391.742188 64.59375 390.605469 58.296875 393.332031 C 57.84375 393.542969 57.457031 393.800781 57.121094 394.148438 C 56.695312 394.261719 56.292969 394.488281 55.921875 394.773438 C 48.199219 400.941406 47.988281 410.949219 52.113281 418.300781 C 56.484375 426.085938 65.433594 430.757812 74.75 425.414062 C 84.628906 419.757812 85.441406 409.578125 81.3125 401.859375 C 80.394531 400.132812 79.195312 398.5625 77.8125 397.175781 C 81.335938 390.777344 84.777344 384.304688 88.09375 377.820312 C 95.851562 362.640625 103.234375 347.300781 111.039062 332.132812 C 115.835938 336.589844 122.660156 338.25 129.726562 334.195312 C 139.605469 328.539062 140.417969 318.363281 136.289062 310.644531 C 133.203125 304.871094 127.265625 300.5625 120.292969 300.613281 C 118.425781 282.035156 116.816406 263.476562 114.886719 244.929688 C 114.160156 238.128906 113.398438 231.347656 112.589844 224.550781 C 113.277344 224.25 113.964844 223.949219 114.632812 223.539062 C 120.394531 220.214844 123.0625 215.351562 123.464844 210.367188 C 126.5625 210.882812 129.679688 211.511719 132.753906 212.28125 C 140.496094 214.203125 148.171875 216.734375 155.78125 218.851562 C 154.421875 223.800781 155.3125 229.207031 157.8125 233.632812 C 161.597656 240.363281 168.796875 244.746094 176.699219 242.34375 C 178.84375 247.296875 181.050781 252.214844 183.316406 257.101562 C 185.65625 262.109375 188.054688 267.082031 190.515625 272.023438 C 184.722656 278.21875 184.917969 287.0625 188.636719 293.746094 C 193.007812 301.53125 201.953125 306.203125 211.273438 300.855469 C 221.152344 295.199219 221.964844 285.023438 217.835938 277.304688 C 213.710938 269.667969 204.648438 264.570312 194.816406 268.777344 C 194.363281 268.988281 193.976562 269.246094 193.644531 269.59375 C 193.5 269.632812 193.363281 269.75 193.238281 269.816406 C 190.914062 265.128906 188.621094 260.417969 186.421875 255.660156 C 184.171875 250.804688 181.984375 245.917969 179.84375 241.042969 C 180.058594 240.921875 180.265625 240.851562 180.449219 240.746094 C 187.703125 236.589844 190.058594 229.992188 189.179688 223.722656 C 195.128906 223.667969 201.058594 223.425781 206.96875 223.070312 C 215.671875 222.542969 224.34375 221.75 233.035156 220.90625 C 232.847656 224.671875 233.847656 228.515625 235.679688 231.808594 C 240.046875 239.59375 248.996094 244.265625 258.316406 238.921875 C 268.195312 233.265625 269.003906 223.085938 264.875 215.371094 C 260.75 207.730469 251.691406 202.636719 241.859375 206.839844 C 241.40625 207.050781 241.019531 207.308594 240.683594 207.65625 C 240.261719 207.773438 239.855469 207.996094 239.488281 208.285156 C 236.300781 210.828125 234.390625 214.046875 233.550781 217.445312 C 224.605469 218.265625 215.710938 219.105469 206.769531 219.640625 C 200.671875 220.019531 194.535156 220.253906 188.375 220.304688 C 188.027344 219.234375 187.546875 218.15625 187.027344 217.144531 C 182.902344 209.507812 173.839844 204.414062 164.007812 208.617188 C 163.554688 208.828125 163.167969 209.085938 162.835938 209.433594 C 162.410156 209.546875 162.003906 209.773438 161.636719 210.058594 C 159.605469 211.675781 158.097656 213.574219 157.070312 215.609375 C 149.316406 213.449219 141.515625 210.910156 133.625 208.949219 C 130.230469 208.109375 126.824219 207.398438 123.441406 206.878906 C 123.160156 204.472656 122.386719 202.132812 121.226562 199.96875 C 117.101562 192.332031 108.039062 187.238281 98.207031 191.441406 C 97.757812 191.652344 97.371094 191.910156 97.035156 192.257812 C 96.609375 192.371094 96.207031 192.597656 95.835938 192.882812 C 88.113281 199.050781 87.898438 209.058594 92.027344 216.410156 C 95.550781 222.671875 102.027344 226.925781 109.324219 225.554688 C 110.121094 232.113281 110.855469 238.703125 111.558594 245.234375 C 113.484375 263.78125 115.097656 282.339844 116.960938 300.917969 C 115.761719 301.179688 114.554688 301.566406 113.335938 302.082031 C 112.882812 302.292969 112.496094 302.550781 112.160156 302.898438 C 111.734375 303.011719 111.332031 303.238281 110.960938 303.523438 C 103.238281 309.691406 103.027344 319.699219 107.152344 327.050781 C 107.601562 327.859375 108.113281 328.632812 108.640625 329.359375 Z M 71.144531 419.074219 C 65.894531 422.074219 60.988281 419.105469 58.519531 414.742188 C 56.046875 410.292969 55.84375 404.222656 60.488281 400.5 C 60.597656 400.398438 60.703125 400.296875 60.8125 400.199219 C 60.921875 400.175781 61.046875 400.109375 61.1875 400.070312 C 67.0625 397.535156 72.425781 400.738281 74.886719 405.3125 C 77.347656 409.804688 76.925781 415.78125 71.144531 419.074219 Z M 197.363281 275.625 C 197.472656 275.601562 197.597656 275.535156 197.738281 275.496094 C 203.617188 272.960938 208.980469 276.164062 211.441406 280.738281 C 213.867188 285.25 213.429688 291.191406 207.699219 294.5 C 202.449219 297.503906 197.539062 294.535156 195.070312 290.167969 C 192.597656 285.722656 192.398438 279.648438 197.042969 275.925781 C 197.148438 275.824219 197.273438 275.753906 197.363281 275.625 Z M 244.050781 213.925781 C 244.15625 213.828125 244.261719 213.726562 244.371094 213.625 C 244.480469 213.605469 244.605469 213.535156 244.746094 213.5 C 250.621094 210.964844 255.988281 214.167969 258.449219 218.742188 C 260.875 223.25 260.4375 229.195312 254.707031 232.503906 C 249.453125 235.503906 244.546875 232.535156 242.078125 228.167969 C 239.574219 223.742188 239.371094 217.667969 244.050781 213.925781 Z M 166.203125 215.78125 C 166.308594 215.683594 166.417969 215.582031 166.523438 215.480469 C 166.632812 215.460938 166.757812 215.390625 166.898438 215.355469 C 172.777344 212.820312 178.140625 216.023438 180.601562 220.597656 C 183.027344 225.109375 182.589844 231.050781 176.859375 234.359375 C 171.609375 237.359375 166.667969 234.410156 164.230469 230.023438 C 161.730469 225.597656 161.527344 219.523438 166.203125 215.78125 Z M 100.402344 198.605469 C 100.507812 198.507812 100.617188 198.40625 100.722656 198.304688 C 100.832031 198.285156 100.957031 198.214844 101.101562 198.179688 C 106.976562 195.644531 112.339844 198.847656 114.800781 203.421875 C 117.226562 207.933594 116.789062 213.875 111.058594 217.183594 C 105.808594 220.183594 100.871094 217.234375 98.433594 212.847656 C 95.910156 208.390625 95.707031 202.316406 100.402344 198.605469 Z M 115.496094 309.265625 C 115.605469 309.164062 115.710938 309.0625 115.820312 308.964844 C 115.960938 308.925781 116.054688 308.875 116.195312 308.835938 C 122.070312 306.300781 127.433594 309.503906 129.894531 314.078125 C 132.324219 318.589844 131.882812 324.53125 126.152344 327.839844 C 120.902344 330.839844 115.964844 327.890625 113.527344 323.507812 C 111.007812 319.046875 110.835938 312.957031 115.496094 309.265625 Z M 115.496094 309.265625 " fill-opacity="1" fill-rule="evenodd"/></g></g></g><g clip-path="url(#6cb7596094)"><g clip-path="url(#7762e1a3f4)"><g clip-path="url(#90764e8070)"><path fill="#002885" d="M 202.175781 363.527344 C 196.894531 382.054688 192.15625 400.679688 186.929688 419.15625 C 184.808594 426.617188 182.605469 434.039062 180.265625 441.429688 C 174.660156 439.007812 167.941406 439.082031 161.742188 443.386719 C 161.300781 443.710938 160.9375 444.070312 160.652344 444.519531 C 160.21875 444.734375 159.832031 445.0625 159.496094 445.453125 C 152.503906 453.769531 154.4375 464.609375 160.480469 471.640625 C 166.875 479.085938 177.53125 482.1875 186.421875 474.410156 C 195.847656 466.175781 194.519531 455.027344 188.398438 447.601562 C 187.035156 445.9375 185.402344 444.503906 183.609375 443.304688 C 186.027344 435.648438 188.339844 427.925781 190.507812 420.21875 C 195.585938 402.175781 200.230469 384.042969 205.363281 366.003906 C 211.5 369.765625 219.214844 370.078125 225.957031 364.183594 C 235.382812 355.949219 234.054688 344.800781 227.9375 337.375 C 223.359375 331.820312 216.027344 328.457031 208.519531 330.019531 C 202.492188 310.394531 196.738281 290.734375 190.648438 271.160156 C 188.394531 263.988281 186.109375 256.839844 183.765625 249.691406 C 184.441406 249.214844 185.117188 248.742188 185.75 248.15625 C 191.242188 243.324219 193.066406 237.503906 192.421875 232.042969 C 195.871094 231.929688 199.367188 231.933594 202.847656 232.101562 C 211.613281 232.496094 220.433594 233.5625 229.09375 234.203125 C 228.699219 239.828125 230.828125 245.464844 234.484375 249.699219 C 240.015625 256.132812 248.722656 259.300781 256.726562 255.003906 C 260.109375 259.878906 263.550781 264.703125 267.054688 269.480469 C 270.65625 274.375 274.320312 279.214844 278.042969 284.007812 C 273.132812 291.941406 275.261719 301.433594 280.710938 307.832031 C 287.109375 315.28125 297.761719 318.382812 306.652344 310.605469 C 316.082031 302.367188 314.753906 291.21875 308.632812 283.792969 C 302.535156 276.453125 291.664062 272.917969 281.976562 279.578125 C 281.535156 279.90625 281.171875 280.265625 280.886719 280.714844 C 280.742188 280.785156 280.617188 280.941406 280.5 281.042969 C 276.980469 276.488281 273.488281 271.910156 270.089844 267.253906 C 266.613281 262.507812 263.195312 257.710938 259.832031 252.921875 C 260.042969 252.742188 260.246094 252.621094 260.425781 252.46875 C 267.34375 246.417969 268.453125 238.796875 266.152344 232.230469 C 272.554688 230.882812 278.894531 229.335938 285.1875 227.675781 C 294.457031 225.230469 303.636719 222.496094 312.820312 219.707031 C 313.433594 223.808594 315.339844 227.734375 318.027344 230.890625 C 324.425781 238.335938 335.078125 241.4375 343.96875 233.660156 C 353.394531 225.425781 352.070312 214.277344 345.949219 206.851562 C 339.851562 199.507812 328.980469 195.976562 319.292969 202.636719 C 318.847656 202.960938 318.488281 203.320312 318.203125 203.769531 C 317.769531 203.984375 317.382812 204.3125 317.046875 204.703125 C 314.164062 208.132812 312.796875 212.019531 312.628906 215.863281 C 303.164062 218.683594 293.753906 221.511719 284.230469 224.023438 C 277.738281 225.75 271.175781 227.332031 264.546875 228.714844 C 263.9375 227.640625 263.191406 226.582031 262.410156 225.605469 C 256.308594 218.261719 245.4375 214.730469 235.75 221.390625 C 235.308594 221.714844 234.945312 222.074219 234.660156 222.523438 C 234.226562 222.738281 233.839844 223.066406 233.503906 223.457031 C 231.664062 225.640625 230.449219 228.011719 229.785156 230.429688 C 220.957031 229.777344 211.996094 228.726562 203.066406 228.316406 C 199.226562 228.148438 195.398438 228.121094 191.640625 228.289062 C 190.816406 225.753906 189.476562 223.402344 187.757812 221.320312 C 181.660156 213.980469 170.789062 210.445312 161.101562 217.105469 C 160.65625 217.433594 160.296875 217.792969 160.011719 218.238281 C 159.578125 218.453125 159.191406 218.785156 158.855469 219.175781 C 151.863281 227.492188 153.796875 238.328125 159.835938 245.359375 C 164.988281 251.347656 172.890625 254.535156 180.460938 251.476562 C 182.738281 258.375 184.957031 265.320312 187.125 272.210938 C 193.214844 291.785156 198.964844 311.445312 204.996094 331.070312 C 203.761719 331.609375 202.542969 332.289062 201.339844 333.109375 C 200.894531 333.433594 200.535156 333.792969 200.25 334.242188 C 199.816406 334.457031 199.429688 334.785156 199.09375 335.175781 C 192.101562 343.496094 194.035156 354.332031 200.074219 361.363281 C 200.734375 362.136719 201.453125 362.859375 202.175781 363.527344 Z M 181.160156 468.355469 C 176.152344 472.726562 170.21875 470.585938 166.613281 466.414062 C 162.984375 462.15625 161.453125 455.652344 165.65625 450.636719 C 165.75 450.503906 165.84375 450.371094 165.9375 450.242188 C 166.050781 450.195312 166.171875 450.09375 166.316406 450.023438 C 172.101562 446.019531 178.578125 448.3125 182.21875 452.710938 C 185.84375 457.023438 186.679688 463.554688 181.160156 468.355469 Z M 286.199219 286.410156 C 286.316406 286.363281 286.433594 286.261719 286.578125 286.191406 C 292.363281 282.1875 298.839844 284.480469 302.484375 288.878906 C 306.074219 293.21875 306.886719 299.71875 301.425781 304.523438 C 296.414062 308.894531 290.480469 306.757812 286.875 302.582031 C 283.25 298.324219 281.71875 291.820312 285.917969 286.804688 C 286.011719 286.671875 286.132812 286.570312 286.199219 286.410156 Z M 323.183594 209.800781 C 323.277344 209.667969 323.371094 209.539062 323.464844 209.40625 C 323.582031 209.359375 323.699219 209.257812 323.84375 209.1875 C 329.628906 205.183594 336.105469 207.476562 339.75 211.875 C 343.339844 216.214844 344.152344 222.714844 338.691406 227.519531 C 333.679688 231.890625 327.746094 229.753906 324.140625 225.578125 C 320.484375 221.347656 318.953125 214.84375 323.183594 209.800781 Z M 239.664062 228.640625 C 239.757812 228.507812 239.851562 228.375 239.945312 228.246094 C 240.058594 228.199219 240.179688 228.097656 240.324219 228.027344 C 246.109375 224.023438 252.585938 226.316406 256.226562 230.714844 C 259.820312 235.050781 260.632812 241.554688 255.171875 246.359375 C 250.160156 250.730469 244.195312 248.617188 240.621094 244.417969 C 236.964844 240.1875 235.433594 233.683594 239.664062 228.640625 Z M 165.015625 224.355469 C 165.109375 224.226562 165.203125 224.09375 165.296875 223.960938 C 165.410156 223.914062 165.53125 223.816406 165.675781 223.742188 C 171.460938 219.738281 177.933594 222.03125 181.578125 226.429688 C 185.171875 230.769531 185.980469 237.269531 180.519531 242.078125 C 175.507812 246.449219 169.546875 244.335938 165.972656 240.136719 C 162.289062 235.875 160.757812 229.371094 165.015625 224.355469 Z M 205.222656 340.382812 C 205.316406 340.25 205.410156 340.121094 205.503906 339.988281 C 205.648438 339.917969 205.738281 339.839844 205.882812 339.769531 C 211.667969 335.765625 218.144531 338.058594 221.785156 342.457031 C 225.378906 346.796875 226.191406 353.296875 220.726562 358.105469 C 215.71875 362.476562 209.753906 360.359375 206.179688 356.164062 C 202.496094 351.902344 200.996094 345.371094 205.222656 340.382812 Z M 205.222656 340.382812 " fill-opacity="1" fill-rule="evenodd"/></g></g></g><path fill="#ad1d1d" d="M 285.78125 362.019531 L 304.097656 357.253906 L 304.257812 352.882812 L 301.496094 352.78125 L 301.410156 355.097656 L 285.179688 359.320312 L 264.734375 363.15625 L 253.15625 372.160156 L 254.855469 374.34375 L 265.902344 365.75 Z M 285.78125 362.019531 " fill-opacity="1" fill-rule="nonzero"/><path fill="#ad1d1d" d="M 391.351562 359.34375 L 375.027344 355.097656 L 374.941406 352.78125 L 372.175781 352.882812 L 372.335938 357.253906 L 390.746094 362.039062 L 410.53125 365.75 L 421.582031 374.34375 L 423.28125 372.160156 L 411.699219 363.15625 Z M 391.351562 359.34375 " fill-opacity="1" fill-rule="nonzero"/><g clip-path="url(#da4cec681e)"><path fill="#ad1d1d" d="M 402.972656 431.988281 L 379.851562 409.175781 L 362.230469 378.265625 L 363.496094 355.496094 L 344.148438 332.390625 C 355.671875 339.101562 374.289062 349.757812 381.726562 352.980469 C 392.851562 357.808594 412.304688 347.242188 418.886719 343.488281 C 425.472656 339.734375 410.570312 334.097656 410.570312 334.097656 L 349.246094 328.140625 L 371.132812 324.582031 L 371.257812 328.046875 L 374.023438 327.945312 L 373.78125 321.347656 L 345.914062 325.878906 L 372.574219 307.121094 L 366.144531 291.046875 L 382.238281 265.539062 L 405.503906 252.511719 L 404.15625 250.097656 L 380.273438 263.46875 L 363.054688 290.765625 L 369.195312 306.117188 L 346.253906 322.257812 C 346.941406 320.316406 347.332031 318.09375 347.332031 315.734375 C 347.332031 311.105469 345.828125 307.019531 343.527344 304.507812 C 348.902344 286.140625 361.261719 273.257812 361.398438 273.117188 L 359.417969 271.1875 C 358.847656 271.773438 346.847656 284.269531 341.1875 302.671875 C 340.679688 302.402344 340.148438 302.207031 339.601562 302.082031 L 339.601562 259.582031 L 336.835938 259.582031 L 336.835938 302.082031 C 336.289062 302.210938 335.757812 302.40625 335.25 302.671875 C 329.589844 284.273438 317.589844 271.777344 317.019531 271.1875 L 315.039062 273.117188 C 315.175781 273.257812 327.535156 286.121094 332.910156 304.511719 C 330.609375 307.019531 329.105469 311.109375 329.105469 315.734375 C 329.105469 318.097656 329.496094 320.316406 330.183594 322.261719 L 307.238281 306.121094 L 313.382812 290.765625 L 296.160156 263.46875 L 272.28125 250.097656 L 270.929688 252.511719 L 294.195312 265.539062 L 310.289062 291.046875 L 303.859375 307.121094 L 330.519531 325.878906 L 302.652344 321.347656 L 302.410156 327.945312 L 305.175781 328.046875 L 305.300781 324.582031 L 327.1875 328.140625 L 265.867188 334.097656 C 265.867188 334.097656 250.960938 339.734375 257.546875 343.488281 C 264.128906 347.242188 283.582031 357.808594 294.707031 352.980469 C 302.148438 349.757812 320.761719 339.097656 332.285156 332.390625 L 312.9375 355.496094 L 314.203125 378.265625 L 296.582031 409.175781 L 273.460938 431.988281 L 275.40625 433.957031 L 298.664062 411.011719 L 298.800781 410.878906 L 316.808594 379.28125 L 317.011719 378.929688 L 315.761719 356.4375 L 332.949219 335.910156 C 331.671875 342.621094 330.882812 351.757812 330.882812 361.835938 C 330.882812 382.433594 334.167969 399.132812 338.21875 399.132812 C 342.269531 399.132812 345.550781 382.433594 345.550781 361.835938 C 345.550781 351.757812 344.765625 342.621094 343.488281 335.910156 L 360.675781 356.4375 L 359.425781 378.929688 L 377.636719 410.878906 L 401.03125 433.957031 Z M 402.972656 431.988281 " fill-opacity="1" fill-rule="nonzero"/></g><g fill="#002885" fill-opacity="1"><g transform="translate(465.411835, 351.154479)"><g><path d="M 35.1875 0 C 31.039062 0 28.070312 -2.285156 26.28125 -6.859375 L 0.421875 -75.109375 L 15.875 -75.109375 L 35.625 -18.78125 L 35.84375 -18.78125 L 55.6875 -75.109375 L 71.03125 -75.109375 L 42.171875 0 Z M 35.1875 0 "/></g></g></g><g fill="#002885" fill-opacity="1"><g transform="translate(536.879789, 351.154479)"><g><path d="M 9.65625 -75.109375 L 17.59375 -75.109375 L 17.59375 0 L 9.65625 0 Z M 9.65625 -75.109375 "/></g></g></g><g fill="#002885" fill-opacity="1"><g transform="translate(564.132539, 351.154479)"><g><path d="M 31.015625 0.859375 C 26.078125 0.859375 21.765625 -0.265625 18.078125 -2.515625 C 14.390625 -4.773438 11.523438 -7.976562 9.484375 -12.125 C 7.453125 -16.269531 6.4375 -21.023438 6.4375 -26.390625 L 6.4375 -48.71875 C 6.4375 -54.082031 7.488281 -58.816406 9.59375 -62.921875 C 11.707031 -67.035156 14.660156 -70.238281 18.453125 -72.53125 C 22.242188 -74.820312 26.609375 -75.96875 31.546875 -75.96875 L 42.921875 -75.96875 C 47.640625 -75.96875 51.804688 -74.960938 55.421875 -72.953125 C 59.035156 -70.953125 61.84375 -68.128906 63.84375 -64.484375 C 65.84375 -60.835938 66.84375 -56.65625 66.84375 -51.9375 L 59.125 -51.9375 C 59.125 -57.007812 57.640625 -61.101562 54.671875 -64.21875 C 51.703125 -67.332031 47.785156 -68.890625 42.921875 -68.890625 L 31.546875 -68.890625 C 26.390625 -68.890625 22.238281 -67.046875 19.09375 -63.359375 C 15.945312 -59.671875 14.375 -54.789062 14.375 -48.71875 L 14.375 -26.390625 C 14.375 -20.316406 15.894531 -15.4375 18.9375 -11.75 C 21.976562 -8.0625 26.003906 -6.21875 31.015625 -6.21875 L 42.59375 -6.21875 C 47.675781 -6.21875 51.789062 -7.96875 54.9375 -11.46875 C 58.082031 -14.976562 59.65625 -19.597656 59.65625 -25.328125 L 59.65625 -31.765625 L 38.84375 -31.765625 L 38.84375 -38.734375 L 67.375 -38.734375 L 67.375 -25.328125 C 67.375 -20.171875 66.351562 -15.609375 64.3125 -11.640625 C 62.28125 -7.671875 59.382812 -4.59375 55.625 -2.40625 C 51.875 -0.226562 47.53125 0.859375 42.59375 0.859375 Z M 31.015625 0.859375 "/></g></g></g><g fill="#002885" fill-opacity="1"><g transform="translate(637.521871, 351.154479)"><g><path d="M 9.65625 -75.109375 L 17.59375 -75.109375 L 17.59375 0 L 9.65625 0 Z M 9.65625 -75.109375 "/></g></g></g><g fill="#002885" fill-opacity="1"><g transform="translate(664.774621, 351.154479)"><g><path d="M 51.1875 -20.8125 L 18.234375 -20.8125 L 10.515625 0 L 2.359375 0 L 31.21875 -75.109375 L 34.875 -75.109375 C 37.226562 -75.109375 38.941406 -73.675781 40.015625 -70.8125 L 56.546875 -27.46875 L 56.65625 -27.46875 L 56.65625 -27.25 L 67.0625 0 L 58.90625 0 Z M 20.703125 -27.46875 L 48.71875 -27.46875 L 34.765625 -64.8125 L 34.65625 -64.8125 Z M 20.703125 -27.46875 "/></g></g></g><g fill="#002885" fill-opacity="1"><g transform="translate(734.200708, 351.154479)"><g><path d="M 17.0625 0 C 13.988281 0 11.484375 -0.925781 9.546875 -2.78125 C 7.617188 -4.644531 6.65625 -7.078125 6.65625 -10.078125 L 6.65625 -75.109375 L 63.953125 -75.109375 L 63.953125 -62.234375 L 21.453125 -62.234375 L 21.453125 -44.84375 L 60.734375 -44.84375 L 60.734375 -31.96875 L 21.453125 -31.96875 L 21.453125 -12.875 L 63.953125 -12.875 L 63.953125 0 Z M 17.0625 0 "/></g></g></g><g fill="#002885" fill-opacity="1"><g transform="translate(801.610092, 351.154479)"><g><path d="M 15.5625 0 C 13.34375 0 11.625 -0.601562 10.40625 -1.8125 C 9.1875 -3.03125 8.578125 -4.75 8.578125 -6.96875 L 8.578125 -75.109375 L 39.703125 -75.109375 C 44.992188 -75.109375 49.640625 -74.085938 53.640625 -72.046875 C 57.648438 -70.003906 60.765625 -67.101562 62.984375 -63.34375 C 65.203125 -59.59375 66.3125 -55.285156 66.3125 -50.421875 L 66.3125 -26.828125 C 66.3125 -18.023438 64.09375 -11.351562 59.65625 -6.8125 C 55.21875 -2.269531 48.707031 0 40.125 0 Z M 39.921875 -7.078125 C 45.992188 -7.078125 50.585938 -8.738281 53.703125 -12.0625 C 56.816406 -15.394531 58.375 -20.316406 58.375 -26.828125 L 58.375 -50.421875 C 58.375 -55.648438 56.640625 -59.890625 53.171875 -63.140625 C 49.703125 -66.398438 45.140625 -68.03125 39.484375 -68.03125 L 16.53125 -68.03125 L 16.53125 -7.078125 Z M 39.921875 -7.078125 "/></g></g></g><g fill="#002885" fill-opacity="1"><g transform="translate(873.92648, 351.154479)"><g><path d="M 15.5625 0 C 13.34375 0 11.625 -0.625 10.40625 -1.875 C 9.1875 -3.125 8.578125 -4.859375 8.578125 -7.078125 L 8.578125 -75.109375 L 59.015625 -75.109375 L 59.015625 -68.234375 L 16.53125 -68.234375 L 16.53125 -41.84375 L 55.796875 -41.84375 L 55.796875 -34.984375 L 16.53125 -34.984375 L 16.53125 -6.859375 L 59.015625 -6.859375 L 59.015625 0 Z M 15.5625 0 "/></g></g></g><g fill="#002885" fill-opacity="1"><g transform="translate(938.303085, 351.154479)"><g><path d="M 27.796875 0.859375 C 23.503906 0.859375 19.710938 -0.0507812 16.421875 -1.875 C 13.128906 -3.695312 10.570312 -6.269531 8.75 -9.59375 C 6.925781 -12.925781 6.015625 -16.773438 6.015625 -21.140625 L 13.734375 -21.140625 C 13.734375 -16.703125 15.035156 -13.101562 17.640625 -10.34375 C 20.253906 -7.59375 23.707031 -6.21875 28 -6.21875 L 39.921875 -6.21875 C 44.140625 -6.21875 47.535156 -7.164062 50.109375 -9.0625 C 52.679688 -10.957031 53.96875 -13.445312 53.96875 -16.53125 L 53.96875 -23.390625 C 53.96875 -25.816406 53.019531 -27.890625 51.125 -29.609375 C 49.226562 -31.328125 46.632812 -32.4375 43.34375 -32.9375 L 24.03125 -36.15625 C 18.59375 -37.082031 14.367188 -39.015625 11.359375 -41.953125 C 8.359375 -44.890625 6.859375 -48.570312 6.859375 -53 L 6.859375 -58.796875 C 6.859375 -64.015625 8.804688 -68.179688 12.703125 -71.296875 C 16.609375 -74.410156 21.78125 -75.96875 28.21875 -75.96875 L 40.34375 -75.96875 C 46.425781 -75.96875 51.328125 -74.125 55.046875 -70.4375 C 58.765625 -66.757812 60.625 -61.914062 60.625 -55.90625 L 52.890625 -55.90625 C 52.890625 -59.832031 51.742188 -62.976562 49.453125 -65.34375 C 47.171875 -67.707031 44.132812 -68.890625 40.34375 -68.890625 L 28.21875 -68.890625 C 24.144531 -68.890625 20.890625 -67.972656 18.453125 -66.140625 C 16.023438 -64.316406 14.8125 -61.867188 14.8125 -58.796875 L 14.8125 -53 C 14.8125 -50.5 15.722656 -48.390625 17.546875 -46.671875 C 19.367188 -44.953125 21.890625 -43.804688 25.109375 -43.234375 L 44.3125 -39.921875 C 49.894531 -38.910156 54.222656 -36.992188 57.296875 -34.171875 C 60.367188 -31.347656 61.90625 -27.753906 61.90625 -23.390625 L 61.90625 -16.53125 C 61.90625 -11.300781 59.898438 -7.09375 55.890625 -3.90625 C 51.890625 -0.726562 46.632812 0.859375 40.125 0.859375 Z M 27.796875 0.859375 "/></g></g></g><g fill="#717276" fill-opacity="1"><g transform="translate(488.618809, 384.422547)"><g><path d="M 18.78125 -5.9375 C 18.78125 -3.914062 18.03125 -2.367188 16.53125 -1.296875 C 15.039062 -0.234375 12.851562 0.296875 9.96875 0.296875 C 7.320312 0.296875 5.25 -0.171875 3.75 -1.109375 C 2.25 -2.046875 1.285156 -3.460938 0.859375 -5.359375 L 5.03125 -6.046875 C 5.3125 -4.953125 5.859375 -4.160156 6.671875 -3.671875 C 7.492188 -3.179688 8.628906 -2.9375 10.078125 -2.9375 C 13.085938 -2.9375 14.59375 -3.851562 14.59375 -5.6875 C 14.59375 -6.269531 14.421875 -6.75 14.078125 -7.125 C 13.734375 -7.507812 13.242188 -7.828125 12.609375 -8.078125 C 11.984375 -8.328125 10.78125 -8.632812 9 -9 C 7.457031 -9.363281 6.382812 -9.65625 5.78125 -9.875 C 5.175781 -10.09375 4.628906 -10.347656 4.140625 -10.640625 C 3.660156 -10.941406 3.25 -11.300781 2.90625 -11.71875 C 2.5625 -12.132812 2.296875 -12.625 2.109375 -13.1875 C 1.921875 -13.757812 1.828125 -14.410156 1.828125 -15.140625 C 1.828125 -16.992188 2.523438 -18.414062 3.921875 -19.40625 C 5.316406 -20.394531 7.347656 -20.890625 10.015625 -20.890625 C 12.566406 -20.890625 14.484375 -20.488281 15.765625 -19.6875 C 17.046875 -18.894531 17.875 -17.578125 18.25 -15.734375 L 14.0625 -15.171875 C 13.851562 -16.054688 13.421875 -16.722656 12.765625 -17.171875 C 12.109375 -17.617188 11.164062 -17.84375 9.9375 -17.84375 C 7.320312 -17.84375 6.015625 -17.023438 6.015625 -15.390625 C 6.015625 -14.847656 6.15625 -14.40625 6.4375 -14.0625 C 6.71875 -13.726562 7.128906 -13.441406 7.671875 -13.203125 C 8.210938 -12.960938 9.316406 -12.660156 10.984375 -12.296875 C 12.960938 -11.878906 14.378906 -11.492188 15.234375 -11.140625 C 16.085938 -10.785156 16.757812 -10.367188 17.25 -9.890625 C 17.75 -9.421875 18.128906 -8.859375 18.390625 -8.203125 C 18.648438 -7.546875 18.78125 -6.789062 18.78125 -5.9375 Z M 18.78125 -5.9375 "/></g></g></g><g fill="#717276" fill-opacity="1"><g transform="translate(515.224609, 384.422547)"><g><path d="M 22.015625 -10.390625 C 22.015625 -8.242188 21.585938 -6.359375 20.734375 -4.734375 C 19.890625 -3.109375 18.675781 -1.863281 17.09375 -1 C 15.519531 -0.132812 13.6875 0.296875 11.59375 0.296875 C 8.351562 0.296875 5.816406 -0.65625 3.984375 -2.5625 C 2.148438 -4.46875 1.234375 -7.078125 1.234375 -10.390625 C 1.234375 -13.691406 2.144531 -16.265625 3.96875 -18.109375 C 5.800781 -19.960938 8.347656 -20.890625 11.609375 -20.890625 C 14.878906 -20.890625 17.429688 -19.953125 19.265625 -18.078125 C 21.097656 -16.210938 22.015625 -13.648438 22.015625 -10.390625 Z M 17.625 -10.390625 C 17.625 -12.609375 17.097656 -14.347656 16.046875 -15.609375 C 14.992188 -16.867188 13.515625 -17.5 11.609375 -17.5 C 9.679688 -17.5 8.191406 -16.875 7.140625 -15.625 C 6.085938 -14.375 5.5625 -12.628906 5.5625 -10.390625 C 5.5625 -8.128906 6.097656 -6.347656 7.171875 -5.046875 C 8.253906 -3.742188 9.726562 -3.09375 11.59375 -3.09375 C 13.519531 -3.09375 15.003906 -3.722656 16.046875 -4.984375 C 17.097656 -6.253906 17.625 -8.054688 17.625 -10.390625 Z M 17.625 -10.390625 "/></g></g></g><g fill="#717276" fill-opacity="1"><g transform="translate(545.142961, 384.422547)"><g><path d="M 2 0 L 2 -20.578125 L 6.3125 -20.578125 L 6.3125 -3.328125 L 17.359375 -3.328125 L 17.359375 0 Z M 2 0 "/></g></g></g><g fill="#717276" fill-opacity="1"><g transform="translate(570.070592, 384.422547)"><g><path d="M 10.5625 0.296875 C 7.726562 0.296875 5.554688 -0.394531 4.046875 -1.78125 C 2.546875 -3.164062 1.796875 -5.144531 1.796875 -7.71875 L 1.796875 -20.578125 L 6.109375 -20.578125 L 6.109375 -8.046875 C 6.109375 -6.421875 6.492188 -5.1875 7.265625 -4.34375 C 8.046875 -3.5 9.1875 -3.078125 10.6875 -3.078125 C 12.21875 -3.078125 13.394531 -3.519531 14.21875 -4.40625 C 15.050781 -5.289062 15.46875 -6.554688 15.46875 -8.203125 L 15.46875 -20.578125 L 19.78125 -20.578125 L 19.78125 -7.9375 C 19.78125 -5.320312 18.972656 -3.296875 17.359375 -1.859375 C 15.753906 -0.421875 13.488281 0.296875 10.5625 0.296875 Z M 10.5625 0.296875 "/></g></g></g><g fill="#717276" fill-opacity="1"><g transform="translate(598.325377, 384.422547)"><g><path d="M 11.609375 -3.09375 C 14.210938 -3.09375 16.019531 -4.398438 17.03125 -7.015625 L 20.796875 -5.59375 C 19.984375 -3.601562 18.796875 -2.125 17.234375 -1.15625 C 15.671875 -0.1875 13.796875 0.296875 11.609375 0.296875 C 8.296875 0.296875 5.738281 -0.640625 3.9375 -2.515625 C 2.132812 -4.390625 1.234375 -7.015625 1.234375 -10.390625 C 1.234375 -13.765625 2.101562 -16.359375 3.84375 -18.171875 C 5.582031 -19.984375 8.109375 -20.890625 11.421875 -20.890625 C 13.835938 -20.890625 15.804688 -20.40625 17.328125 -19.4375 C 18.847656 -18.46875 19.914062 -17.046875 20.53125 -15.171875 L 16.734375 -14.125 C 16.410156 -15.15625 15.773438 -15.972656 14.828125 -16.578125 C 13.890625 -17.191406 12.785156 -17.5 11.515625 -17.5 C 9.566406 -17.5 8.085938 -16.894531 7.078125 -15.6875 C 6.066406 -14.476562 5.5625 -12.710938 5.5625 -10.390625 C 5.5625 -8.023438 6.078125 -6.21875 7.109375 -4.96875 C 8.148438 -3.71875 9.648438 -3.09375 11.609375 -3.09375 Z M 14.453125 3.4375 C 14.453125 4.351562 14.070312 5.039062 13.3125 5.5 C 12.550781 5.96875 11.453125 6.203125 10.015625 6.203125 C 9.578125 6.203125 9.085938 6.175781 8.546875 6.125 L 8.546875 4.390625 C 8.878906 4.460938 9.285156 4.5 9.765625 4.5 C 11.097656 4.5 11.765625 4.160156 11.765625 3.484375 C 11.765625 3.148438 11.628906 2.898438 11.359375 2.734375 C 11.085938 2.566406 10.628906 2.484375 9.984375 2.484375 C 9.617188 2.484375 9.367188 2.492188 9.234375 2.515625 L 10.140625 0 L 12.21875 0 L 11.75 1.203125 C 12.65625 1.242188 13.332031 1.460938 13.78125 1.859375 C 14.226562 2.265625 14.453125 2.789062 14.453125 3.4375 Z M 14.453125 3.4375 "/></g></g></g><g fill="#717276" fill-opacity="1"><g transform="translate(626.580161, 384.422547)"><g><path d="M 22.015625 -10.390625 C 22.015625 -8.242188 21.585938 -6.359375 20.734375 -4.734375 C 19.890625 -3.109375 18.675781 -1.863281 17.09375 -1 C 15.519531 -0.132812 13.6875 0.296875 11.59375 0.296875 C 8.351562 0.296875 5.816406 -0.65625 3.984375 -2.5625 C 2.148438 -4.46875 1.234375 -7.078125 1.234375 -10.390625 C 1.234375 -13.691406 2.144531 -16.265625 3.96875 -18.109375 C 5.800781 -19.960938 8.347656 -20.890625 11.609375 -20.890625 C 14.878906 -20.890625 17.429688 -19.953125 19.265625 -18.078125 C 21.097656 -16.210938 22.015625 -13.648438 22.015625 -10.390625 Z M 17.625 -10.390625 C 17.625 -12.609375 17.097656 -14.347656 16.046875 -15.609375 C 14.992188 -16.867188 13.515625 -17.5 11.609375 -17.5 C 9.679688 -17.5 8.191406 -16.875 7.140625 -15.625 C 6.085938 -14.375 5.5625 -12.628906 5.5625 -10.390625 C 5.5625 -8.128906 6.097656 -6.347656 7.171875 -5.046875 C 8.253906 -3.742188 9.726562 -3.09375 11.59375 -3.09375 C 13.519531 -3.09375 15.003906 -3.722656 16.046875 -4.984375 C 17.097656 -6.253906 17.625 -8.054688 17.625 -10.390625 Z M 13.9375 -22.359375 C 13.507812 -22.359375 13.078125 -22.445312 12.640625 -22.625 C 12.210938 -22.8125 11.789062 -23.019531 11.375 -23.25 C 10.96875 -23.476562 10.582031 -23.6875 10.21875 -23.875 C 9.851562 -24.0625 9.523438 -24.15625 9.234375 -24.15625 C 8.835938 -24.15625 8.53125 -24.039062 8.3125 -23.8125 C 8.101562 -23.59375 7.929688 -23.109375 7.796875 -22.359375 L 5.796875 -22.359375 C 5.878906 -23.453125 6.035156 -24.273438 6.265625 -24.828125 C 6.503906 -25.378906 6.847656 -25.816406 7.296875 -26.140625 C 7.753906 -26.472656 8.351562 -26.640625 9.09375 -26.640625 C 9.53125 -26.640625 9.96875 -26.546875 10.40625 -26.359375 C 10.84375 -26.171875 11.265625 -25.960938 11.671875 -25.734375 C 12.078125 -25.503906 12.457031 -25.296875 12.8125 -25.109375 C 13.175781 -24.929688 13.5 -24.84375 13.78125 -24.84375 C 14.164062 -24.84375 14.46875 -24.957031 14.6875 -25.1875 C 14.90625 -25.425781 15.082031 -25.910156 15.21875 -26.640625 L 17.203125 -26.640625 C 17.128906 -25.109375 16.816406 -24.007812 16.265625 -23.34375 C 15.710938 -22.6875 14.9375 -22.359375 13.9375 -22.359375 Z M 13.9375 -22.359375 "/></g></g></g><g fill="#717276" fill-opacity="1"><g transform="translate(656.498518, 384.422547)"><g><path d="M 2 0 L 2 -20.578125 L 18.1875 -20.578125 L 18.1875 -17.25 L 6.3125 -17.25 L 6.3125 -12.078125 L 17.296875 -12.078125 L 17.296875 -8.75 L 6.3125 -8.75 L 6.3125 -3.328125 L 18.78125 -3.328125 L 18.78125 0 Z M 2 0 "/></g></g></g><g fill="#717276" fill-opacity="1"><g transform="translate(683.104323, 384.422547)"><g><path d="M 18.78125 -5.9375 C 18.78125 -3.914062 18.03125 -2.367188 16.53125 -1.296875 C 15.039062 -0.234375 12.851562 0.296875 9.96875 0.296875 C 7.320312 0.296875 5.25 -0.171875 3.75 -1.109375 C 2.25 -2.046875 1.285156 -3.460938 0.859375 -5.359375 L 5.03125 -6.046875 C 5.3125 -4.953125 5.859375 -4.160156 6.671875 -3.671875 C 7.492188 -3.179688 8.628906 -2.9375 10.078125 -2.9375 C 13.085938 -2.9375 14.59375 -3.851562 14.59375 -5.6875 C 14.59375 -6.269531 14.421875 -6.75 14.078125 -7.125 C 13.734375 -7.507812 13.242188 -7.828125 12.609375 -8.078125 C 11.984375 -8.328125 10.78125 -8.632812 9 -9 C 7.457031 -9.363281 6.382812 -9.65625 5.78125 -9.875 C 5.175781 -10.09375 4.628906 -10.347656 4.140625 -10.640625 C 3.660156 -10.941406 3.25 -11.300781 2.90625 -11.71875 C 2.5625 -12.132812 2.296875 -12.625 2.109375 -13.1875 C 1.921875 -13.757812 1.828125 -14.410156 1.828125 -15.140625 C 1.828125 -16.992188 2.523438 -18.414062 3.921875 -19.40625 C 5.316406 -20.394531 7.347656 -20.890625 10.015625 -20.890625 C 12.566406 -20.890625 14.484375 -20.488281 15.765625 -19.6875 C 17.046875 -18.894531 17.875 -17.578125 18.25 -15.734375 L 14.0625 -15.171875 C 13.851562 -16.054688 13.421875 -16.722656 12.765625 -17.171875 C 12.109375 -17.617188 11.164062 -17.84375 9.9375 -17.84375 C 7.320312 -17.84375 6.015625 -17.023438 6.015625 -15.390625 C 6.015625 -14.847656 6.15625 -14.40625 6.4375 -14.0625 C 6.71875 -13.726562 7.128906 -13.441406 7.671875 -13.203125 C 8.210938 -12.960938 9.316406 -12.660156 10.984375 -12.296875 C 12.960938 -11.878906 14.378906 -11.492188 15.234375 -11.140625 C 16.085938 -10.785156 16.757812 -10.367188 17.25 -9.890625 C 17.75 -9.421875 18.128906 -8.859375 18.390625 -8.203125 C 18.648438 -7.546875 18.78125 -6.789062 18.78125 -5.9375 Z M 18.78125 -5.9375 "/></g></g></g><g fill="#717276" fill-opacity="1"><g transform="translate(709.710127, 384.422547)"><g/></g></g><g fill="#717276" fill-opacity="1"><g transform="translate(724.68552, 384.422547)"><g><path d="M 2 0 L 2 -20.578125 L 6.3125 -20.578125 L 6.3125 0 Z M 2 0 "/></g></g></g><g fill="#717276" fill-opacity="1"><g transform="translate(739.660912, 384.422547)"><g><path d="M 14.53125 0 L 5.5625 -15.859375 C 5.738281 -14.316406 5.828125 -13.078125 5.828125 -12.140625 L 5.828125 0 L 2 0 L 2 -20.578125 L 6.921875 -20.578125 L 16.03125 -4.609375 C 15.851562 -6.078125 15.765625 -7.414062 15.765625 -8.625 L 15.765625 -20.578125 L 19.59375 -20.578125 L 19.59375 0 Z M 14.53125 0 "/></g></g></g><g fill="#717276" fill-opacity="1"><g transform="translate(767.915697, 384.422547)"><g><path d="M 11.296875 -17.25 L 11.296875 0 L 6.984375 0 L 6.984375 -17.25 L 0.34375 -17.25 L 0.34375 -20.578125 L 17.953125 -20.578125 L 17.953125 -17.25 Z M 11.296875 -17.25 "/></g></g></g><g fill="#717276" fill-opacity="1"><g transform="translate(792.843319, 384.422547)"><g><path d="M 2 0 L 2 -20.578125 L 18.1875 -20.578125 L 18.1875 -17.25 L 6.3125 -17.25 L 6.3125 -12.078125 L 17.296875 -12.078125 L 17.296875 -8.75 L 6.3125 -8.75 L 6.3125 -3.328125 L 18.78125 -3.328125 L 18.78125 0 Z M 2 0 "/></g></g></g><g fill="#717276" fill-opacity="1"><g transform="translate(819.449124, 384.422547)"><g><path d="M 11.78125 -3.078125 C 12.894531 -3.078125 13.976562 -3.238281 15.03125 -3.5625 C 16.082031 -3.894531 16.894531 -4.316406 17.46875 -4.828125 L 17.46875 -7.671875 L 12.453125 -7.671875 L 12.453125 -10.859375 L 21.421875 -10.859375 L 21.421875 -3.28125 C 20.328125 -2.164062 18.90625 -1.289062 17.15625 -0.65625 C 15.40625 -0.0195312 13.570312 0.296875 11.65625 0.296875 C 8.3125 0.296875 5.738281 -0.628906 3.9375 -2.484375 C 2.132812 -4.347656 1.234375 -6.984375 1.234375 -10.390625 C 1.234375 -13.773438 2.132812 -16.367188 3.9375 -18.171875 C 5.75 -19.984375 8.359375 -20.890625 11.765625 -20.890625 C 16.597656 -20.890625 19.671875 -19.101562 20.984375 -15.53125 L 17 -14.328125 C 16.570312 -15.367188 15.898438 -16.15625 14.984375 -16.6875 C 14.066406 -17.226562 12.992188 -17.5 11.765625 -17.5 C 9.734375 -17.5 8.191406 -16.882812 7.140625 -15.65625 C 6.085938 -14.4375 5.5625 -12.679688 5.5625 -10.390625 C 5.5625 -8.054688 6.101562 -6.253906 7.1875 -4.984375 C 8.28125 -3.710938 9.8125 -3.078125 11.78125 -3.078125 Z M 11.78125 -3.078125 "/></g></g></g><g fill="#717276" fill-opacity="1"><g transform="translate(849.36748, 384.422547)"><g><path d="M 16.140625 0 L 11.359375 -7.8125 L 6.3125 -7.8125 L 6.3125 0 L 2 0 L 2 -20.578125 L 12.28125 -20.578125 C 14.738281 -20.578125 16.632812 -20.050781 17.96875 -19 C 19.300781 -17.945312 19.96875 -16.429688 19.96875 -14.453125 C 19.96875 -13.003906 19.554688 -11.753906 18.734375 -10.703125 C 17.921875 -9.660156 16.816406 -8.976562 15.421875 -8.65625 L 21 0 Z M 15.640625 -14.28125 C 15.640625 -16.25 14.367188 -17.234375 11.828125 -17.234375 L 6.3125 -17.234375 L 6.3125 -11.15625 L 11.953125 -11.15625 C 13.160156 -11.15625 14.078125 -11.425781 14.703125 -11.96875 C 15.328125 -12.519531 15.640625 -13.289062 15.640625 -14.28125 Z M 15.640625 -14.28125 "/></g></g></g><g fill="#717276" fill-opacity="1"><g transform="translate(877.622265, 384.422547)"><g><path d="M 16.546875 0 L 14.734375 -5.265625 L 6.875 -5.265625 L 5.0625 0 L 0.75 0 L 8.25 -20.578125 L 13.34375 -20.578125 L 20.8125 0 Z M 10.796875 -17.421875 L 10.703125 -17.09375 C 10.609375 -16.738281 10.492188 -16.335938 10.359375 -15.890625 C 10.222656 -15.441406 9.382812 -12.976562 7.84375 -8.5 L 13.765625 -8.5 L 11.734375 -14.421875 L 11.109375 -16.40625 Z M 10.796875 -17.421875 "/></g></g></g><g fill="#717276" fill-opacity="1"><g transform="translate(905.877049, 384.422547)"><g><path d="M 20.359375 -10.453125 C 20.359375 -8.328125 19.941406 -6.472656 19.109375 -4.890625 C 18.273438 -3.304688 17.09375 -2.09375 15.5625 -1.25 C 14.039062 -0.414062 12.296875 0 10.328125 0 L 2 0 L 2 -20.578125 L 9.453125 -20.578125 C 12.921875 -20.578125 15.601562 -19.703125 17.5 -17.953125 C 19.40625 -16.210938 20.359375 -13.710938 20.359375 -10.453125 Z M 16.015625 -10.453125 C 16.015625 -12.660156 15.4375 -14.34375 14.28125 -15.5 C 13.132812 -16.664062 11.492188 -17.25 9.359375 -17.25 L 6.3125 -17.25 L 6.3125 -3.328125 L 9.96875 -3.328125 C 11.8125 -3.328125 13.28125 -3.960938 14.375 -5.234375 C 15.46875 -6.515625 16.015625 -8.253906 16.015625 -10.453125 Z M 16.015625 -10.453125 "/></g></g></g><g fill="#717276" fill-opacity="1"><g transform="translate(934.131833, 384.422547)"><g><path d="M 16.546875 0 L 14.734375 -5.265625 L 6.875 -5.265625 L 5.0625 0 L 0.75 0 L 8.25 -20.578125 L 13.34375 -20.578125 L 20.8125 0 Z M 10.796875 -17.421875 L 10.703125 -17.09375 C 10.609375 -16.738281 10.492188 -16.335938 10.359375 -15.890625 C 10.222656 -15.441406 9.382812 -12.976562 7.84375 -8.5 L 13.765625 -8.5 L 11.734375 -14.421875 L 11.109375 -16.40625 Z M 10.796875 -17.421875 "/></g></g></g><g fill="#717276" fill-opacity="1"><g transform="translate(962.386618, 384.422547)"><g><path d="M 18.78125 -5.9375 C 18.78125 -3.914062 18.03125 -2.367188 16.53125 -1.296875 C 15.039062 -0.234375 12.851562 0.296875 9.96875 0.296875 C 7.320312 0.296875 5.25 -0.171875 3.75 -1.109375 C 2.25 -2.046875 1.285156 -3.460938 0.859375 -5.359375 L 5.03125 -6.046875 C 5.3125 -4.953125 5.859375 -4.160156 6.671875 -3.671875 C 7.492188 -3.179688 8.628906 -2.9375 10.078125 -2.9375 C 13.085938 -2.9375 14.59375 -3.851562 14.59375 -5.6875 C 14.59375 -6.269531 14.421875 -6.75 14.078125 -7.125 C 13.734375 -7.507812 13.242188 -7.828125 12.609375 -8.078125 C 11.984375 -8.328125 10.78125 -8.632812 9 -9 C 7.457031 -9.363281 6.382812 -9.65625 5.78125 -9.875 C 5.175781 -10.09375 4.628906 -10.347656 4.140625 -10.640625 C 3.660156 -10.941406 3.25 -11.300781 2.90625 -11.71875 C 2.5625 -12.132812 2.296875 -12.625 2.109375 -13.1875 C 1.921875 -13.757812 1.828125 -14.410156 1.828125 -15.140625 C 1.828125 -16.992188 2.523438 -18.414062 3.921875 -19.40625 C 5.316406 -20.394531 7.347656 -20.890625 10.015625 -20.890625 C 12.566406 -20.890625 14.484375 -20.488281 15.765625 -19.6875 C 17.046875 -18.894531 17.875 -17.578125 18.25 -15.734375 L 14.0625 -15.171875 C 13.851562 -16.054688 13.421875 -16.722656 12.765625 -17.171875 C 12.109375 -17.617188 11.164062 -17.84375 9.9375 -17.84375 C 7.320312 -17.84375 6.015625 -17.023438 6.015625 -15.390625 C 6.015625 -14.847656 6.15625 -14.40625 6.4375 -14.0625 C 6.71875 -13.726562 7.128906 -13.441406 7.671875 -13.203125 C 8.210938 -12.960938 9.316406 -12.660156 10.984375 -12.296875 C 12.960938 -11.878906 14.378906 -11.492188 15.234375 -11.140625 C 16.085938 -10.785156 16.757812 -10.367188 17.25 -9.890625 C 17.75 -9.421875 18.128906 -8.859375 18.390625 -8.203125 C 18.648438 -7.546875 18.78125 -6.789062 18.78125 -5.9375 Z M 18.78125 -5.9375 "/></g></g></g></svg>