<svg xmlns="http://www.w3.org/2000/svg" xmlns:xlink="http://www.w3.org/1999/xlink" width="500" zoomAndPan="magnify" viewBox="0 0 375 374.999991" height="500" preserveAspectRatio="xMidYMid meet" version="1.0"><defs><g/><clipPath id="a19ea32ebc"><path d="M 22.1875 139.121094 L 127.1875 139.121094 L 127.1875 244.121094 L 22.1875 244.121094 Z M 22.1875 139.121094 " clip-rule="nonzero"/></clipPath><clipPath id="1144ddba89"><path d="M 31 147 L 101 147 L 101 224 L 31 224 Z M 31 147 " clip-rule="nonzero"/></clipPath><clipPath id="8e4693603a"><path d="M 5.027344 171.808594 L 84.339844 127.707031 L 114.226562 181.453125 L 34.917969 225.558594 Z M 5.027344 171.808594 " clip-rule="nonzero"/></clipPath><clipPath id="762f36f9ae"><path d="M 5.027344 171.808594 L 84.339844 127.707031 L 114.226562 181.453125 L 34.917969 225.558594 Z M 5.027344 171.808594 " clip-rule="nonzero"/></clipPath><clipPath id="8cf39c4215"><path d="M 64 161 L 106 161 L 106 240 L 64 240 Z M 64 161 " clip-rule="nonzero"/></clipPath><clipPath id="a207675981"><path d="M 26.796875 190.867188 L 61.625 161.203125 L 105.394531 212.589844 L 70.5625 242.253906 Z M 26.796875 190.867188 " clip-rule="nonzero"/></clipPath><clipPath id="a37e2cfd2a"><path d="M 26.796875 190.867188 L 102.734375 126.1875 L 146.5 177.574219 L 70.5625 242.253906 Z M 26.796875 190.867188 " clip-rule="nonzero"/></clipPath><clipPath id="95e66e6f92"><path d="M 97 167.019531 L 150 167.019531 L 150 225.519531 L 97 225.519531 Z M 97 167.019531 " clip-rule="nonzero"/></clipPath></defs><g clip-path="url(#a19ea32ebc)"><path fill="#002885" d="M 75.582031 244.320312 C 82.457031 244.21875 89.285156 242.769531 95.5625 240.070312 C 101.839844 237.367188 107.59375 233.464844 112.367188 228.613281 C 117.144531 223.761719 120.996094 217.984375 123.574219 211.707031 C 126.171875 205.429688 127.5 198.628906 127.5 191.824219 C 127.5 198.628906 126.148438 205.429688 123.546875 211.707031 C 120.945312 217.984375 117.046875 223.738281 112.21875 228.488281 C 107.390625 233.265625 101.613281 237.042969 95.335938 239.570312 C 89.058594 242.09375 82.28125 243.320312 75.554688 243.21875 C 68.828125 243.121094 62.148438 241.667969 56 239.019531 C 49.871094 236.367188 44.269531 232.492188 39.640625 227.738281 C 34.992188 222.988281 31.289062 217.335938 28.8125 211.183594 C 26.3125 205.054688 25.035156 198.429688 25.035156 191.824219 C 25.035156 185.199219 26.3125 178.597656 28.8125 172.46875 C 31.3125 166.34375 35.015625 160.691406 39.640625 155.9375 C 44.292969 151.1875 49.871094 147.308594 56 144.660156 C 62.175781 141.957031 68.851562 140.53125 75.582031 140.433594 C 82.308594 140.332031 89.085938 141.558594 95.363281 144.082031 C 101.640625 146.585938 107.417969 150.386719 112.269531 155.164062 C 117.09375 159.941406 120.972656 165.667969 123.597656 171.945312 C 126.222656 178.222656 127.550781 185.023438 127.550781 191.824219 C 127.550781 185.023438 126.222656 178.222656 123.621094 171.945312 C 121.023438 165.640625 117.195312 159.890625 112.417969 155.039062 C 107.640625 150.1875 101.890625 146.257812 95.613281 143.582031 C 89.285156 140.832031 82.457031 139.40625 75.582031 139.28125 C 68.703125 139.183594 61.773438 140.40625 55.347656 142.984375 C 48.921875 145.535156 42.96875 149.386719 37.992188 154.238281 C 33.015625 159.089844 29.011719 164.964844 26.289062 171.394531 C 23.585938 177.820312 22.1875 184.824219 22.1875 191.800781 C 22.1875 198.777344 23.585938 205.78125 26.3125 212.207031 C 29.011719 218.636719 33.039062 224.511719 38.015625 229.363281 C 42.992188 234.214844 48.921875 238.066406 55.371094 240.617188 C 61.773438 243.195312 68.703125 244.421875 75.582031 244.320312 Z M 75.582031 244.320312 " fill-opacity="1" fill-rule="nonzero"/></g><g clip-path="url(#1144ddba89)"><g clip-path="url(#8e4693603a)"><g clip-path="url(#762f36f9ae)"><path fill="#002885" d="M 50.347656 192.203125 C 47.796875 197.148438 45.398438 202.15625 42.867188 207.089844 C 41.84375 209.082031 40.796875 211.0625 39.714844 213.019531 C 38.265625 212.015625 36.359375 211.65625 34.359375 212.523438 C 34.214844 212.589844 34.089844 212.667969 33.984375 212.78125 C 33.851562 212.816406 33.722656 212.886719 33.605469 212.980469 C 31.152344 214.9375 31.082031 218.117188 32.394531 220.453125 C 33.78125 222.925781 36.625 224.410156 39.585938 222.710938 C 42.722656 220.914062 42.980469 217.679688 41.667969 215.230469 C 41.375 214.679688 40.996094 214.183594 40.554688 213.742188 C 41.675781 211.710938 42.769531 209.652344 43.820312 207.59375 C 46.285156 202.773438 48.628906 197.902344 51.109375 193.085938 C 52.632812 194.5 54.800781 195.027344 57.046875 193.738281 C 60.183594 191.941406 60.441406 188.710938 59.128906 186.257812 C 58.148438 184.425781 56.261719 183.054688 54.050781 183.074219 C 53.457031 177.171875 52.945312 171.277344 52.332031 165.386719 C 52.101562 163.226562 51.859375 161.074219 51.601562 158.914062 C 51.820312 158.820312 52.039062 158.722656 52.25 158.59375 C 54.082031 157.535156 54.929688 155.992188 55.054688 154.410156 C 56.039062 154.574219 57.03125 154.773438 58.007812 155.015625 C 60.464844 155.628906 62.902344 156.429688 65.320312 157.105469 C 64.886719 158.675781 65.171875 160.394531 65.964844 161.800781 C 67.167969 163.9375 69.453125 165.328125 71.964844 164.566406 C 72.644531 166.136719 73.347656 167.699219 74.066406 169.253906 C 74.808594 170.84375 75.570312 172.421875 76.351562 173.992188 C 74.511719 175.960938 74.574219 178.769531 75.753906 180.890625 C 77.144531 183.363281 79.984375 184.847656 82.945312 183.148438 C 86.082031 181.351562 86.339844 178.121094 85.03125 175.667969 C 83.71875 173.242188 80.839844 171.625 77.71875 172.960938 C 77.574219 173.027344 77.453125 173.109375 77.347656 173.21875 C 77.300781 173.230469 77.257812 173.269531 77.21875 173.292969 C 76.480469 171.800781 75.75 170.304688 75.054688 168.792969 C 74.339844 167.253906 73.644531 165.699219 72.960938 164.152344 C 73.03125 164.113281 73.097656 164.089844 73.15625 164.058594 C 75.460938 162.738281 76.207031 160.640625 75.929688 158.652344 C 77.820312 158.632812 79.703125 158.554688 81.578125 158.445312 C 84.34375 158.277344 87.097656 158.023438 89.855469 157.757812 C 89.796875 158.953125 90.113281 160.171875 90.695312 161.21875 C 92.085938 163.691406 94.925781 165.175781 97.886719 163.476562 C 101.023438 161.679688 101.28125 158.449219 99.972656 155.996094 C 98.660156 153.570312 95.78125 151.953125 92.660156 153.289062 C 92.515625 153.355469 92.394531 153.4375 92.289062 153.546875 C 92.152344 153.585938 92.023438 153.65625 91.90625 153.746094 C 90.894531 154.554688 90.289062 155.578125 90.019531 156.65625 C 87.179688 156.917969 84.355469 157.183594 81.515625 157.355469 C 79.578125 157.472656 77.628906 157.550781 75.671875 157.566406 C 75.5625 157.226562 75.410156 156.882812 75.246094 156.5625 C 73.933594 154.136719 71.054688 152.519531 67.933594 153.851562 C 67.789062 153.921875 67.667969 154 67.5625 154.113281 C 67.425781 154.148438 67.296875 154.21875 67.179688 154.3125 C 66.535156 154.824219 66.054688 155.429688 65.730469 156.074219 C 63.265625 155.386719 60.789062 154.582031 58.285156 153.957031 C 57.203125 153.691406 56.121094 153.464844 55.046875 153.300781 C 54.960938 152.535156 54.714844 151.792969 54.34375 151.105469 C 53.035156 148.679688 50.15625 147.0625 47.035156 148.398438 C 46.890625 148.464844 46.769531 148.546875 46.660156 148.65625 C 46.527344 148.695312 46.398438 148.765625 46.28125 148.855469 C 43.828125 150.816406 43.761719 153.992188 45.070312 156.328125 C 46.191406 158.316406 48.246094 159.667969 50.566406 159.234375 C 50.816406 161.316406 51.050781 163.410156 51.273438 165.484375 C 51.886719 171.375 52.398438 177.269531 52.992188 183.167969 C 52.609375 183.253906 52.226562 183.375 51.839844 183.539062 C 51.695312 183.605469 51.574219 183.6875 51.464844 183.796875 C 51.332031 183.835938 51.203125 183.90625 51.085938 183.996094 C 48.632812 185.957031 48.566406 189.132812 49.875 191.46875 C 50.019531 191.726562 50.179688 191.972656 50.347656 192.203125 Z M 38.4375 220.699219 C 36.769531 221.652344 35.210938 220.707031 34.429688 219.320312 C 33.644531 217.910156 33.578125 215.980469 35.054688 214.796875 C 35.089844 214.765625 35.121094 214.734375 35.15625 214.703125 C 35.191406 214.695312 35.230469 214.671875 35.277344 214.660156 C 37.140625 213.855469 38.847656 214.875 39.628906 216.324219 C 40.410156 217.753906 40.273438 219.652344 38.4375 220.699219 Z M 78.527344 175.136719 C 78.5625 175.128906 78.601562 175.105469 78.648438 175.09375 C 80.511719 174.289062 82.21875 175.308594 83 176.761719 C 83.769531 178.191406 83.628906 180.082031 81.808594 181.132812 C 80.140625 182.085938 78.582031 181.140625 77.800781 179.753906 C 77.015625 178.34375 76.949219 176.414062 78.425781 175.230469 C 78.460938 175.199219 78.5 175.175781 78.527344 175.136719 Z M 93.355469 155.539062 C 93.390625 155.507812 93.421875 155.476562 93.457031 155.445312 C 93.492188 155.4375 93.53125 155.414062 93.578125 155.402344 C 95.445312 154.597656 97.148438 155.617188 97.929688 157.070312 C 98.699219 158.5 98.558594 160.390625 96.738281 161.441406 C 95.074219 162.394531 93.515625 161.449219 92.730469 160.0625 C 91.933594 158.65625 91.871094 156.726562 93.355469 155.539062 Z M 68.628906 156.128906 C 68.664062 156.097656 68.699219 156.066406 68.734375 156.035156 C 68.765625 156.027344 68.808594 156.003906 68.851562 155.992188 C 70.71875 155.1875 72.421875 156.207031 73.203125 157.65625 C 73.976562 159.089844 73.835938 160.976562 72.015625 162.027344 C 70.347656 162.980469 68.777344 162.042969 68.003906 160.652344 C 67.210938 159.246094 67.144531 157.316406 68.628906 156.128906 Z M 47.730469 150.675781 C 47.765625 150.640625 47.800781 150.609375 47.832031 150.578125 C 47.867188 150.570312 47.90625 150.550781 47.953125 150.539062 C 49.820312 149.734375 51.523438 150.75 52.304688 152.203125 C 53.074219 153.636719 52.9375 155.523438 51.117188 156.574219 C 49.449219 157.527344 47.878906 156.589844 47.105469 155.199219 C 46.304688 153.78125 46.242188 151.851562 47.730469 150.675781 Z M 52.527344 185.820312 C 52.558594 185.789062 52.59375 185.757812 52.628906 185.722656 C 52.671875 185.710938 52.703125 185.695312 52.746094 185.683594 C 54.613281 184.878906 56.316406 185.894531 57.097656 187.347656 C 57.871094 188.78125 57.730469 190.667969 55.910156 191.71875 C 54.242188 192.671875 52.675781 191.734375 51.898438 190.34375 C 51.097656 188.925781 51.042969 186.992188 52.527344 185.820312 Z M 52.527344 185.820312 " fill-opacity="1" fill-rule="evenodd"/></g></g></g><g clip-path="url(#8cf39c4215)"><g clip-path="url(#a207675981)"><g clip-path="url(#a37e2cfd2a)"><path fill="#002885" d="M 80.054688 203.054688 C 78.378906 208.9375 76.875 214.855469 75.214844 220.722656 C 74.539062 223.09375 73.839844 225.449219 73.097656 227.796875 C 71.316406 227.027344 69.183594 227.050781 67.214844 228.417969 C 67.074219 228.523438 66.957031 228.636719 66.867188 228.777344 C 66.730469 228.847656 66.605469 228.953125 66.5 229.074219 C 64.28125 231.71875 64.894531 235.160156 66.8125 237.390625 C 68.84375 239.757812 72.226562 240.742188 75.050781 238.273438 C 78.046875 235.65625 77.625 232.117188 75.679688 229.757812 C 75.246094 229.230469 74.726562 228.773438 74.160156 228.394531 C 74.925781 225.960938 75.660156 223.507812 76.351562 221.0625 C 77.964844 215.328125 79.4375 209.570312 81.070312 203.839844 C 83.015625 205.035156 85.46875 205.136719 87.609375 203.261719 C 90.601562 200.648438 90.183594 197.105469 88.238281 194.746094 C 86.785156 192.984375 84.457031 191.917969 82.070312 192.414062 C 80.15625 186.179688 78.328125 179.933594 76.394531 173.71875 C 75.679688 171.441406 74.953125 169.167969 74.210938 166.898438 C 74.425781 166.746094 74.636719 166.597656 74.839844 166.410156 C 76.582031 164.875 77.164062 163.027344 76.957031 161.292969 C 78.054688 161.257812 79.164062 161.257812 80.269531 161.3125 C 83.054688 161.4375 85.855469 161.777344 88.605469 161.980469 C 88.480469 163.765625 89.15625 165.558594 90.316406 166.902344 C 92.074219 168.945312 94.839844 169.949219 97.382812 168.585938 C 98.457031 170.132812 99.550781 171.667969 100.660156 173.183594 C 101.804688 174.738281 102.96875 176.277344 104.152344 177.796875 C 102.59375 180.316406 103.269531 183.332031 105 185.367188 C 107.03125 187.730469 110.417969 188.714844 113.238281 186.246094 C 116.234375 183.628906 115.8125 180.089844 113.867188 177.730469 C 111.929688 175.398438 108.480469 174.277344 105.402344 176.390625 C 105.261719 176.496094 105.144531 176.609375 105.054688 176.75 C 105.007812 176.773438 104.96875 176.824219 104.933594 176.855469 C 103.816406 175.410156 102.707031 173.957031 101.625 172.476562 C 100.523438 170.96875 99.4375 169.445312 98.367188 167.925781 C 98.433594 167.867188 98.5 167.828125 98.554688 167.78125 C 100.753906 165.859375 101.105469 163.4375 100.375 161.351562 C 102.410156 160.925781 104.421875 160.433594 106.421875 159.90625 C 109.367188 159.128906 112.28125 158.261719 115.199219 157.375 C 115.394531 158.675781 116 159.925781 116.851562 160.925781 C 118.882812 163.292969 122.269531 164.277344 125.09375 161.808594 C 128.085938 159.191406 127.664062 155.652344 125.71875 153.292969 C 123.785156 150.960938 120.332031 149.839844 117.253906 151.953125 C 117.113281 152.054688 117 152.171875 116.90625 152.3125 C 116.769531 152.382812 116.648438 152.484375 116.539062 152.609375 C 115.625 153.699219 115.191406 154.933594 115.136719 156.15625 C 112.132812 157.050781 109.144531 157.949219 106.117188 158.746094 C 104.054688 159.292969 101.972656 159.796875 99.867188 160.238281 C 99.671875 159.894531 99.433594 159.558594 99.1875 159.25 C 97.25 156.917969 93.796875 155.792969 90.71875 157.910156 C 90.578125 158.011719 90.464844 158.128906 90.375 158.269531 C 90.234375 158.339844 90.113281 158.441406 90.007812 158.566406 C 89.421875 159.261719 89.035156 160.011719 88.824219 160.78125 C 86.019531 160.574219 83.175781 160.242188 80.339844 160.109375 C 79.117188 160.054688 77.902344 160.046875 76.710938 160.101562 C 76.449219 159.296875 76.023438 158.546875 75.476562 157.886719 C 73.539062 155.554688 70.085938 154.433594 67.011719 156.550781 C 66.871094 156.652344 66.753906 156.765625 66.664062 156.910156 C 66.527344 156.976562 66.402344 157.082031 66.296875 157.207031 C 64.074219 159.847656 64.691406 163.289062 66.609375 165.523438 C 68.246094 167.425781 70.753906 168.4375 73.160156 167.464844 C 73.882812 169.65625 74.585938 171.863281 75.277344 174.050781 C 77.210938 180.269531 79.035156 186.511719 80.953125 192.746094 C 80.558594 192.917969 80.171875 193.132812 79.789062 193.394531 C 79.648438 193.496094 79.535156 193.609375 79.445312 193.753906 C 79.304688 193.820312 79.183594 193.925781 79.078125 194.050781 C 76.855469 196.691406 77.46875 200.132812 79.390625 202.367188 C 79.597656 202.613281 79.828125 202.84375 80.054688 203.054688 Z M 73.382812 236.351562 C 71.789062 237.738281 69.90625 237.058594 68.761719 235.734375 C 67.609375 234.382812 67.121094 232.316406 68.457031 230.722656 C 68.488281 230.679688 68.515625 230.636719 68.546875 230.597656 C 68.582031 230.582031 68.621094 230.550781 68.667969 230.527344 C 70.503906 229.253906 72.5625 229.984375 73.71875 231.378906 C 74.867188 232.75 75.132812 234.824219 73.382812 236.351562 Z M 106.742188 178.5625 C 106.78125 178.546875 106.816406 178.515625 106.863281 178.492188 C 108.703125 177.21875 110.757812 177.949219 111.914062 179.34375 C 113.054688 180.722656 113.3125 182.789062 111.578125 184.316406 C 109.988281 185.703125 108.101562 185.023438 106.957031 183.699219 C 105.804688 182.347656 105.320312 180.28125 106.652344 178.6875 C 106.683594 178.644531 106.722656 178.613281 106.742188 178.5625 Z M 118.492188 154.230469 C 118.519531 154.1875 118.550781 154.144531 118.578125 154.105469 C 118.617188 154.089844 118.652344 154.058594 118.699219 154.035156 C 120.539062 152.761719 122.59375 153.492188 123.75 154.886719 C 124.890625 156.265625 125.148438 158.332031 123.414062 159.855469 C 121.824219 161.246094 119.9375 160.566406 118.792969 159.242188 C 117.632812 157.894531 117.144531 155.832031 118.492188 154.230469 Z M 91.964844 160.210938 C 91.992188 160.171875 92.023438 160.128906 92.050781 160.085938 C 92.089844 160.074219 92.125 160.039062 92.171875 160.019531 C 94.011719 158.746094 96.066406 159.476562 97.222656 160.871094 C 98.363281 162.25 98.621094 164.3125 96.886719 165.839844 C 95.296875 167.230469 93.402344 166.558594 92.265625 165.222656 C 91.105469 163.878906 90.617188 161.8125 91.964844 160.210938 Z M 68.253906 158.851562 C 68.28125 158.808594 68.3125 158.769531 68.34375 158.726562 C 68.378906 158.710938 68.417969 158.679688 68.460938 158.65625 C 70.300781 157.386719 72.355469 158.113281 73.515625 159.511719 C 74.65625 160.890625 74.914062 162.953125 73.179688 164.480469 C 71.585938 165.867188 69.691406 165.199219 68.558594 163.863281 C 67.386719 162.511719 66.902344 160.445312 68.253906 158.851562 Z M 81.023438 195.703125 C 81.054688 195.664062 81.082031 195.621094 81.113281 195.578125 C 81.160156 195.554688 81.1875 195.53125 81.234375 195.507812 C 83.070312 194.238281 85.128906 194.964844 86.285156 196.363281 C 87.425781 197.742188 87.683594 199.804688 85.949219 201.332031 C 84.355469 202.71875 82.464844 202.050781 81.328125 200.714844 C 80.15625 199.363281 79.679688 197.289062 81.023438 195.703125 Z M 81.023438 195.703125 " fill-opacity="1" fill-rule="evenodd"/></g></g></g><path fill="#ad1d1d" d="M 106.609375 202.574219 L 112.429688 201.0625 L 112.480469 199.671875 L 111.601562 199.640625 L 111.574219 200.378906 L 106.417969 201.71875 L 99.925781 202.9375 L 96.246094 205.796875 L 96.789062 206.492188 L 100.296875 203.761719 Z M 106.609375 202.574219 " fill-opacity="1" fill-rule="nonzero"/><path fill="#ad1d1d" d="M 140.140625 201.726562 L 134.957031 200.378906 L 134.929688 199.640625 L 134.050781 199.671875 L 134.101562 201.0625 L 139.949219 202.582031 L 146.234375 203.761719 L 149.742188 206.492188 L 150.28125 205.796875 L 146.605469 202.9375 Z M 140.140625 201.726562 " fill-opacity="1" fill-rule="nonzero"/><g clip-path="url(#95e66e6f92)"><path fill="#ad1d1d" d="M 143.832031 224.796875 L 136.488281 217.554688 L 130.890625 207.734375 L 131.292969 200.503906 L 125.148438 193.164062 C 128.808594 195.296875 134.722656 198.679688 137.085938 199.707031 C 140.617188 201.238281 146.796875 197.882812 148.886719 196.691406 C 150.976562 195.496094 146.246094 193.707031 146.246094 193.707031 L 126.765625 191.816406 L 133.71875 190.683594 L 133.757812 191.785156 L 134.636719 191.753906 L 134.558594 189.660156 L 125.707031 191.097656 L 134.175781 185.140625 L 132.136719 180.035156 L 137.246094 171.933594 L 144.636719 167.792969 L 144.207031 167.027344 L 136.621094 171.273438 L 131.152344 179.945312 L 133.105469 184.820312 L 125.816406 189.949219 C 126.035156 189.328125 126.160156 188.625 126.160156 187.875 C 126.160156 186.40625 125.683594 185.105469 124.949219 184.308594 C 126.65625 178.476562 130.582031 174.382812 130.628906 174.339844 L 130 173.726562 C 129.816406 173.914062 126.007812 177.882812 124.207031 183.726562 C 124.046875 183.640625 123.878906 183.578125 123.703125 183.539062 L 123.703125 170.039062 L 122.828125 170.039062 L 122.828125 183.539062 C 122.652344 183.578125 122.484375 183.640625 122.320312 183.726562 C 120.523438 177.882812 116.714844 173.914062 116.53125 173.726562 L 115.902344 174.339844 C 115.945312 174.382812 119.871094 178.46875 121.578125 184.308594 C 120.847656 185.105469 120.371094 186.40625 120.371094 187.875 C 120.371094 188.625 120.496094 189.332031 120.714844 189.949219 L 113.425781 184.820312 L 115.375 179.945312 L 109.90625 171.273438 L 102.324219 167.027344 L 101.894531 167.792969 L 109.285156 171.933594 L 114.394531 180.035156 L 112.351562 185.140625 L 120.820312 191.097656 L 111.96875 189.65625 L 111.890625 191.753906 L 112.769531 191.785156 L 112.808594 190.683594 L 119.761719 191.816406 L 100.285156 193.707031 C 100.285156 193.707031 95.550781 195.496094 97.640625 196.691406 C 99.734375 197.882812 105.910156 201.238281 109.445312 199.707031 C 111.808594 198.679688 117.722656 195.296875 121.378906 193.164062 L 115.234375 200.503906 L 115.636719 207.734375 L 110.042969 217.554688 L 102.699219 224.796875 L 103.316406 225.425781 L 110.703125 218.136719 L 110.746094 218.09375 L 116.464844 208.058594 L 116.527344 207.945312 L 116.132812 200.804688 L 121.589844 194.28125 C 121.1875 196.414062 120.933594 199.316406 120.933594 202.515625 C 120.933594 209.058594 121.976562 214.363281 123.265625 214.363281 C 124.550781 214.363281 125.59375 209.058594 125.59375 202.515625 C 125.59375 199.316406 125.34375 196.414062 124.9375 194.28125 L 130.398438 200.804688 L 130 207.945312 L 135.785156 218.09375 L 143.214844 225.425781 Z M 143.832031 224.796875 " fill-opacity="1" fill-rule="nonzero"/></g><g fill="#002885" fill-opacity="1"><g transform="translate(163.663501, 199.124987)"><g><path d="M 11.171875 0 C 9.859375 0 8.914062 -0.726562 8.34375 -2.1875 L 0.140625 -23.859375 L 5.046875 -23.859375 L 11.3125 -5.96875 L 11.375 -5.96875 L 17.6875 -23.859375 L 22.5625 -23.859375 L 13.390625 0 Z M 11.171875 0 "/></g></g></g><g fill="#002885" fill-opacity="1"><g transform="translate(186.362718, 199.124987)"><g><path d="M 3.0625 -23.859375 L 5.59375 -23.859375 L 5.59375 0 L 3.0625 0 Z M 3.0625 -23.859375 "/></g></g></g><g fill="#002885" fill-opacity="1"><g transform="translate(195.018571, 199.124987)"><g><path d="M 9.84375 0.265625 C 8.28125 0.265625 6.910156 -0.0859375 5.734375 -0.796875 C 4.566406 -1.515625 3.660156 -2.53125 3.015625 -3.84375 C 2.367188 -5.164062 2.046875 -6.679688 2.046875 -8.390625 L 2.046875 -15.46875 C 2.046875 -17.175781 2.378906 -18.679688 3.046875 -19.984375 C 3.722656 -21.296875 4.660156 -22.3125 5.859375 -23.03125 C 7.066406 -23.757812 8.453125 -24.125 10.015625 -24.125 L 13.625 -24.125 C 15.125 -24.125 16.445312 -23.804688 17.59375 -23.171875 C 18.75 -22.535156 19.644531 -21.640625 20.28125 -20.484375 C 20.914062 -19.328125 21.234375 -18 21.234375 -16.5 L 18.78125 -16.5 C 18.78125 -18.101562 18.304688 -19.398438 17.359375 -20.390625 C 16.421875 -21.378906 15.175781 -21.875 13.625 -21.875 L 10.015625 -21.875 C 8.378906 -21.875 7.0625 -21.289062 6.0625 -20.125 C 5.0625 -18.957031 4.5625 -17.40625 4.5625 -15.46875 L 4.5625 -8.390625 C 4.5625 -6.453125 5.046875 -4.894531 6.015625 -3.71875 C 6.984375 -2.550781 8.257812 -1.96875 9.84375 -1.96875 L 13.53125 -1.96875 C 15.144531 -1.96875 16.453125 -2.523438 17.453125 -3.640625 C 18.453125 -4.753906 18.953125 -6.222656 18.953125 -8.046875 L 18.953125 -10.09375 L 12.34375 -10.09375 L 12.34375 -12.296875 L 21.40625 -12.296875 L 21.40625 -8.046875 C 21.40625 -6.410156 21.078125 -4.960938 20.421875 -3.703125 C 19.773438 -2.441406 18.851562 -1.460938 17.65625 -0.765625 C 16.46875 -0.078125 15.09375 0.265625 13.53125 0.265625 Z M 9.84375 0.265625 "/></g></g></g><g fill="#002885" fill-opacity="1"><g transform="translate(218.328044, 199.124987)"><g><path d="M 3.0625 -23.859375 L 5.59375 -23.859375 L 5.59375 0 L 3.0625 0 Z M 3.0625 -23.859375 "/></g></g></g><g fill="#002885" fill-opacity="1"><g transform="translate(226.983897, 199.124987)"><g><path d="M 16.25 -6.609375 L 5.796875 -6.609375 L 3.34375 0 L 0.75 0 L 9.921875 -23.859375 L 11.078125 -23.859375 C 11.828125 -23.859375 12.375 -23.398438 12.71875 -22.484375 L 17.953125 -8.71875 L 18 -8.71875 L 18 -8.65625 L 21.296875 0 L 18.703125 0 Z M 6.578125 -8.71875 L 15.46875 -8.71875 L 11.046875 -20.578125 L 11 -20.578125 Z M 6.578125 -8.71875 "/></g></g></g><g fill="#002885" fill-opacity="1"><g transform="translate(249.034589, 199.124987)"><g><path d="M 5.421875 0 C 4.441406 0 3.644531 -0.289062 3.03125 -0.875 C 2.414062 -1.46875 2.109375 -2.242188 2.109375 -3.203125 L 2.109375 -23.859375 L 20.3125 -23.859375 L 20.3125 -19.765625 L 6.8125 -19.765625 L 6.8125 -14.25 L 19.28125 -14.25 L 19.28125 -10.15625 L 6.8125 -10.15625 L 6.8125 -4.09375 L 20.3125 -4.09375 L 20.3125 0 Z M 5.421875 0 "/></g></g></g><g fill="#002885" fill-opacity="1"><g transform="translate(270.444748, 199.124987)"><g><path d="M 4.9375 0 C 4.238281 0 3.691406 -0.191406 3.296875 -0.578125 C 2.910156 -0.960938 2.71875 -1.507812 2.71875 -2.21875 L 2.71875 -23.859375 L 12.609375 -23.859375 C 14.285156 -23.859375 15.757812 -23.53125 17.03125 -22.875 C 18.3125 -22.226562 19.300781 -21.304688 20 -20.109375 C 20.707031 -18.921875 21.0625 -17.554688 21.0625 -16.015625 L 21.0625 -8.515625 C 21.0625 -5.722656 20.351562 -3.601562 18.9375 -2.15625 C 17.53125 -0.71875 15.46875 0 12.75 0 Z M 12.671875 -2.25 C 14.609375 -2.25 16.066406 -2.773438 17.046875 -3.828125 C 18.035156 -4.890625 18.53125 -6.453125 18.53125 -8.515625 L 18.53125 -16.015625 C 18.53125 -17.671875 17.976562 -19.015625 16.875 -20.046875 C 15.78125 -21.085938 14.335938 -21.609375 12.546875 -21.609375 L 5.25 -21.609375 L 5.25 -2.25 Z M 12.671875 -2.25 "/></g></g></g><g fill="#002885" fill-opacity="1"><g transform="translate(293.413439, 199.124987)"><g><path d="M 4.9375 0 C 4.238281 0 3.691406 -0.195312 3.296875 -0.59375 C 2.910156 -0.988281 2.71875 -1.539062 2.71875 -2.25 L 2.71875 -23.859375 L 18.75 -23.859375 L 18.75 -21.671875 L 5.25 -21.671875 L 5.25 -13.296875 L 17.71875 -13.296875 L 17.71875 -11.109375 L 5.25 -11.109375 L 5.25 -2.1875 L 18.75 -2.1875 L 18.75 0 Z M 4.9375 0 "/></g></g></g><g fill="#002885" fill-opacity="1"><g transform="translate(313.860345, 199.124987)"><g><path d="M 8.828125 0.265625 C 7.460938 0.265625 6.253906 -0.0195312 5.203125 -0.59375 C 4.160156 -1.175781 3.347656 -1.992188 2.765625 -3.046875 C 2.191406 -4.109375 1.90625 -5.332031 1.90625 -6.71875 L 4.359375 -6.71875 C 4.359375 -5.300781 4.769531 -4.15625 5.59375 -3.28125 C 6.425781 -2.40625 7.523438 -1.96875 8.890625 -1.96875 L 12.671875 -1.96875 C 14.015625 -1.96875 15.09375 -2.269531 15.90625 -2.875 C 16.726562 -3.476562 17.140625 -4.269531 17.140625 -5.25 L 17.140625 -7.421875 C 17.140625 -8.203125 16.835938 -8.863281 16.234375 -9.40625 C 15.628906 -9.945312 14.804688 -10.300781 13.765625 -10.46875 L 7.640625 -11.484375 C 5.910156 -11.773438 4.566406 -12.382812 3.609375 -13.3125 C 2.660156 -14.25 2.1875 -15.421875 2.1875 -16.828125 L 2.1875 -18.671875 C 2.1875 -20.328125 2.800781 -21.648438 4.03125 -22.640625 C 5.269531 -23.628906 6.914062 -24.125 8.96875 -24.125 L 12.8125 -24.125 C 14.738281 -24.125 16.289062 -23.539062 17.46875 -22.375 C 18.65625 -21.207031 19.25 -19.664062 19.25 -17.75 L 16.796875 -17.75 C 16.796875 -19 16.429688 -20 15.703125 -20.75 C 14.984375 -21.5 14.019531 -21.875 12.8125 -21.875 L 8.96875 -21.875 C 7.664062 -21.875 6.628906 -21.582031 5.859375 -21 C 5.085938 -20.425781 4.703125 -19.648438 4.703125 -18.671875 L 4.703125 -16.828125 C 4.703125 -16.035156 4.988281 -15.363281 5.5625 -14.8125 C 6.144531 -14.269531 6.945312 -13.910156 7.96875 -13.734375 L 14.078125 -12.671875 C 15.847656 -12.359375 17.21875 -11.75 18.1875 -10.84375 C 19.164062 -9.945312 19.65625 -8.804688 19.65625 -7.421875 L 19.65625 -5.25 C 19.65625 -3.59375 19.019531 -2.257812 17.75 -1.25 C 16.476562 -0.238281 14.8125 0.265625 12.75 0.265625 Z M 8.828125 0.265625 "/></g></g></g><g fill="#717276" fill-opacity="1"><g transform="translate(171.034344, 209.691387)"><g><path d="M 5.96875 -1.890625 C 5.96875 -1.242188 5.726562 -0.75 5.25 -0.40625 C 4.78125 -0.0703125 4.082031 0.09375 3.15625 0.09375 C 2.320312 0.09375 1.664062 -0.0507812 1.1875 -0.34375 C 0.71875 -0.644531 0.414062 -1.097656 0.28125 -1.703125 L 1.59375 -1.921875 C 1.6875 -1.578125 1.863281 -1.328125 2.125 -1.171875 C 2.382812 -1.015625 2.742188 -0.9375 3.203125 -0.9375 C 4.160156 -0.9375 4.640625 -1.222656 4.640625 -1.796875 C 4.640625 -1.984375 4.582031 -2.132812 4.46875 -2.25 C 4.363281 -2.375 4.207031 -2.476562 4 -2.5625 C 3.800781 -2.644531 3.421875 -2.742188 2.859375 -2.859375 C 2.367188 -2.972656 2.023438 -3.0625 1.828125 -3.125 C 1.640625 -3.195312 1.46875 -3.28125 1.3125 -3.375 C 1.15625 -3.46875 1.023438 -3.582031 0.921875 -3.71875 C 0.816406 -3.851562 0.734375 -4.007812 0.671875 -4.1875 C 0.609375 -4.363281 0.578125 -4.570312 0.578125 -4.8125 C 0.578125 -5.394531 0.796875 -5.84375 1.234375 -6.15625 C 1.679688 -6.476562 2.332031 -6.640625 3.1875 -6.640625 C 3.988281 -6.640625 4.59375 -6.507812 5 -6.25 C 5.414062 -6 5.679688 -5.582031 5.796875 -5 L 4.46875 -4.8125 C 4.394531 -5.09375 4.253906 -5.300781 4.046875 -5.4375 C 3.835938 -5.582031 3.539062 -5.65625 3.15625 -5.65625 C 2.320312 -5.65625 1.90625 -5.398438 1.90625 -4.890625 C 1.90625 -4.710938 1.945312 -4.570312 2.03125 -4.46875 C 2.125 -4.363281 2.253906 -4.269531 2.421875 -4.1875 C 2.597656 -4.113281 2.953125 -4.019531 3.484375 -3.90625 C 4.117188 -3.769531 4.566406 -3.644531 4.828125 -3.53125 C 5.097656 -3.425781 5.3125 -3.296875 5.46875 -3.140625 C 5.632812 -2.992188 5.757812 -2.816406 5.84375 -2.609375 C 5.925781 -2.398438 5.96875 -2.160156 5.96875 -1.890625 Z M 5.96875 -1.890625 "/></g></g></g><g fill="#717276" fill-opacity="1"><g transform="translate(179.484716, 209.691387)"><g><path d="M 6.984375 -3.296875 C 6.984375 -2.617188 6.847656 -2.019531 6.578125 -1.5 C 6.316406 -0.988281 5.9375 -0.59375 5.4375 -0.3125 C 4.9375 -0.0390625 4.347656 0.09375 3.671875 0.09375 C 2.648438 0.09375 1.847656 -0.207031 1.265625 -0.8125 C 0.679688 -1.414062 0.390625 -2.242188 0.390625 -3.296875 C 0.390625 -4.347656 0.679688 -5.164062 1.265625 -5.75 C 1.847656 -6.34375 2.65625 -6.640625 3.6875 -6.640625 C 4.71875 -6.640625 5.523438 -6.34375 6.109375 -5.75 C 6.691406 -5.15625 6.984375 -4.335938 6.984375 -3.296875 Z M 5.59375 -3.296875 C 5.59375 -4.003906 5.425781 -4.554688 5.09375 -4.953125 C 4.757812 -5.359375 4.289062 -5.5625 3.6875 -5.5625 C 3.070312 -5.5625 2.597656 -5.359375 2.265625 -4.953125 C 1.929688 -4.554688 1.765625 -4.003906 1.765625 -3.296875 C 1.765625 -2.578125 1.9375 -2.007812 2.28125 -1.59375 C 2.625 -1.1875 3.085938 -0.984375 3.671875 -0.984375 C 4.285156 -0.984375 4.757812 -1.179688 5.09375 -1.578125 C 5.425781 -1.984375 5.59375 -2.554688 5.59375 -3.296875 Z M 5.59375 -3.296875 "/></g></g></g><g fill="#717276" fill-opacity="1"><g transform="translate(188.987201, 209.691387)"><g><path d="M 0.640625 0 L 0.640625 -6.53125 L 2 -6.53125 L 2 -1.0625 L 5.515625 -1.0625 L 5.515625 0 Z M 0.640625 0 "/></g></g></g><g fill="#717276" fill-opacity="1"><g transform="translate(196.904564, 209.691387)"><g><path d="M 3.359375 0.09375 C 2.453125 0.09375 1.757812 -0.125 1.28125 -0.5625 C 0.8125 -1 0.578125 -1.628906 0.578125 -2.453125 L 0.578125 -6.53125 L 1.9375 -6.53125 L 1.9375 -2.5625 C 1.9375 -2.039062 2.054688 -1.644531 2.296875 -1.375 C 2.546875 -1.113281 2.910156 -0.984375 3.390625 -0.984375 C 3.878906 -0.984375 4.253906 -1.117188 4.515625 -1.390625 C 4.773438 -1.671875 4.90625 -2.078125 4.90625 -2.609375 L 4.90625 -6.53125 L 6.28125 -6.53125 L 6.28125 -2.515625 C 6.28125 -1.691406 6.023438 -1.050781 5.515625 -0.59375 C 5.003906 -0.132812 4.285156 0.09375 3.359375 0.09375 Z M 3.359375 0.09375 "/></g></g></g><g fill="#717276" fill-opacity="1"><g transform="translate(205.878677, 209.691387)"><g><path d="M 3.6875 -0.984375 C 4.507812 -0.984375 5.082031 -1.398438 5.40625 -2.234375 L 6.59375 -1.78125 C 6.34375 -1.144531 5.96875 -0.671875 5.46875 -0.359375 C 4.976562 -0.0546875 4.382812 0.09375 3.6875 0.09375 C 2.632812 0.09375 1.820312 -0.203125 1.25 -0.796875 C 0.675781 -1.390625 0.390625 -2.222656 0.390625 -3.296875 C 0.390625 -4.367188 0.664062 -5.191406 1.21875 -5.765625 C 1.769531 -6.347656 2.570312 -6.640625 3.625 -6.640625 C 4.394531 -6.640625 5.019531 -6.484375 5.5 -6.171875 C 5.976562 -5.859375 6.316406 -5.40625 6.515625 -4.8125 L 5.3125 -4.484375 C 5.207031 -4.816406 5.003906 -5.078125 4.703125 -5.265625 C 4.410156 -5.460938 4.0625 -5.5625 3.65625 -5.5625 C 3.039062 -5.5625 2.570312 -5.367188 2.25 -4.984375 C 1.925781 -4.597656 1.765625 -4.035156 1.765625 -3.296875 C 1.765625 -2.546875 1.925781 -1.972656 2.25 -1.578125 C 2.582031 -1.179688 3.0625 -0.984375 3.6875 -0.984375 Z M 4.578125 1.09375 C 4.578125 1.382812 4.457031 1.601562 4.21875 1.75 C 3.976562 1.894531 3.628906 1.96875 3.171875 1.96875 C 3.035156 1.96875 2.882812 1.957031 2.71875 1.9375 L 2.71875 1.390625 C 2.820312 1.410156 2.945312 1.421875 3.09375 1.421875 C 3.519531 1.421875 3.734375 1.316406 3.734375 1.109375 C 3.734375 1.003906 3.6875 0.921875 3.59375 0.859375 C 3.507812 0.804688 3.367188 0.78125 3.171875 0.78125 C 3.054688 0.78125 2.972656 0.785156 2.921875 0.796875 L 3.21875 0 L 3.875 0 L 3.734375 0.375 C 4.015625 0.394531 4.222656 0.46875 4.359375 0.59375 C 4.503906 0.71875 4.578125 0.882812 4.578125 1.09375 Z M 4.578125 1.09375 "/></g></g></g><g fill="#717276" fill-opacity="1"><g transform="translate(214.85279, 209.691387)"><g><path d="M 6.984375 -3.296875 C 6.984375 -2.617188 6.847656 -2.019531 6.578125 -1.5 C 6.316406 -0.988281 5.9375 -0.59375 5.4375 -0.3125 C 4.9375 -0.0390625 4.347656 0.09375 3.671875 0.09375 C 2.648438 0.09375 1.847656 -0.207031 1.265625 -0.8125 C 0.679688 -1.414062 0.390625 -2.242188 0.390625 -3.296875 C 0.390625 -4.347656 0.679688 -5.164062 1.265625 -5.75 C 1.847656 -6.34375 2.65625 -6.640625 3.6875 -6.640625 C 4.71875 -6.640625 5.523438 -6.34375 6.109375 -5.75 C 6.691406 -5.15625 6.984375 -4.335938 6.984375 -3.296875 Z M 5.59375 -3.296875 C 5.59375 -4.003906 5.425781 -4.554688 5.09375 -4.953125 C 4.757812 -5.359375 4.289062 -5.5625 3.6875 -5.5625 C 3.070312 -5.5625 2.597656 -5.359375 2.265625 -4.953125 C 1.929688 -4.554688 1.765625 -4.003906 1.765625 -3.296875 C 1.765625 -2.578125 1.9375 -2.007812 2.28125 -1.59375 C 2.625 -1.1875 3.085938 -0.984375 3.671875 -0.984375 C 4.285156 -0.984375 4.757812 -1.179688 5.09375 -1.578125 C 5.425781 -1.984375 5.59375 -2.554688 5.59375 -3.296875 Z M 4.421875 -7.09375 C 4.285156 -7.09375 4.144531 -7.125 4 -7.1875 C 3.863281 -7.25 3.726562 -7.3125 3.59375 -7.375 C 3.46875 -7.445312 3.347656 -7.515625 3.234375 -7.578125 C 3.117188 -7.640625 3.015625 -7.671875 2.921875 -7.671875 C 2.796875 -7.671875 2.695312 -7.632812 2.625 -7.5625 C 2.5625 -7.488281 2.507812 -7.332031 2.46875 -7.09375 L 1.828125 -7.09375 C 1.859375 -7.445312 1.910156 -7.707031 1.984375 -7.875 C 2.054688 -8.050781 2.164062 -8.191406 2.3125 -8.296875 C 2.457031 -8.398438 2.644531 -8.453125 2.875 -8.453125 C 3.019531 -8.453125 3.160156 -8.421875 3.296875 -8.359375 C 3.429688 -8.304688 3.5625 -8.242188 3.6875 -8.171875 C 3.820312 -8.097656 3.945312 -8.03125 4.0625 -7.96875 C 4.175781 -7.914062 4.28125 -7.890625 4.375 -7.890625 C 4.488281 -7.890625 4.582031 -7.925781 4.65625 -8 C 4.726562 -8.070312 4.785156 -8.222656 4.828125 -8.453125 L 5.453125 -8.453125 C 5.429688 -7.972656 5.332031 -7.625 5.15625 -7.40625 C 4.976562 -7.195312 4.734375 -7.09375 4.421875 -7.09375 Z M 4.421875 -7.09375 "/></g></g></g><g fill="#717276" fill-opacity="1"><g transform="translate(224.355276, 209.691387)"><g><path d="M 0.640625 0 L 0.640625 -6.53125 L 5.78125 -6.53125 L 5.78125 -5.484375 L 2 -5.484375 L 2 -3.84375 L 5.5 -3.84375 L 5.5 -2.78125 L 2 -2.78125 L 2 -1.0625 L 5.96875 -1.0625 L 5.96875 0 Z M 0.640625 0 "/></g></g></g><g fill="#717276" fill-opacity="1"><g transform="translate(232.80565, 209.691387)"><g><path d="M 5.96875 -1.890625 C 5.96875 -1.242188 5.726562 -0.75 5.25 -0.40625 C 4.78125 -0.0703125 4.082031 0.09375 3.15625 0.09375 C 2.320312 0.09375 1.664062 -0.0507812 1.1875 -0.34375 C 0.71875 -0.644531 0.414062 -1.097656 0.28125 -1.703125 L 1.59375 -1.921875 C 1.6875 -1.578125 1.863281 -1.328125 2.125 -1.171875 C 2.382812 -1.015625 2.742188 -0.9375 3.203125 -0.9375 C 4.160156 -0.9375 4.640625 -1.222656 4.640625 -1.796875 C 4.640625 -1.984375 4.582031 -2.132812 4.46875 -2.25 C 4.363281 -2.375 4.207031 -2.476562 4 -2.5625 C 3.800781 -2.644531 3.421875 -2.742188 2.859375 -2.859375 C 2.367188 -2.972656 2.023438 -3.0625 1.828125 -3.125 C 1.640625 -3.195312 1.46875 -3.28125 1.3125 -3.375 C 1.15625 -3.46875 1.023438 -3.582031 0.921875 -3.71875 C 0.816406 -3.851562 0.734375 -4.007812 0.671875 -4.1875 C 0.609375 -4.363281 0.578125 -4.570312 0.578125 -4.8125 C 0.578125 -5.394531 0.796875 -5.84375 1.234375 -6.15625 C 1.679688 -6.476562 2.332031 -6.640625 3.1875 -6.640625 C 3.988281 -6.640625 4.59375 -6.507812 5 -6.25 C 5.414062 -6 5.679688 -5.582031 5.796875 -5 L 4.46875 -4.8125 C 4.394531 -5.09375 4.253906 -5.300781 4.046875 -5.4375 C 3.835938 -5.582031 3.539062 -5.65625 3.15625 -5.65625 C 2.320312 -5.65625 1.90625 -5.398438 1.90625 -4.890625 C 1.90625 -4.710938 1.945312 -4.570312 2.03125 -4.46875 C 2.125 -4.363281 2.253906 -4.269531 2.421875 -4.1875 C 2.597656 -4.113281 2.953125 -4.019531 3.484375 -3.90625 C 4.117188 -3.769531 4.566406 -3.644531 4.828125 -3.53125 C 5.097656 -3.425781 5.3125 -3.296875 5.46875 -3.140625 C 5.632812 -2.992188 5.757812 -2.816406 5.84375 -2.609375 C 5.925781 -2.398438 5.96875 -2.160156 5.96875 -1.890625 Z M 5.96875 -1.890625 "/></g></g></g><g fill="#717276" fill-opacity="1"><g transform="translate(241.256024, 209.691387)"><g/></g></g><g fill="#717276" fill-opacity="1"><g transform="translate(246.012417, 209.691387)"><g><path d="M 0.640625 0 L 0.640625 -6.53125 L 2 -6.53125 L 2 0 Z M 0.640625 0 "/></g></g></g><g fill="#717276" fill-opacity="1"><g transform="translate(250.76881, 209.691387)"><g><path d="M 4.609375 0 L 1.765625 -5.03125 C 1.816406 -4.539062 1.84375 -4.148438 1.84375 -3.859375 L 1.84375 0 L 0.640625 0 L 0.640625 -6.53125 L 2.203125 -6.53125 L 5.09375 -1.46875 C 5.03125 -1.925781 5 -2.347656 5 -2.734375 L 5 -6.53125 L 6.21875 -6.53125 L 6.21875 0 Z M 4.609375 0 "/></g></g></g><g fill="#717276" fill-opacity="1"><g transform="translate(259.742923, 209.691387)"><g><path d="M 3.578125 -5.484375 L 3.578125 0 L 2.21875 0 L 2.21875 -5.484375 L 0.109375 -5.484375 L 0.109375 -6.53125 L 5.703125 -6.53125 L 5.703125 -5.484375 Z M 3.578125 -5.484375 "/></g></g></g><g fill="#717276" fill-opacity="1"><g transform="translate(267.660283, 209.691387)"><g><path d="M 0.640625 0 L 0.640625 -6.53125 L 5.78125 -6.53125 L 5.78125 -5.484375 L 2 -5.484375 L 2 -3.84375 L 5.5 -3.84375 L 5.5 -2.78125 L 2 -2.78125 L 2 -1.0625 L 5.96875 -1.0625 L 5.96875 0 Z M 0.640625 0 "/></g></g></g><g fill="#717276" fill-opacity="1"><g transform="translate(276.110657, 209.691387)"><g><path d="M 3.734375 -0.984375 C 4.085938 -0.984375 4.429688 -1.035156 4.765625 -1.140625 C 5.109375 -1.242188 5.367188 -1.375 5.546875 -1.53125 L 5.546875 -2.4375 L 3.953125 -2.4375 L 3.953125 -3.453125 L 6.796875 -3.453125 L 6.796875 -1.046875 C 6.453125 -0.691406 6 -0.410156 5.4375 -0.203125 C 4.882812 -0.00390625 4.304688 0.09375 3.703125 0.09375 C 2.640625 0.09375 1.820312 -0.195312 1.25 -0.78125 C 0.675781 -1.375 0.390625 -2.210938 0.390625 -3.296875 C 0.390625 -4.367188 0.675781 -5.191406 1.25 -5.765625 C 1.820312 -6.347656 2.648438 -6.640625 3.734375 -6.640625 C 5.265625 -6.640625 6.238281 -6.070312 6.65625 -4.9375 L 5.40625 -4.546875 C 5.269531 -4.878906 5.054688 -5.128906 4.765625 -5.296875 C 4.472656 -5.472656 4.128906 -5.5625 3.734375 -5.5625 C 3.085938 -5.5625 2.597656 -5.363281 2.265625 -4.96875 C 1.929688 -4.582031 1.765625 -4.023438 1.765625 -3.296875 C 1.765625 -2.554688 1.9375 -1.984375 2.28125 -1.578125 C 2.625 -1.179688 3.109375 -0.984375 3.734375 -0.984375 Z M 3.734375 -0.984375 "/></g></g></g><g fill="#717276" fill-opacity="1"><g transform="translate(285.613144, 209.691387)"><g><path d="M 5.125 0 L 3.609375 -2.484375 L 2 -2.484375 L 2 0 L 0.640625 0 L 0.640625 -6.53125 L 3.90625 -6.53125 C 4.675781 -6.53125 5.273438 -6.363281 5.703125 -6.03125 C 6.128906 -5.695312 6.34375 -5.21875 6.34375 -4.59375 C 6.34375 -4.132812 6.210938 -3.738281 5.953125 -3.40625 C 5.691406 -3.070312 5.34375 -2.851562 4.90625 -2.75 L 6.671875 0 Z M 4.96875 -4.53125 C 4.96875 -5.15625 4.5625 -5.46875 3.75 -5.46875 L 2 -5.46875 L 2 -3.546875 L 3.796875 -3.546875 C 4.179688 -3.546875 4.472656 -3.628906 4.671875 -3.796875 C 4.867188 -3.972656 4.96875 -4.21875 4.96875 -4.53125 Z M 4.96875 -4.53125 "/></g></g></g><g fill="#717276" fill-opacity="1"><g transform="translate(294.587257, 209.691387)"><g><path d="M 5.25 0 L 4.671875 -1.671875 L 2.1875 -1.671875 L 1.609375 0 L 0.234375 0 L 2.625 -6.53125 L 4.234375 -6.53125 L 6.609375 0 Z M 3.421875 -5.53125 L 3.40625 -5.421875 C 3.375 -5.316406 3.332031 -5.191406 3.28125 -5.046875 C 3.238281 -4.898438 2.972656 -4.117188 2.484375 -2.703125 L 4.375 -2.703125 L 3.71875 -4.578125 L 3.53125 -5.203125 Z M 3.421875 -5.53125 "/></g></g></g><g fill="#717276" fill-opacity="1"><g transform="translate(303.561369, 209.691387)"><g><path d="M 6.46875 -3.3125 C 6.46875 -2.644531 6.332031 -2.054688 6.0625 -1.546875 C 5.800781 -1.046875 5.425781 -0.660156 4.9375 -0.390625 C 4.457031 -0.128906 3.90625 0 3.28125 0 L 0.640625 0 L 0.640625 -6.53125 L 3 -6.53125 C 4.101562 -6.53125 4.957031 -6.253906 5.5625 -5.703125 C 6.164062 -5.148438 6.46875 -4.351562 6.46875 -3.3125 Z M 5.078125 -3.3125 C 5.078125 -4.019531 4.894531 -4.554688 4.53125 -4.921875 C 4.164062 -5.296875 3.644531 -5.484375 2.96875 -5.484375 L 2 -5.484375 L 2 -1.0625 L 3.15625 -1.0625 C 3.75 -1.0625 4.21875 -1.257812 4.5625 -1.65625 C 4.90625 -2.0625 5.078125 -2.613281 5.078125 -3.3125 Z M 5.078125 -3.3125 "/></g></g></g><g fill="#717276" fill-opacity="1"><g transform="translate(312.535482, 209.691387)"><g><path d="M 5.25 0 L 4.671875 -1.671875 L 2.1875 -1.671875 L 1.609375 0 L 0.234375 0 L 2.625 -6.53125 L 4.234375 -6.53125 L 6.609375 0 Z M 3.421875 -5.53125 L 3.40625 -5.421875 C 3.375 -5.316406 3.332031 -5.191406 3.28125 -5.046875 C 3.238281 -4.898438 2.972656 -4.117188 2.484375 -2.703125 L 4.375 -2.703125 L 3.71875 -4.578125 L 3.53125 -5.203125 Z M 3.421875 -5.53125 "/></g></g></g><g fill="#717276" fill-opacity="1"><g transform="translate(321.509595, 209.691387)"><g><path d="M 5.96875 -1.890625 C 5.96875 -1.242188 5.726562 -0.75 5.25 -0.40625 C 4.78125 -0.0703125 4.082031 0.09375 3.15625 0.09375 C 2.320312 0.09375 1.664062 -0.0507812 1.1875 -0.34375 C 0.71875 -0.644531 0.414062 -1.097656 0.28125 -1.703125 L 1.59375 -1.921875 C 1.6875 -1.578125 1.863281 -1.328125 2.125 -1.171875 C 2.382812 -1.015625 2.742188 -0.9375 3.203125 -0.9375 C 4.160156 -0.9375 4.640625 -1.222656 4.640625 -1.796875 C 4.640625 -1.984375 4.582031 -2.132812 4.46875 -2.25 C 4.363281 -2.375 4.207031 -2.476562 4 -2.5625 C 3.800781 -2.644531 3.421875 -2.742188 2.859375 -2.859375 C 2.367188 -2.972656 2.023438 -3.0625 1.828125 -3.125 C 1.640625 -3.195312 1.46875 -3.28125 1.3125 -3.375 C 1.15625 -3.46875 1.023438 -3.582031 0.921875 -3.71875 C 0.816406 -3.851562 0.734375 -4.007812 0.671875 -4.1875 C 0.609375 -4.363281 0.578125 -4.570312 0.578125 -4.8125 C 0.578125 -5.394531 0.796875 -5.84375 1.234375 -6.15625 C 1.679688 -6.476562 2.332031 -6.640625 3.1875 -6.640625 C 3.988281 -6.640625 4.59375 -6.507812 5 -6.25 C 5.414062 -6 5.679688 -5.582031 5.796875 -5 L 4.46875 -4.8125 C 4.394531 -5.09375 4.253906 -5.300781 4.046875 -5.4375 C 3.835938 -5.582031 3.539062 -5.65625 3.15625 -5.65625 C 2.320312 -5.65625 1.90625 -5.398438 1.90625 -4.890625 C 1.90625 -4.710938 1.945312 -4.570312 2.03125 -4.46875 C 2.125 -4.363281 2.253906 -4.269531 2.421875 -4.1875 C 2.597656 -4.113281 2.953125 -4.019531 3.484375 -3.90625 C 4.117188 -3.769531 4.566406 -3.644531 4.828125 -3.53125 C 5.097656 -3.425781 5.3125 -3.296875 5.46875 -3.140625 C 5.632812 -2.992188 5.757812 -2.816406 5.84375 -2.609375 C 5.925781 -2.398438 5.96875 -2.160156 5.96875 -1.890625 Z M 5.96875 -1.890625 "/></g></g></g></svg>