<svg xmlns="http://www.w3.org/2000/svg" xmlns:xlink="http://www.w3.org/1999/xlink" width="1920" zoomAndPan="magnify" viewBox="0 0 1440 809.999993" height="1080" preserveAspectRatio="xMidYMid meet" version="1.0"><defs><g/><clipPath id="e7a3a17733"><path d="M 28.0625 228.257812 L 492.96875 228.257812 L 492.96875 693.167969 L 28.0625 693.167969 Z M 28.0625 228.257812 " clip-rule="nonzero"/></clipPath><clipPath id="3469b7fad9"><path d="M 69 267 L 376 267 L 376 602 L 69 602 Z M 69 267 " clip-rule="nonzero"/></clipPath><clipPath id="d733a8ef08"><path d="M -47.910156 373 L 303.257812 177.71875 L 435.597656 415.703125 L 84.429688 610.984375 Z M -47.910156 373 " clip-rule="nonzero"/></clipPath><clipPath id="801d649be1"><path d="M -47.910156 373 L 303.257812 177.71875 L 435.597656 415.703125 L 84.429688 610.984375 Z M -47.910156 373 " clip-rule="nonzero"/></clipPath><clipPath id="076afda7b8"><path d="M 217 326 L 397 326 L 397 674 L 217 674 Z M 217 326 " clip-rule="nonzero"/></clipPath><clipPath id="ab9354cda0"><path d="M 48.472656 457.386719 L 202.679688 326.035156 L 396.476562 553.558594 L 242.265625 684.910156 Z M 48.472656 457.386719 " clip-rule="nonzero"/></clipPath><clipPath id="7c1ddbd594"><path d="M 48.472656 457.386719 L 384.699219 171 L 578.492188 398.519531 L 242.265625 684.910156 Z M 48.472656 457.386719 " clip-rule="nonzero"/></clipPath><clipPath id="38abe37938"><path d="M 359 351.796875 L 592 351.796875 L 592 610.820312 L 359 610.820312 Z M 359 351.796875 " clip-rule="nonzero"/></clipPath></defs><g clip-path="url(#e7a3a17733)"><path fill="#002885" d="M 264.476562 694.054688 C 294.925781 693.613281 325.15625 687.191406 352.953125 675.230469 C 380.746094 663.273438 406.214844 645.996094 427.363281 624.515625 C 448.511719 603.035156 465.566406 577.453125 476.972656 549.660156 C 488.488281 521.867188 494.355469 491.746094 494.355469 461.628906 C 494.355469 491.746094 488.378906 521.867188 476.859375 549.660156 C 465.34375 577.453125 448.070312 602.921875 426.699219 623.960938 C 405.328125 645.113281 379.75 661.832031 351.953125 673.015625 C 324.160156 684.199219 294.152344 689.625 264.363281 689.183594 C 234.578125 688.742188 205.011719 682.316406 177.773438 670.582031 C 150.644531 658.84375 125.839844 641.679688 105.351562 620.640625 C 84.757812 599.601562 68.367188 574.574219 57.40625 547.335938 C 46.332031 520.207031 40.683594 490.859375 40.683594 461.628906 C 40.683594 432.285156 46.332031 403.050781 57.40625 375.921875 C 68.480469 348.792969 84.867188 323.765625 105.351562 302.726562 C 125.949219 281.6875 150.644531 264.523438 177.773438 252.785156 C 205.125 240.828125 234.6875 234.515625 264.476562 234.070312 C 294.261719 233.628906 324.273438 239.054688 352.066406 250.238281 C 379.859375 261.3125 405.4375 278.144531 426.921875 299.292969 C 448.292969 320.445312 465.457031 345.800781 477.082031 373.59375 C 488.710938 401.390625 494.578125 431.507812 494.578125 461.628906 C 494.578125 431.507812 488.710938 401.390625 477.195312 373.59375 C 465.675781 345.691406 448.734375 320.222656 427.585938 298.738281 C 406.433594 277.257812 380.964844 259.871094 353.171875 248.023438 C 325.15625 235.84375 294.925781 229.53125 264.476562 228.976562 C 234.023438 228.535156 203.351562 233.960938 174.894531 245.367188 C 146.433594 256.660156 120.082031 273.714844 98.042969 295.195312 C 76.007812 316.679688 58.292969 342.699219 46.222656 371.160156 C 34.261719 399.617188 28.0625 430.621094 28.0625 461.515625 C 28.0625 492.410156 34.261719 523.417969 46.332031 551.875 C 58.292969 580.332031 76.121094 606.355469 98.15625 627.835938 C 120.191406 649.320312 146.433594 666.371094 175.003906 677.667969 C 203.351562 689.074219 234.023438 694.5 264.476562 694.054688 Z M 264.476562 694.054688 " fill-opacity="1" fill-rule="nonzero"/></g><g clip-path="url(#3469b7fad9)"><g clip-path="url(#d733a8ef08)"><g clip-path="url(#801d649be1)"><path fill="#002885" d="M 152.753906 463.292969 C 141.46875 485.195312 130.839844 507.359375 119.640625 529.214844 C 115.101562 538.035156 110.46875 546.792969 105.675781 555.46875 C 99.257812 551.023438 90.8125 549.425781 81.957031 553.261719 C 81.320312 553.558594 80.777344 553.917969 80.304688 554.410156 C 79.707031 554.570312 79.136719 554.886719 78.617188 555.289062 C 67.757812 563.960938 67.457031 578.039062 73.261719 588.375 C 79.410156 599.324219 91.992188 605.890625 105.097656 598.375 C 118.988281 590.421875 120.128906 576.105469 114.324219 565.253906 C 113.03125 562.824219 111.34375 560.617188 109.398438 558.664062 C 114.355469 549.667969 119.199219 540.566406 123.859375 531.449219 C 134.765625 510.097656 145.152344 488.527344 156.128906 467.199219 C 162.875 473.460938 172.472656 475.796875 182.410156 470.097656 C 196.304688 462.144531 197.445312 447.828125 191.636719 436.976562 C 187.296875 428.859375 178.945312 422.796875 169.140625 422.871094 C 166.515625 396.742188 164.25 370.640625 161.539062 344.5625 C 160.515625 335 159.449219 325.460938 158.3125 315.90625 C 159.277344 315.480469 160.246094 315.058594 161.183594 314.480469 C 169.285156 309.804688 173.039062 302.964844 173.601562 295.953125 C 177.957031 296.679688 182.339844 297.5625 186.664062 298.648438 C 197.554688 301.351562 208.347656 304.910156 219.046875 307.886719 C 217.136719 314.847656 218.386719 322.449219 221.90625 328.675781 C 227.226562 338.140625 237.351562 344.300781 248.464844 340.925781 C 251.480469 347.890625 254.582031 354.808594 257.773438 361.679688 C 261.0625 368.722656 264.4375 375.714844 267.898438 382.664062 C 259.75 391.375 260.027344 403.8125 265.253906 413.210938 C 271.398438 424.160156 283.980469 430.730469 297.085938 423.210938 C 310.980469 415.257812 312.121094 400.941406 306.316406 390.089844 C 300.511719 379.351562 287.769531 372.183594 273.945312 378.097656 C 273.308594 378.394531 272.765625 378.753906 272.292969 379.246094 C 272.09375 379.300781 271.902344 379.464844 271.726562 379.5625 C 268.457031 372.964844 265.234375 366.34375 262.140625 359.648438 C 258.976562 352.824219 255.898438 345.949219 252.886719 339.097656 C 253.191406 338.925781 253.480469 338.824219 253.742188 338.679688 C 263.941406 332.832031 267.253906 323.550781 266.015625 314.738281 C 274.386719 314.664062 282.722656 314.320312 291.03125 313.820312 C 303.269531 313.082031 315.46875 311.964844 327.691406 310.777344 C 327.429688 316.074219 328.832031 321.476562 331.40625 326.109375 C 337.554688 337.058594 350.136719 343.628906 363.242188 336.113281 C 377.132812 328.15625 378.273438 313.84375 372.46875 302.992188 C 366.667969 292.25 353.925781 285.085938 340.101562 291 C 339.464844 291.292969 338.921875 291.65625 338.449219 292.144531 C 337.851562 292.304688 337.285156 292.621094 336.761719 293.027344 C 332.285156 296.601562 329.59375 301.132812 328.417969 305.910156 C 315.835938 307.066406 303.328125 308.242188 290.753906 308.996094 C 282.175781 309.527344 273.546875 309.863281 264.886719 309.929688 C 264.394531 308.429688 263.722656 306.914062 262.988281 305.488281 C 257.1875 294.75 244.445312 287.582031 230.621094 293.496094 C 229.984375 293.792969 229.4375 294.152344 228.96875 294.644531 C 228.371094 294.804688 227.800781 295.121094 227.28125 295.523438 C 224.425781 297.800781 222.304688 300.46875 220.863281 303.328125 C 209.957031 300.292969 198.984375 296.722656 187.890625 293.960938 C 183.117188 292.78125 178.324219 291.78125 173.566406 291.050781 C 173.171875 287.664062 172.085938 284.375 170.453125 281.335938 C 164.652344 270.59375 151.910156 263.429688 138.085938 269.34375 C 137.449219 269.640625 136.90625 270 136.433594 270.488281 C 135.835938 270.652344 135.265625 270.964844 134.746094 271.371094 C 123.886719 280.042969 123.585938 294.117188 129.390625 304.457031 C 134.347656 313.261719 143.453125 319.246094 153.714844 317.316406 C 154.835938 326.539062 155.871094 335.808594 156.855469 344.992188 C 159.566406 371.070312 161.832031 397.171875 164.457031 423.300781 C 162.773438 423.664062 161.070312 424.210938 159.355469 424.933594 C 158.71875 425.230469 158.175781 425.589844 157.707031 426.082031 C 157.109375 426.242188 156.539062 426.558594 156.019531 426.960938 C 145.160156 435.636719 144.859375 449.710938 150.664062 460.046875 C 151.296875 461.183594 152.015625 462.273438 152.753906 463.292969 Z M 100.027344 589.460938 C 92.640625 593.683594 85.742188 589.507812 82.269531 583.367188 C 78.792969 577.113281 78.507812 568.574219 85.039062 563.335938 C 85.191406 563.195312 85.339844 563.054688 85.492188 562.914062 C 85.648438 562.886719 85.824219 562.789062 86.023438 562.734375 C 94.285156 559.167969 101.828125 563.675781 105.289062 570.105469 C 108.746094 576.425781 108.152344 584.828125 100.027344 589.460938 Z M 277.527344 387.726562 C 277.679688 387.699219 277.855469 387.601562 278.054688 387.546875 C 286.316406 383.980469 293.859375 388.488281 297.324219 394.917969 C 300.734375 401.265625 300.117188 409.621094 292.058594 414.273438 C 284.675781 418.496094 277.773438 414.320312 274.300781 408.179688 C 270.824219 401.925781 270.539062 393.386719 277.074219 388.148438 C 277.222656 388.007812 277.398438 387.910156 277.527344 387.726562 Z M 343.179688 300.960938 C 343.332031 300.820312 343.480469 300.679688 343.632812 300.539062 C 343.789062 300.511719 343.960938 300.414062 344.160156 300.359375 C 352.425781 296.792969 359.96875 301.300781 363.429688 307.730469 C 366.84375 314.074219 366.222656 322.433594 358.164062 327.085938 C 350.78125 331.308594 343.878906 327.132812 340.410156 320.992188 C 336.890625 314.761719 336.605469 306.222656 343.179688 300.960938 Z M 233.703125 303.570312 C 233.855469 303.429688 234.003906 303.289062 234.15625 303.148438 C 234.3125 303.121094 234.484375 303.023438 234.683594 302.96875 C 242.949219 299.40625 250.492188 303.910156 253.953125 310.34375 C 257.367188 316.6875 256.75 325.042969 248.691406 329.695312 C 241.304688 333.917969 234.359375 329.765625 230.933594 323.601562 C 227.414062 317.375 227.128906 308.832031 233.703125 303.570312 Z M 141.167969 279.417969 C 141.320312 279.277344 141.46875 279.136719 141.621094 278.996094 C 141.777344 278.964844 141.953125 278.867188 142.152344 278.816406 C 150.414062 275.25 157.957031 279.757812 161.417969 286.1875 C 164.832031 292.53125 164.214844 300.890625 156.15625 305.542969 C 148.769531 309.761719 141.828125 305.613281 138.398438 299.445312 C 134.855469 293.175781 134.570312 284.632812 141.167969 279.417969 Z M 162.398438 435.035156 C 162.546875 434.894531 162.699219 434.753906 162.847656 434.613281 C 163.046875 434.558594 163.179688 434.484375 163.378906 434.433594 C 171.640625 430.867188 179.183594 435.375 182.648438 441.804688 C 186.058594 448.148438 185.441406 456.507812 177.382812 461.160156 C 170 465.378906 163.054688 461.226562 159.625 455.0625 C 156.082031 448.792969 155.839844 440.226562 162.398438 435.035156 Z M 162.398438 435.035156 " fill-opacity="1" fill-rule="evenodd"/></g></g></g><g clip-path="url(#076afda7b8)"><g clip-path="url(#ab9354cda0)"><g clip-path="url(#7c1ddbd594)"><path fill="#002885" d="M 284.296875 511.347656 C 276.863281 537.398438 270.203125 563.59375 262.855469 589.574219 C 259.871094 600.066406 256.769531 610.507812 253.480469 620.898438 C 245.597656 617.496094 236.148438 617.597656 227.433594 623.648438 C 226.808594 624.105469 226.300781 624.613281 225.898438 625.242188 C 225.289062 625.546875 224.746094 626.011719 224.273438 626.558594 C 214.441406 638.253906 217.160156 653.496094 225.65625 663.382812 C 234.648438 673.855469 249.632812 678.214844 262.136719 667.277344 C 275.394531 655.699219 273.527344 640.019531 264.921875 629.578125 C 263 627.238281 260.703125 625.21875 258.1875 623.535156 C 261.585938 612.765625 264.832031 601.90625 267.886719 591.070312 C 275.027344 565.695312 281.558594 540.195312 288.777344 514.824219 C 297.40625 520.121094 308.253906 520.558594 317.738281 512.265625 C 330.992188 500.6875 329.125 485.007812 320.519531 474.566406 C 314.085938 466.753906 303.773438 462.027344 293.21875 464.226562 C 284.734375 436.625 276.648438 408.976562 268.082031 381.449219 C 264.910156 371.363281 261.695312 361.3125 258.40625 351.253906 C 259.355469 350.589844 260.308594 349.925781 261.191406 349.097656 C 268.914062 342.304688 271.480469 334.121094 270.574219 326.4375 C 275.425781 326.28125 280.34375 326.285156 285.238281 326.519531 C 297.5625 327.078125 309.96875 328.578125 322.148438 329.476562 C 321.589844 337.390625 324.585938 345.316406 329.726562 351.269531 C 337.507812 360.320312 349.753906 364.769531 361.007812 358.726562 C 365.765625 365.585938 370.605469 372.371094 375.53125 379.085938 C 380.597656 385.96875 385.75 392.777344 390.984375 399.519531 C 384.082031 410.671875 387.070312 424.019531 394.738281 433.023438 C 403.734375 443.496094 418.71875 447.855469 431.222656 436.917969 C 444.476562 425.339844 442.609375 409.660156 434.003906 399.21875 C 425.429688 388.894531 410.140625 383.925781 396.515625 393.289062 C 395.894531 393.746094 395.386719 394.253906 394.984375 394.882812 C 394.78125 394.984375 394.605469 395.203125 394.4375 395.347656 C 389.488281 388.941406 384.582031 382.503906 379.800781 375.953125 C 374.910156 369.28125 370.105469 362.539062 365.378906 355.800781 C 365.671875 355.550781 365.957031 355.378906 366.207031 355.164062 C 375.941406 346.65625 377.5 335.933594 374.261719 326.703125 C 383.269531 324.808594 392.183594 322.632812 401.03125 320.300781 C 414.066406 316.855469 426.976562 313.011719 439.890625 309.089844 C 440.757812 314.855469 443.4375 320.378906 447.21875 324.816406 C 456.210938 335.289062 471.195312 339.648438 483.699219 328.710938 C 496.953125 317.132812 495.089844 301.453125 486.480469 291.011719 C 477.90625 280.6875 462.617188 275.71875 448.992188 285.082031 C 448.371094 285.539062 447.863281 286.046875 447.460938 286.675781 C 446.851562 286.980469 446.308594 287.441406 445.835938 287.992188 C 441.78125 292.816406 439.859375 298.28125 439.621094 303.683594 C 426.3125 307.652344 413.082031 311.628906 399.6875 315.160156 C 390.558594 317.589844 381.328125 319.816406 372.003906 321.761719 C 371.148438 320.25 370.097656 318.761719 369 317.382812 C 360.421875 307.0625 345.132812 302.089844 331.507812 311.457031 C 330.886719 311.914062 330.378906 312.421875 329.976562 313.050781 C 329.367188 313.355469 328.824219 313.816406 328.351562 314.363281 C 325.761719 317.433594 324.054688 320.769531 323.117188 324.167969 C 310.707031 323.253906 298.105469 321.777344 285.546875 321.199219 C 280.144531 320.960938 274.761719 320.921875 269.476562 321.160156 C 268.316406 317.597656 266.4375 314.285156 264.019531 311.359375 C 255.441406 301.039062 240.15625 296.066406 226.527344 305.433594 C 225.90625 305.890625 225.398438 306.398438 224.996094 307.027344 C 224.386719 307.332031 223.84375 307.792969 223.371094 308.339844 C 213.539062 320.039062 216.257812 335.277344 224.753906 345.167969 C 232 353.589844 243.113281 358.070312 253.757812 353.769531 C 256.960938 363.46875 260.078125 373.238281 263.128906 382.925781 C 271.691406 410.453125 279.78125 438.101562 288.261719 465.703125 C 286.523438 466.460938 284.808594 467.414062 283.117188 468.566406 C 282.492188 469.023438 281.984375 469.53125 281.582031 470.160156 C 280.972656 470.464844 280.429688 470.925781 279.957031 471.472656 C 270.125 483.171875 272.84375 498.414062 281.339844 508.300781 C 282.265625 509.390625 283.277344 510.40625 284.296875 511.347656 Z M 254.742188 658.765625 C 247.695312 664.914062 239.351562 661.902344 234.28125 656.035156 C 229.179688 650.046875 227.027344 640.902344 232.9375 633.84375 C 233.066406 633.660156 233.199219 633.476562 233.332031 633.289062 C 233.492188 633.226562 233.660156 633.082031 233.863281 632.980469 C 242 627.351562 251.105469 630.578125 256.230469 636.761719 C 261.324219 642.828125 262.5 652.011719 254.742188 658.765625 Z M 402.457031 402.894531 C 402.617188 402.832031 402.785156 402.6875 402.988281 402.585938 C 411.125 396.957031 420.234375 400.183594 425.355469 406.367188 C 430.40625 412.46875 431.546875 421.613281 423.867188 428.371094 C 416.820312 434.515625 408.476562 431.507812 403.40625 425.640625 C 398.308594 419.652344 396.152344 410.507812 402.0625 403.449219 C 402.195312 403.265625 402.363281 403.121094 402.457031 402.894531 Z M 454.46875 295.160156 C 454.601562 294.972656 454.730469 294.789062 454.863281 294.605469 C 455.023438 294.539062 455.191406 294.398438 455.394531 294.296875 C 463.53125 288.667969 472.640625 291.890625 477.761719 298.078125 C 482.8125 304.175781 483.957031 313.320312 476.273438 320.078125 C 469.226562 326.226562 460.882812 323.21875 455.8125 317.351562 C 450.671875 311.398438 448.515625 302.25 454.46875 295.160156 Z M 337.015625 321.652344 C 337.144531 321.46875 337.277344 321.28125 337.410156 321.097656 C 337.570312 321.035156 337.738281 320.890625 337.941406 320.789062 C 346.078125 315.160156 355.183594 318.386719 360.308594 324.570312 C 365.359375 330.671875 366.5 339.8125 358.820312 346.574219 C 351.773438 352.71875 343.386719 349.746094 338.359375 343.84375 C 333.21875 337.890625 331.0625 328.746094 337.015625 321.652344 Z M 232.035156 315.628906 C 232.164062 315.445312 232.296875 315.257812 232.429688 315.074219 C 232.589844 315.011719 232.757812 314.867188 232.960938 314.765625 C 241.097656 309.136719 250.203125 312.363281 255.328125 318.546875 C 260.378906 324.648438 261.519531 333.789062 253.839844 340.550781 C 246.792969 346.695312 238.40625 343.722656 233.378906 337.820312 C 228.199219 331.824219 226.046875 322.679688 232.035156 315.628906 Z M 288.578125 478.796875 C 288.710938 478.613281 288.84375 478.429688 288.972656 478.242188 C 289.175781 478.144531 289.300781 478.035156 289.503906 477.933594 C 297.644531 472.304688 306.75 475.53125 311.871094 481.714844 C 316.925781 487.816406 318.066406 496.960938 310.382812 503.71875 C 303.335938 509.867188 294.953125 506.894531 289.921875 500.988281 C 284.746094 494.996094 282.632812 485.8125 288.578125 478.796875 Z M 288.578125 478.796875 " fill-opacity="1" fill-rule="evenodd"/></g></g></g><path fill="#ad1d1d" d="M 401.871094 509.226562 L 427.628906 502.523438 L 427.851562 496.375 L 423.964844 496.230469 L 423.847656 499.488281 L 401.023438 505.429688 L 372.269531 510.824219 L 355.984375 523.488281 L 358.375 526.558594 L 373.914062 514.472656 Z M 401.871094 509.226562 " fill-opacity="1" fill-rule="nonzero"/><path fill="#ad1d1d" d="M 550.328125 505.460938 L 527.371094 499.488281 L 527.253906 496.230469 L 523.363281 496.375 L 523.589844 502.523438 L 549.480469 509.253906 L 577.304688 514.472656 L 592.84375 526.558594 L 595.234375 523.488281 L 578.949219 510.824219 Z M 550.328125 505.460938 " fill-opacity="1" fill-rule="nonzero"/><g clip-path="url(#38abe37938)"><path fill="#ad1d1d" d="M 566.671875 607.617188 L 534.15625 575.542969 L 509.378906 532.074219 L 511.15625 500.054688 L 483.953125 467.554688 C 500.15625 476.992188 526.332031 491.980469 536.796875 496.515625 C 552.441406 503.300781 579.796875 488.441406 589.058594 483.164062 C 598.316406 477.886719 577.355469 469.957031 577.355469 469.957031 L 491.117188 461.582031 L 521.898438 456.578125 L 522.074219 461.449219 L 525.964844 461.308594 L 525.621094 452.03125 L 486.429688 458.402344 L 523.925781 432.023438 L 514.882812 409.414062 L 537.515625 373.542969 L 570.234375 355.222656 L 568.335938 351.828125 L 534.753906 370.632812 L 510.535156 409.019531 L 519.175781 430.609375 L 486.910156 453.308594 C 487.875 450.574219 488.425781 447.453125 488.425781 444.136719 C 488.425781 437.625 486.3125 431.878906 483.074219 428.347656 C 490.632812 402.515625 508.015625 384.398438 508.210938 384.199219 L 505.421875 381.484375 C 504.617188 382.3125 487.746094 399.882812 479.785156 425.761719 C 479.070312 425.386719 478.320312 425.109375 477.554688 424.933594 L 477.554688 365.164062 L 473.667969 365.164062 L 473.667969 424.9375 C 472.898438 425.113281 472.152344 425.390625 471.433594 425.765625 C 463.472656 399.886719 446.601562 382.316406 445.796875 381.488281 L 443.011719 384.203125 C 443.207031 384.398438 460.585938 402.488281 468.144531 428.347656 C 464.910156 431.878906 462.792969 437.628906 462.792969 444.136719 C 462.792969 447.457031 463.34375 450.578125 464.3125 453.3125 L 432.046875 430.613281 L 440.683594 409.019531 L 416.464844 370.632812 L 382.882812 351.828125 L 380.984375 355.222656 L 413.703125 373.542969 L 436.335938 409.414062 L 427.292969 432.023438 L 464.785156 458.402344 L 425.59375 452.027344 L 425.253906 461.304688 L 429.140625 461.449219 L 429.320312 456.574219 L 460.101562 461.578125 L 373.859375 469.957031 C 373.859375 469.957031 352.902344 477.886719 362.160156 483.164062 C 371.421875 488.441406 398.773438 503.300781 414.421875 496.515625 C 424.886719 491.980469 451.0625 476.992188 467.265625 467.554688 L 440.058594 500.054688 L 441.835938 532.074219 L 417.058594 575.542969 L 384.542969 607.617188 L 387.277344 610.390625 L 419.984375 578.125 L 420.175781 577.933594 L 445.503906 533.503906 L 445.785156 533.003906 L 444.027344 501.375 L 468.199219 472.503906 C 466.402344 481.945312 465.296875 494.792969 465.296875 508.964844 C 465.296875 537.933594 469.914062 561.414062 475.609375 561.414062 C 481.304688 561.414062 485.921875 537.933594 485.921875 508.964844 C 485.921875 494.792969 484.816406 481.945312 483.019531 472.503906 L 507.1875 501.375 L 505.433594 533.003906 L 531.042969 577.9375 L 563.941406 610.390625 Z M 566.671875 607.617188 " fill-opacity="1" fill-rule="nonzero"/></g><g fill="#002885" fill-opacity="1"><g transform="translate(654.482107, 493.945305)"><g><path d="M 49.484375 0 C 43.648438 0 39.476562 -3.21875 36.96875 -9.65625 L 0.609375 -105.625 L 22.328125 -105.625 L 50.09375 -26.40625 L 50.390625 -26.40625 L 78.3125 -105.625 L 99.890625 -105.625 L 59.296875 0 Z M 49.484375 0 "/></g></g></g><g fill="#002885" fill-opacity="1"><g transform="translate(754.987437, 493.945305)"><g><path d="M 13.578125 -105.625 L 24.75 -105.625 L 24.75 0 L 13.578125 0 Z M 13.578125 -105.625 "/></g></g></g><g fill="#002885" fill-opacity="1"><g transform="translate(793.312958, 493.945305)"><g><path d="M 43.609375 1.203125 C 36.671875 1.203125 30.609375 -0.378906 25.421875 -3.546875 C 20.242188 -6.710938 16.21875 -11.210938 13.34375 -17.046875 C 10.476562 -22.878906 9.046875 -29.570312 9.046875 -37.125 L 9.046875 -68.5 C 9.046875 -76.050781 10.53125 -82.71875 13.5 -88.5 C 16.46875 -94.28125 20.617188 -98.78125 25.953125 -102 C 31.285156 -105.21875 37.421875 -106.828125 44.359375 -106.828125 L 60.359375 -106.828125 C 66.992188 -106.828125 72.851562 -105.414062 77.9375 -102.59375 C 83.019531 -99.78125 86.96875 -95.804688 89.78125 -90.671875 C 92.59375 -85.546875 94 -79.664062 94 -73.03125 L 83.140625 -73.03125 C 83.140625 -80.175781 81.050781 -85.9375 76.875 -90.3125 C 72.695312 -94.6875 67.191406 -96.875 60.359375 -96.875 L 44.359375 -96.875 C 37.117188 -96.875 31.285156 -94.28125 26.859375 -89.09375 C 22.429688 -83.914062 20.21875 -77.050781 20.21875 -68.5 L 20.21875 -37.125 C 20.21875 -28.570312 22.351562 -21.703125 26.625 -16.515625 C 30.90625 -11.335938 36.566406 -8.75 43.609375 -8.75 L 59.90625 -8.75 C 67.039062 -8.75 72.820312 -11.210938 77.25 -16.140625 C 81.675781 -21.066406 83.890625 -27.554688 83.890625 -35.609375 L 83.890625 -44.65625 L 54.625 -44.65625 L 54.625 -54.46875 L 94.765625 -54.46875 L 94.765625 -35.609375 C 94.765625 -28.367188 93.328125 -21.957031 90.453125 -16.375 C 87.585938 -10.789062 83.515625 -6.460938 78.234375 -3.390625 C 72.953125 -0.328125 66.84375 1.203125 59.90625 1.203125 Z M 43.609375 1.203125 "/></g></g></g><g fill="#002885" fill-opacity="1"><g transform="translate(896.52032, 493.945305)"><g><path d="M 13.578125 -105.625 L 24.75 -105.625 L 24.75 0 L 13.578125 0 Z M 13.578125 -105.625 "/></g></g></g><g fill="#002885" fill-opacity="1"><g transform="translate(934.845841, 493.945305)"><g><path d="M 71.96875 -29.265625 L 25.65625 -29.265625 L 14.78125 0 L 3.3125 0 L 43.90625 -105.625 L 49.046875 -105.625 C 52.359375 -105.625 54.769531 -103.613281 56.28125 -99.59375 L 79.515625 -38.625 L 79.671875 -38.625 L 79.671875 -38.328125 L 94.3125 0 L 82.84375 0 Z M 29.125 -38.625 L 68.5 -38.625 L 48.890625 -91.140625 L 48.734375 -91.140625 Z M 29.125 -38.625 "/></g></g></g><g fill="#002885" fill-opacity="1"><g transform="translate(1032.479696, 493.945305)"><g><path d="M 23.984375 0 C 19.660156 0 16.140625 -1.304688 13.421875 -3.921875 C 10.710938 -6.535156 9.359375 -9.957031 9.359375 -14.1875 L 9.359375 -105.625 L 89.9375 -105.625 L 89.9375 -87.515625 L 30.171875 -87.515625 L 30.171875 -63.078125 L 85.40625 -63.078125 L 85.40625 -44.96875 L 30.171875 -44.96875 L 30.171875 -18.109375 L 89.9375 -18.109375 L 89.9375 0 Z M 23.984375 0 "/></g></g></g><g fill="#002885" fill-opacity="1"><g transform="translate(1127.277461, 493.945305)"><g><path d="M 21.875 0 C 18.757812 0 16.347656 -0.851562 14.640625 -2.5625 C 12.929688 -4.269531 12.078125 -6.6875 12.078125 -9.8125 L 12.078125 -105.625 L 55.828125 -105.625 C 63.273438 -105.625 69.8125 -104.1875 75.4375 -101.3125 C 81.070312 -98.445312 85.445312 -94.375 88.5625 -89.09375 C 91.6875 -83.8125 93.25 -77.753906 93.25 -70.921875 L 93.25 -37.71875 C 93.25 -25.34375 90.128906 -15.960938 83.890625 -9.578125 C 77.660156 -3.191406 68.507812 0 56.4375 0 Z M 56.125 -9.953125 C 64.675781 -9.953125 71.140625 -12.289062 75.515625 -16.96875 C 79.890625 -21.644531 82.078125 -28.5625 82.078125 -37.71875 L 82.078125 -70.921875 C 82.078125 -78.265625 79.640625 -84.222656 74.765625 -88.796875 C 69.890625 -93.378906 63.476562 -95.671875 55.53125 -95.671875 L 23.234375 -95.671875 L 23.234375 -9.953125 Z M 56.125 -9.953125 "/></g></g></g><g fill="#002885" fill-opacity="1"><g transform="translate(1228.975942, 493.945305)"><g><path d="M 21.875 0 C 18.757812 0 16.347656 -0.878906 14.640625 -2.640625 C 12.929688 -4.398438 12.078125 -6.835938 12.078125 -9.953125 L 12.078125 -105.625 L 82.984375 -105.625 L 82.984375 -95.96875 L 23.234375 -95.96875 L 23.234375 -58.84375 L 78.46875 -58.84375 L 78.46875 -49.1875 L 23.234375 -49.1875 L 23.234375 -9.65625 L 82.984375 -9.65625 L 82.984375 0 Z M 21.875 0 "/></g></g></g><g fill="#002885" fill-opacity="1"><g transform="translate(1319.508713, 493.945305)"><g><path d="M 39.078125 1.203125 C 33.046875 1.203125 27.710938 -0.078125 23.078125 -2.640625 C 18.453125 -5.203125 14.859375 -8.820312 12.296875 -13.5 C 9.734375 -18.175781 8.453125 -23.582031 8.453125 -29.71875 L 19.3125 -29.71875 C 19.3125 -23.488281 21.144531 -18.4375 24.8125 -14.5625 C 28.488281 -10.6875 33.34375 -8.75 39.375 -8.75 L 56.125 -8.75 C 62.0625 -8.75 66.835938 -10.082031 70.453125 -12.75 C 74.078125 -15.414062 75.890625 -18.910156 75.890625 -23.234375 L 75.890625 -32.890625 C 75.890625 -36.316406 74.554688 -39.234375 71.890625 -41.640625 C 69.234375 -44.054688 65.585938 -45.617188 60.953125 -46.328125 L 33.796875 -50.84375 C 26.148438 -52.15625 20.210938 -54.875 15.984375 -59 C 11.765625 -63.125 9.65625 -68.304688 9.65625 -74.546875 L 9.65625 -82.6875 C 9.65625 -90.03125 12.394531 -95.890625 17.875 -100.265625 C 23.363281 -104.640625 30.632812 -106.828125 39.6875 -106.828125 L 56.734375 -106.828125 C 65.285156 -106.828125 72.175781 -104.234375 77.40625 -99.046875 C 82.632812 -93.867188 85.25 -87.054688 85.25 -78.609375 L 74.390625 -78.609375 C 74.390625 -84.140625 72.78125 -88.566406 69.5625 -91.890625 C 66.34375 -95.210938 62.066406 -96.875 56.734375 -96.875 L 39.6875 -96.875 C 33.945312 -96.875 29.367188 -95.585938 25.953125 -93.015625 C 22.535156 -90.453125 20.828125 -87.007812 20.828125 -82.6875 L 20.828125 -74.546875 C 20.828125 -71.023438 22.109375 -68.054688 24.671875 -65.640625 C 27.234375 -63.222656 30.78125 -61.613281 35.3125 -60.8125 L 62.3125 -56.125 C 70.164062 -54.71875 76.253906 -52.023438 80.578125 -48.046875 C 84.898438 -44.078125 87.0625 -39.023438 87.0625 -32.890625 L 87.0625 -23.234375 C 87.0625 -15.890625 84.242188 -9.976562 78.609375 -5.5 C 72.984375 -1.03125 65.59375 1.203125 56.4375 1.203125 Z M 39.078125 1.203125 "/></g></g></g><g fill="#717276" fill-opacity="1"><g transform="translate(687.11799, 540.730111)"><g><path d="M 26.421875 -8.34375 C 26.421875 -5.507812 25.367188 -3.34375 23.265625 -1.84375 C 21.160156 -0.34375 18.078125 0.40625 14.015625 0.40625 C 10.296875 0.40625 7.378906 -0.25 5.265625 -1.5625 C 3.160156 -2.875 1.8125 -4.867188 1.21875 -7.546875 L 7.0625 -8.5 C 7.457031 -6.96875 8.226562 -5.851562 9.375 -5.15625 C 10.53125 -4.46875 12.128906 -4.125 14.171875 -4.125 C 18.410156 -4.125 20.53125 -5.414062 20.53125 -8 C 20.53125 -8.8125 20.285156 -9.484375 19.796875 -10.015625 C 19.304688 -10.554688 18.617188 -11.003906 17.734375 -11.359375 C 16.859375 -11.710938 15.164062 -12.144531 12.65625 -12.65625 C 10.488281 -13.164062 8.976562 -13.570312 8.125 -13.875 C 7.28125 -14.1875 6.515625 -14.550781 5.828125 -14.96875 C 5.148438 -15.382812 4.570312 -15.882812 4.09375 -16.46875 C 3.613281 -17.0625 3.238281 -17.753906 2.96875 -18.546875 C 2.695312 -19.347656 2.5625 -20.257812 2.5625 -21.28125 C 2.5625 -23.894531 3.546875 -25.894531 5.515625 -27.28125 C 7.484375 -28.675781 10.34375 -29.375 14.09375 -29.375 C 17.6875 -29.375 20.378906 -28.8125 22.171875 -27.6875 C 23.972656 -26.570312 25.132812 -24.71875 25.65625 -22.125 L 19.78125 -21.328125 C 19.476562 -22.578125 18.863281 -23.515625 17.9375 -24.140625 C 17.019531 -24.773438 15.695312 -25.09375 13.96875 -25.09375 C 10.300781 -25.09375 8.46875 -23.941406 8.46875 -21.640625 C 8.46875 -20.878906 8.660156 -20.257812 9.046875 -19.78125 C 9.441406 -19.300781 10.019531 -18.894531 10.78125 -18.5625 C 11.550781 -18.226562 13.109375 -17.804688 15.453125 -17.296875 C 18.234375 -16.710938 20.222656 -16.171875 21.421875 -15.671875 C 22.617188 -15.171875 23.566406 -14.585938 24.265625 -13.921875 C 24.960938 -13.253906 25.492188 -12.457031 25.859375 -11.53125 C 26.234375 -10.613281 26.421875 -9.550781 26.421875 -8.34375 Z M 26.421875 -8.34375 "/></g></g></g><g fill="#717276" fill-opacity="1"><g transform="translate(724.533707, 540.730111)"><g><path d="M 30.96875 -14.609375 C 30.96875 -11.597656 30.367188 -8.945312 29.171875 -6.65625 C 27.984375 -4.363281 26.28125 -2.613281 24.0625 -1.40625 C 21.84375 -0.195312 19.253906 0.40625 16.296875 0.40625 C 11.742188 0.40625 8.175781 -0.929688 5.59375 -3.609375 C 3.007812 -6.285156 1.71875 -9.953125 1.71875 -14.609375 C 1.71875 -19.253906 3.003906 -22.875 5.578125 -25.46875 C 8.160156 -28.070312 11.742188 -29.375 16.328125 -29.375 C 20.921875 -29.375 24.507812 -28.054688 27.09375 -25.421875 C 29.675781 -22.796875 30.96875 -19.191406 30.96875 -14.609375 Z M 24.78125 -14.609375 C 24.78125 -17.734375 24.039062 -20.179688 22.5625 -21.953125 C 21.082031 -23.722656 19.003906 -24.609375 16.328125 -24.609375 C 13.617188 -24.609375 11.523438 -23.726562 10.046875 -21.96875 C 8.566406 -20.207031 7.828125 -17.753906 7.828125 -14.609375 C 7.828125 -11.429688 8.582031 -8.925781 10.09375 -7.09375 C 11.613281 -5.269531 13.679688 -4.359375 16.296875 -4.359375 C 19.003906 -4.359375 21.09375 -5.25 22.5625 -7.03125 C 24.039062 -8.8125 24.78125 -11.335938 24.78125 -14.609375 Z M 24.78125 -14.609375 "/></g></g></g><g fill="#717276" fill-opacity="1"><g transform="translate(766.607863, 540.730111)"><g><path d="M 2.8125 0 L 2.8125 -28.953125 L 8.875 -28.953125 L 8.875 -4.6875 L 24.40625 -4.6875 L 24.40625 0 Z M 2.8125 0 "/></g></g></g><g fill="#717276" fill-opacity="1"><g transform="translate(801.663572, 540.730111)"><g><path d="M 14.859375 0.40625 C 10.867188 0.40625 7.816406 -0.5625 5.703125 -2.5 C 3.585938 -4.445312 2.53125 -7.226562 2.53125 -10.84375 L 2.53125 -28.953125 L 8.59375 -28.953125 L 8.59375 -11.328125 C 8.59375 -9.035156 9.132812 -7.296875 10.21875 -6.109375 C 11.3125 -4.921875 12.910156 -4.328125 15.015625 -4.328125 C 17.179688 -4.328125 18.847656 -4.945312 20.015625 -6.1875 C 21.179688 -7.425781 21.765625 -9.207031 21.765625 -11.53125 L 21.765625 -28.953125 L 27.8125 -28.953125 L 27.8125 -11.15625 C 27.8125 -7.488281 26.675781 -4.644531 24.40625 -2.625 C 22.144531 -0.601562 18.960938 0.40625 14.859375 0.40625 Z M 14.859375 0.40625 "/></g></g></g><g fill="#717276" fill-opacity="1"><g transform="translate(841.398254, 540.730111)"><g><path d="M 16.328125 -4.359375 C 19.984375 -4.359375 22.523438 -6.191406 23.953125 -9.859375 L 29.234375 -7.875 C 28.097656 -5.070312 26.429688 -2.988281 24.234375 -1.625 C 22.035156 -0.269531 19.398438 0.40625 16.328125 0.40625 C 11.671875 0.40625 8.070312 -0.910156 5.53125 -3.546875 C 2.988281 -6.179688 1.71875 -9.867188 1.71875 -14.609375 C 1.71875 -19.359375 2.941406 -23.003906 5.390625 -25.546875 C 7.847656 -28.097656 11.40625 -29.375 16.0625 -29.375 C 19.457031 -29.375 22.222656 -28.691406 24.359375 -27.328125 C 26.503906 -25.972656 28.003906 -23.972656 28.859375 -21.328125 L 23.53125 -19.875 C 23.070312 -21.320312 22.179688 -22.472656 20.859375 -23.328125 C 19.535156 -24.179688 17.976562 -24.609375 16.1875 -24.609375 C 13.445312 -24.609375 11.367188 -23.757812 9.953125 -22.0625 C 8.535156 -20.363281 7.828125 -17.878906 7.828125 -14.609375 C 7.828125 -11.273438 8.554688 -8.734375 10.015625 -6.984375 C 11.472656 -5.234375 13.578125 -4.359375 16.328125 -4.359375 Z M 20.3125 4.828125 C 20.3125 6.117188 19.773438 7.09375 18.703125 7.75 C 17.640625 8.40625 16.101562 8.734375 14.09375 8.734375 C 13.476562 8.734375 12.785156 8.691406 12.015625 8.609375 L 12.015625 6.1875 C 12.492188 6.28125 13.070312 6.328125 13.75 6.328125 C 15.625 6.328125 16.5625 5.851562 16.5625 4.90625 C 16.5625 4.425781 16.367188 4.070312 15.984375 3.84375 C 15.597656 3.613281 14.953125 3.5 14.046875 3.5 C 13.523438 3.5 13.171875 3.507812 12.984375 3.53125 L 14.265625 0 L 17.203125 0 L 16.515625 1.6875 C 17.804688 1.75 18.757812 2.0625 19.375 2.625 C 20 3.1875 20.3125 3.921875 20.3125 4.828125 Z M 20.3125 4.828125 "/></g></g></g><g fill="#717276" fill-opacity="1"><g transform="translate(881.132935, 540.730111)"><g><path d="M 30.96875 -14.609375 C 30.96875 -11.597656 30.367188 -8.945312 29.171875 -6.65625 C 27.984375 -4.363281 26.28125 -2.613281 24.0625 -1.40625 C 21.84375 -0.195312 19.253906 0.40625 16.296875 0.40625 C 11.742188 0.40625 8.175781 -0.929688 5.59375 -3.609375 C 3.007812 -6.285156 1.71875 -9.953125 1.71875 -14.609375 C 1.71875 -19.253906 3.003906 -22.875 5.578125 -25.46875 C 8.160156 -28.070312 11.742188 -29.375 16.328125 -29.375 C 20.921875 -29.375 24.507812 -28.054688 27.09375 -25.421875 C 29.675781 -22.796875 30.96875 -19.191406 30.96875 -14.609375 Z M 24.78125 -14.609375 C 24.78125 -17.734375 24.039062 -20.179688 22.5625 -21.953125 C 21.082031 -23.722656 19.003906 -24.609375 16.328125 -24.609375 C 13.617188 -24.609375 11.523438 -23.726562 10.046875 -21.96875 C 8.566406 -20.207031 7.828125 -17.753906 7.828125 -14.609375 C 7.828125 -11.429688 8.582031 -8.925781 10.09375 -7.09375 C 11.613281 -5.269531 13.679688 -4.359375 16.296875 -4.359375 C 19.003906 -4.359375 21.09375 -5.25 22.5625 -7.03125 C 24.039062 -8.8125 24.78125 -11.335938 24.78125 -14.609375 Z M 19.59375 -31.4375 C 18.988281 -31.4375 18.378906 -31.566406 17.765625 -31.828125 C 17.160156 -32.085938 16.570312 -32.378906 16 -32.703125 C 15.425781 -33.023438 14.878906 -33.316406 14.359375 -33.578125 C 13.847656 -33.835938 13.390625 -33.96875 12.984375 -33.96875 C 12.421875 -33.96875 11.988281 -33.804688 11.6875 -33.484375 C 11.394531 -33.171875 11.15625 -32.488281 10.96875 -31.4375 L 8.15625 -31.4375 C 8.257812 -32.976562 8.476562 -34.132812 8.8125 -34.90625 C 9.15625 -35.6875 9.640625 -36.304688 10.265625 -36.765625 C 10.890625 -37.222656 11.722656 -37.453125 12.765625 -37.453125 C 13.390625 -37.453125 14.007812 -37.320312 14.625 -37.0625 C 15.238281 -36.800781 15.832031 -36.507812 16.40625 -36.1875 C 16.976562 -35.863281 17.515625 -35.570312 18.015625 -35.3125 C 18.515625 -35.050781 18.96875 -34.921875 19.375 -34.921875 C 19.914062 -34.921875 20.335938 -35.085938 20.640625 -35.421875 C 20.953125 -35.765625 21.207031 -36.441406 21.40625 -37.453125 L 24.171875 -37.453125 C 24.078125 -35.304688 23.640625 -33.765625 22.859375 -32.828125 C 22.085938 -31.898438 21 -31.4375 19.59375 -31.4375 Z M 19.59375 -31.4375 "/></g></g></g><g fill="#717276" fill-opacity="1"><g transform="translate(923.207098, 540.730111)"><g><path d="M 2.8125 0 L 2.8125 -28.953125 L 25.578125 -28.953125 L 25.578125 -24.265625 L 8.875 -24.265625 L 8.875 -16.984375 L 24.328125 -16.984375 L 24.328125 -12.3125 L 8.875 -12.3125 L 8.875 -4.6875 L 26.421875 -4.6875 L 26.421875 0 Z M 2.8125 0 "/></g></g></g><g fill="#717276" fill-opacity="1"><g transform="translate(960.622821, 540.730111)"><g><path d="M 26.421875 -8.34375 C 26.421875 -5.507812 25.367188 -3.34375 23.265625 -1.84375 C 21.160156 -0.34375 18.078125 0.40625 14.015625 0.40625 C 10.296875 0.40625 7.378906 -0.25 5.265625 -1.5625 C 3.160156 -2.875 1.8125 -4.867188 1.21875 -7.546875 L 7.0625 -8.5 C 7.457031 -6.96875 8.226562 -5.851562 9.375 -5.15625 C 10.53125 -4.46875 12.128906 -4.125 14.171875 -4.125 C 18.410156 -4.125 20.53125 -5.414062 20.53125 -8 C 20.53125 -8.8125 20.285156 -9.484375 19.796875 -10.015625 C 19.304688 -10.554688 18.617188 -11.003906 17.734375 -11.359375 C 16.859375 -11.710938 15.164062 -12.144531 12.65625 -12.65625 C 10.488281 -13.164062 8.976562 -13.570312 8.125 -13.875 C 7.28125 -14.1875 6.515625 -14.550781 5.828125 -14.96875 C 5.148438 -15.382812 4.570312 -15.882812 4.09375 -16.46875 C 3.613281 -17.0625 3.238281 -17.753906 2.96875 -18.546875 C 2.695312 -19.347656 2.5625 -20.257812 2.5625 -21.28125 C 2.5625 -23.894531 3.546875 -25.894531 5.515625 -27.28125 C 7.484375 -28.675781 10.34375 -29.375 14.09375 -29.375 C 17.6875 -29.375 20.378906 -28.8125 22.171875 -27.6875 C 23.972656 -26.570312 25.132812 -24.71875 25.65625 -22.125 L 19.78125 -21.328125 C 19.476562 -22.578125 18.863281 -23.515625 17.9375 -24.140625 C 17.019531 -24.773438 15.695312 -25.09375 13.96875 -25.09375 C 10.300781 -25.09375 8.46875 -23.941406 8.46875 -21.640625 C 8.46875 -20.878906 8.660156 -20.257812 9.046875 -19.78125 C 9.441406 -19.300781 10.019531 -18.894531 10.78125 -18.5625 C 11.550781 -18.226562 13.109375 -17.804688 15.453125 -17.296875 C 18.234375 -16.710938 20.222656 -16.171875 21.421875 -15.671875 C 22.617188 -15.171875 23.566406 -14.585938 24.265625 -13.921875 C 24.960938 -13.253906 25.492188 -12.457031 25.859375 -11.53125 C 26.234375 -10.613281 26.421875 -9.550781 26.421875 -8.34375 Z M 26.421875 -8.34375 "/></g></g></g><g fill="#717276" fill-opacity="1"><g transform="translate(998.038544, 540.730111)"><g/></g></g><g fill="#717276" fill-opacity="1"><g transform="translate(1019.098427, 540.730111)"><g><path d="M 2.8125 0 L 2.8125 -28.953125 L 8.875 -28.953125 L 8.875 0 Z M 2.8125 0 "/></g></g></g><g fill="#717276" fill-opacity="1"><g transform="translate(1040.15831, 540.730111)"><g><path d="M 20.4375 0 L 7.828125 -22.296875 C 8.078125 -20.128906 8.203125 -18.390625 8.203125 -17.078125 L 8.203125 0 L 2.8125 0 L 2.8125 -28.953125 L 9.734375 -28.953125 L 22.53125 -6.46875 C 22.289062 -8.539062 22.171875 -10.425781 22.171875 -12.125 L 22.171875 -28.953125 L 27.546875 -28.953125 L 27.546875 0 Z M 20.4375 0 "/></g></g></g><g fill="#717276" fill-opacity="1"><g transform="translate(1079.892992, 540.730111)"><g><path d="M 15.875 -24.265625 L 15.875 0 L 9.828125 0 L 9.828125 -24.265625 L 0.46875 -24.265625 L 0.46875 -28.953125 L 25.25 -28.953125 L 25.25 -24.265625 Z M 15.875 -24.265625 "/></g></g></g><g fill="#717276" fill-opacity="1"><g transform="translate(1114.948688, 540.730111)"><g><path d="M 2.8125 0 L 2.8125 -28.953125 L 25.578125 -28.953125 L 25.578125 -24.265625 L 8.875 -24.265625 L 8.875 -16.984375 L 24.328125 -16.984375 L 24.328125 -12.3125 L 8.875 -12.3125 L 8.875 -4.6875 L 26.421875 -4.6875 L 26.421875 0 Z M 2.8125 0 "/></g></g></g><g fill="#717276" fill-opacity="1"><g transform="translate(1152.364411, 540.730111)"><g><path d="M 16.5625 -4.328125 C 18.132812 -4.328125 19.660156 -4.554688 21.140625 -5.015625 C 22.617188 -5.484375 23.765625 -6.070312 24.578125 -6.78125 L 24.578125 -10.78125 L 17.5 -10.78125 L 17.5 -15.265625 L 30.125 -15.265625 L 30.125 -4.625 C 28.582031 -3.050781 26.582031 -1.816406 24.125 -0.921875 C 21.664062 -0.0351562 19.085938 0.40625 16.390625 0.40625 C 11.679688 0.40625 8.054688 -0.894531 5.515625 -3.5 C 2.984375 -6.113281 1.71875 -9.816406 1.71875 -14.609375 C 1.71875 -19.378906 2.992188 -23.03125 5.546875 -25.5625 C 8.097656 -28.101562 11.765625 -29.375 16.546875 -29.375 C 23.335938 -29.375 27.65625 -26.863281 29.5 -21.84375 L 23.921875 -20.15625 C 23.316406 -21.625 22.367188 -22.734375 21.078125 -23.484375 C 19.796875 -24.234375 18.285156 -24.609375 16.546875 -24.609375 C 13.691406 -24.609375 11.523438 -23.742188 10.046875 -22.015625 C 8.566406 -20.296875 7.828125 -17.828125 7.828125 -14.609375 C 7.828125 -11.335938 8.585938 -8.804688 10.109375 -7.015625 C 11.640625 -5.222656 13.789062 -4.328125 16.5625 -4.328125 Z M 16.5625 -4.328125 "/></g></g></g><g fill="#717276" fill-opacity="1"><g transform="translate(1194.438573, 540.730111)"><g><path d="M 22.703125 0 L 15.984375 -10.984375 L 8.875 -10.984375 L 8.875 0 L 2.8125 0 L 2.8125 -28.953125 L 17.28125 -28.953125 C 20.726562 -28.953125 23.390625 -28.207031 25.265625 -26.71875 C 27.148438 -25.226562 28.09375 -23.09375 28.09375 -20.3125 C 28.09375 -18.289062 27.515625 -16.539062 26.359375 -15.0625 C 25.210938 -13.59375 23.660156 -12.625 21.703125 -12.15625 L 29.53125 0 Z M 21.984375 -20.078125 C 21.984375 -22.859375 20.203125 -24.25 16.640625 -24.25 L 8.875 -24.25 L 8.875 -15.703125 L 16.8125 -15.703125 C 18.507812 -15.703125 19.796875 -16.082031 20.671875 -16.84375 C 21.546875 -17.613281 21.984375 -18.691406 21.984375 -20.078125 Z M 21.984375 -20.078125 "/></g></g></g><g fill="#717276" fill-opacity="1"><g transform="translate(1234.173255, 540.730111)"><g><path d="M 23.28125 0 L 20.703125 -7.390625 L 9.671875 -7.390625 L 7.109375 0 L 1.046875 0 L 11.609375 -28.953125 L 18.765625 -28.953125 L 29.28125 0 Z M 15.1875 -24.484375 L 15.0625 -24.03125 C 14.925781 -23.539062 14.757812 -22.976562 14.5625 -22.34375 C 14.375 -21.71875 13.195312 -18.253906 11.03125 -11.953125 L 19.359375 -11.953125 L 16.5 -20.28125 L 15.609375 -23.078125 Z M 15.1875 -24.484375 "/></g></g></g><g fill="#717276" fill-opacity="1"><g transform="translate(1273.907937, 540.730111)"><g><path d="M 28.625 -14.6875 C 28.625 -11.707031 28.035156 -9.101562 26.859375 -6.875 C 25.691406 -4.644531 24.035156 -2.941406 21.890625 -1.765625 C 19.742188 -0.585938 17.289062 0 14.53125 0 L 2.8125 0 L 2.8125 -28.953125 L 13.296875 -28.953125 C 18.171875 -28.953125 21.941406 -27.722656 24.609375 -25.265625 C 27.285156 -22.804688 28.625 -19.28125 28.625 -14.6875 Z M 22.515625 -14.6875 C 22.515625 -17.800781 21.707031 -20.175781 20.09375 -21.8125 C 18.476562 -23.445312 16.171875 -24.265625 13.171875 -24.265625 L 8.875 -24.265625 L 8.875 -4.6875 L 14.015625 -4.6875 C 16.617188 -4.6875 18.6875 -5.582031 20.21875 -7.375 C 21.75 -9.164062 22.515625 -11.601562 22.515625 -14.6875 Z M 22.515625 -14.6875 "/></g></g></g><g fill="#717276" fill-opacity="1"><g transform="translate(1313.642619, 540.730111)"><g><path d="M 23.28125 0 L 20.703125 -7.390625 L 9.671875 -7.390625 L 7.109375 0 L 1.046875 0 L 11.609375 -28.953125 L 18.765625 -28.953125 L 29.28125 0 Z M 15.1875 -24.484375 L 15.0625 -24.03125 C 14.925781 -23.539062 14.757812 -22.976562 14.5625 -22.34375 C 14.375 -21.71875 13.195312 -18.253906 11.03125 -11.953125 L 19.359375 -11.953125 L 16.5 -20.28125 L 15.609375 -23.078125 Z M 15.1875 -24.484375 "/></g></g></g><g fill="#717276" fill-opacity="1"><g transform="translate(1353.377301, 540.730111)"><g><path d="M 26.421875 -8.34375 C 26.421875 -5.507812 25.367188 -3.34375 23.265625 -1.84375 C 21.160156 -0.34375 18.078125 0.40625 14.015625 0.40625 C 10.296875 0.40625 7.378906 -0.25 5.265625 -1.5625 C 3.160156 -2.875 1.8125 -4.867188 1.21875 -7.546875 L 7.0625 -8.5 C 7.457031 -6.96875 8.226562 -5.851562 9.375 -5.15625 C 10.53125 -4.46875 12.128906 -4.125 14.171875 -4.125 C 18.410156 -4.125 20.53125 -5.414062 20.53125 -8 C 20.53125 -8.8125 20.285156 -9.484375 19.796875 -10.015625 C 19.304688 -10.554688 18.617188 -11.003906 17.734375 -11.359375 C 16.859375 -11.710938 15.164062 -12.144531 12.65625 -12.65625 C 10.488281 -13.164062 8.976562 -13.570312 8.125 -13.875 C 7.28125 -14.1875 6.515625 -14.550781 5.828125 -14.96875 C 5.148438 -15.382812 4.570312 -15.882812 4.09375 -16.46875 C 3.613281 -17.0625 3.238281 -17.753906 2.96875 -18.546875 C 2.695312 -19.347656 2.5625 -20.257812 2.5625 -21.28125 C 2.5625 -23.894531 3.546875 -25.894531 5.515625 -27.28125 C 7.484375 -28.675781 10.34375 -29.375 14.09375 -29.375 C 17.6875 -29.375 20.378906 -28.8125 22.171875 -27.6875 C 23.972656 -26.570312 25.132812 -24.71875 25.65625 -22.125 L 19.78125 -21.328125 C 19.476562 -22.578125 18.863281 -23.515625 17.9375 -24.140625 C 17.019531 -24.773438 15.695312 -25.09375 13.96875 -25.09375 C 10.300781 -25.09375 8.46875 -23.941406 8.46875 -21.640625 C 8.46875 -20.878906 8.660156 -20.257812 9.046875 -19.78125 C 9.441406 -19.300781 10.019531 -18.894531 10.78125 -18.5625 C 11.550781 -18.226562 13.109375 -17.804688 15.453125 -17.296875 C 18.234375 -16.710938 20.222656 -16.171875 21.421875 -15.671875 C 22.617188 -15.171875 23.566406 -14.585938 24.265625 -13.921875 C 24.960938 -13.253906 25.492188 -12.457031 25.859375 -11.53125 C 26.234375 -10.613281 26.421875 -9.550781 26.421875 -8.34375 Z M 26.421875 -8.34375 "/></g></g></g></svg>