<svg xmlns="http://www.w3.org/2000/svg" xmlns:xlink="http://www.w3.org/1999/xlink" width="1080" zoomAndPan="magnify" viewBox="0 0 810 809.999993" height="1080" preserveAspectRatio="xMidYMid meet" version="1.0"><defs><g/><clipPath id="83d739b1e1"><path d="M 177.117188 280.027344 L 517.851562 280.027344 L 517.851562 670.699219 L 177.117188 670.699219 Z M 177.117188 280.027344 " clip-rule="nonzero"/></clipPath><clipPath id="f7d676283b"><path d="M 175 136 L 521 136 L 521 482 L 175 482 Z M 175 136 " clip-rule="nonzero"/></clipPath><clipPath id="446ef90ba5"><path d="M 235.988281 92.667969 L 728.761719 249.007812 L 573.90625 737.113281 L 81.132812 580.773438 Z M 235.988281 92.667969 " clip-rule="nonzero"/></clipPath><clipPath id="90daf5b16d"><path d="M 235.988281 92.667969 L 728.761719 249.007812 L 573.90625 737.113281 L 81.132812 580.773438 Z M 235.988281 92.667969 " clip-rule="nonzero"/></clipPath><clipPath id="93d07506ef"><path d="M 398 468 L 487 468 L 487 530 L 398 530 Z M 398 468 " clip-rule="nonzero"/></clipPath><clipPath id="4890d4fd88"><path d="M 235.988281 92.667969 L 728.761719 249.007812 L 573.90625 737.113281 L 81.132812 580.773438 Z M 235.988281 92.667969 " clip-rule="nonzero"/></clipPath><clipPath id="f9553a66e2"><path d="M 235.988281 92.667969 L 728.761719 249.007812 L 573.90625 737.113281 L 81.132812 580.773438 Z M 235.988281 92.667969 " clip-rule="nonzero"/></clipPath><clipPath id="35c54943a3"><path d="M 451 526 L 582 526 L 582 730 L 451 730 Z M 451 526 " clip-rule="nonzero"/></clipPath><clipPath id="ac1a0604b8"><path d="M 235.988281 92.667969 L 728.761719 249.007812 L 573.90625 737.113281 L 81.132812 580.773438 Z M 235.988281 92.667969 " clip-rule="nonzero"/></clipPath><clipPath id="d639760d1c"><path d="M 235.988281 92.667969 L 728.761719 249.007812 L 573.90625 737.113281 L 81.132812 580.773438 Z M 235.988281 92.667969 " clip-rule="nonzero"/></clipPath><clipPath id="0a601d3229"><path d="M 224 219 L 360 219 L 360 431 L 224 431 Z M 224 219 " clip-rule="nonzero"/></clipPath><clipPath id="6c81b675e3"><path d="M 235.988281 92.667969 L 728.761719 249.007812 L 573.90625 737.113281 L 81.132812 580.773438 Z M 235.988281 92.667969 " clip-rule="nonzero"/></clipPath><clipPath id="f3f9c7ff6c"><path d="M 235.988281 92.667969 L 728.761719 249.007812 L 573.90625 737.113281 L 81.132812 580.773438 Z M 235.988281 92.667969 " clip-rule="nonzero"/></clipPath><clipPath id="1ac9fac90b"><path d="M 164.808594 151.53125 L 445.820312 151.53125 L 445.820312 381.628906 L 164.808594 381.628906 Z M 164.808594 151.53125 " clip-rule="nonzero"/></clipPath></defs><g clip-path="url(#83d739b1e1)"><path fill="#000000" d="M 427.9375 318.324219 C 429.175781 318.113281 429.601562 317.121094 430.589844 316.996094 C 432.871094 316.730469 434.515625 318.464844 434.710938 321.300781 C 434.800781 322.699219 434.023438 323.90625 434.003906 325.234375 C 433.96875 330.335938 433.96875 335.4375 434.023438 340.539062 C 434.023438 341.28125 434.515625 342.027344 434.570312 342.789062 C 434.675781 344.59375 434.871094 346.367188 434.144531 348.207031 C 433.050781 350.988281 433.597656 353.859375 434.550781 356.605469 C 435.683594 359.863281 436.851562 363.089844 437.945312 366.367188 C 438.140625 366.933594 438.265625 367.78125 438 368.226562 C 436.886719 370.050781 437.839844 371.539062 438.425781 373.203125 C 439.308594 375.753906 439.539062 378.480469 440.476562 381.085938 C 441.164062 382.980469 441.960938 384.839844 442.757812 386.703125 C 443.304688 387.960938 444.3125 389.09375 443.445312 390.632812 C 443.109375 391.238281 443.640625 391.660156 444.1875 391.945312 C 446.628906 393.203125 447.621094 395.699219 448.097656 397.96875 C 448.589844 400.289062 450.042969 402.183594 450.34375 404.523438 C 450.679688 407.179688 452.289062 409.480469 452.550781 412.175781 C 452.660156 413.253906 453.738281 413.714844 454.179688 414.582031 C 455.964844 418.003906 457.292969 421.527344 457.820312 425.425781 C 458.175781 428.082031 459.378906 430.632812 460.402344 433.167969 C 460.953125 434.53125 461.871094 435.734375 461.890625 437.292969 C 461.890625 437.914062 462.136719 438.410156 462.753906 438.621094 C 466.46875 439.949219 467.140625 443.246094 467.867188 446.523438 C 468.058594 447.460938 468.042969 447.460938 469.136719 448.472656 C 469.386719 446.804688 469.597656 445.246094 470.039062 443.707031 C 470.480469 442.164062 469.296875 440.941406 468.273438 439.84375 C 466.628906 438.109375 466.699219 437.222656 468.609375 435.753906 C 472.214844 432.972656 477.378906 434 479.394531 438.054688 C 480.121094 439.488281 481.179688 440.605469 482.136719 441.792969 C 483.972656 444.078125 484.539062 446.984375 486.167969 449.390625 C 487.210938 450.933594 486.980469 453.078125 485.496094 454.707031 C 483.300781 457.117188 481.054688 459.417969 477.625 460.179688 C 478.847656 460.90625 480.242188 460.996094 481.234375 460.535156 C 483.496094 459.488281 485.8125 459.949219 488.113281 459.828125 C 490.003906 459.738281 491.914062 460.074219 493.769531 459.332031 C 494.671875 458.976562 495.609375 459.648438 496.351562 460.054688 C 499.003906 461.5625 501.957031 462.253906 504.785156 463.261719 C 508.871094 464.714844 512.511719 466.699219 514.175781 471.074219 C 514.316406 471.464844 514.546875 471.890625 514.527344 472.28125 C 514.421875 475.75 515.570312 479.097656 515.554688 482.589844 C 515.535156 484.429688 516.191406 486.308594 516.722656 488.117188 C 517.90625 492.15625 516.015625 497.859375 512.566406 500.285156 C 516.191406 503.136719 516.472656 504.910156 513.964844 508.824219 C 513.289062 509.886719 512.511719 510.933594 513.539062 512.277344 C 513.910156 512.773438 513.804688 513.535156 513.46875 514.121094 C 511.984375 516.652344 510.992188 519.523438 508.304688 521.171875 C 507.277344 521.808594 506.820312 522.746094 506.925781 524.039062 C 507.121094 526.167969 505.6875 527.761719 504.769531 529.460938 C 503.902344 531.039062 502.609375 532.402344 501.480469 533.835938 C 500.453125 535.148438 499.144531 535.75 497.429688 535.695312 C 494.601562 535.625 491.773438 535.730469 488.941406 535.730469 C 488.304688 535.730469 487.421875 535.839844 487.105469 535.484375 C 485.386719 533.640625 484.734375 535.003906 483.832031 536.316406 C 482.84375 537.734375 481.234375 538.460938 479.765625 539.257812 C 477.414062 540.53125 475.804688 542.269531 475.078125 544.90625 C 473.789062 549.601562 470.695312 553.375 468.414062 557.574219 C 467.566406 559.132812 466.523438 560.550781 465.230469 561.773438 C 461.605469 565.226562 458.441406 569.085938 455.382812 573.054688 C 454.019531 574.828125 452.625 575.324219 450.042969 575.09375 C 445.710938 574.722656 441.679688 576.546875 439.078125 580.511719 C 437.769531 582.515625 436.601562 584.605469 435.507812 586.730469 C 434.640625 588.414062 433.277344 589.546875 431.246094 589.246094 C 427.902344 588.75 425.410156 590.910156 422.5625 591.957031 C 422.210938 592.082031 421.980469 592.507812 422.105469 592.824219 C 423.164062 595.765625 420.582031 597.128906 419.328125 598.953125 C 417.472656 601.628906 416.214844 604.515625 415.226562 607.582031 C 414.484375 609.867188 413.421875 612.042969 411.546875 613.65625 C 410.273438 614.753906 409.460938 615.925781 409.300781 617.765625 C 409.105469 619.875 407.164062 621.097656 405.625 622.175781 C 402.070312 624.691406 399.84375 628.234375 397.417969 631.671875 C 396.960938 632.328125 396.5 632.894531 395.808594 633.320312 C 393.300781 634.878906 392.433594 637.394531 391.441406 640.035156 C 389.867188 644.230469 391.476562 648.269531 391.585938 652.363281 C 391.65625 655.074219 391.054688 657.074219 388.417969 658.457031 C 386.792969 659.324219 385.5 660.902344 384.210938 662.300781 C 382 664.691406 379.152344 665.578125 376.09375 665.683594 C 373.832031 665.753906 371.640625 665.808594 369.480469 666.621094 C 368.507812 666.996094 368.351562 667.828125 367.890625 668.480469 C 366.511719 670.414062 364.425781 670.730469 363.503906 668.695312 C 361.789062 664.867188 358.339844 665.347656 355.441406 665.082031 C 352.859375 664.851562 350.773438 664.285156 349.164062 662.265625 C 348.210938 661.058594 346.953125 660.316406 345.539062 659.820312 C 344.371094 659.414062 343.328125 658.492188 343.328125 657.464844 C 343.292969 654.382812 341.046875 651.476562 342.761719 648.21875 C 343.507812 646.816406 342.054688 645.453125 340.429688 645.84375 C 339.476562 646.074219 338.554688 646.429688 337.617188 646.746094 C 336.34375 647.171875 335.125 647.3125 334.082031 646.234375 C 333.074219 645.207031 333.214844 644.035156 333.144531 642.636719 C 333.039062 639.996094 334.0625 637.410156 333.480469 634.84375 C 333.199219 633.601562 332.738281 632.433594 332.738281 631.140625 C 332.738281 630.09375 332.101562 629.476562 331.09375 629.226562 C 327.804688 628.414062 325.433594 625.667969 325.1875 622.320312 C 325.082031 620.847656 325.222656 619.414062 325.648438 617.925781 C 326.335938 615.5 326.496094 613.035156 323.933594 611.300781 C 322.835938 610.539062 322.144531 609.40625 321.546875 608.148438 C 319.917969 604.765625 316.628906 602.78125 314.332031 599.945312 C 313.960938 599.484375 313.445312 599.820312 312.96875 599.980469 C 307.910156 601.699219 305.878906 599.308594 304.816406 595.445312 C 304.394531 593.886719 303.792969 592.363281 303.527344 590.789062 C 303.085938 588.253906 301.371094 586.394531 300.273438 584.214844 C 299.601562 582.851562 299.335938 581.503906 299.582031 579.945312 C 299.9375 577.625 299.992188 575.253906 298.628906 573.160156 C 297.710938 571.761719 298.417969 569.761719 297.089844 568.628906 C 295.234375 567.050781 294.492188 564.855469 293.359375 562.835938 C 291.839844 560.125 290.972656 557.324219 291.238281 554.15625 C 291.46875 551.460938 290.742188 548.804688 291.097656 546.042969 C 291.378906 543.863281 291.660156 541.667969 292.316406 539.628906 C 293.5 535.910156 293.058594 535.574219 288.746094 534.828125 C 285.261719 534.242188 282.023438 533.304688 279.671875 530.46875 C 279.230469 529.9375 278.773438 529.371094 278.488281 528.734375 C 277.585938 526.769531 276.367188 525.191406 274.441406 524.039062 C 272.722656 522.996094 271.75 521.417969 271.558594 519.167969 C 271.257812 515.769531 270.070312 512.507812 268.835938 509.300781 C 267.84375 506.75 268.375 505.261719 270.601562 503.738281 C 271.273438 503.277344 271.910156 502.746094 271.453125 501.828125 C 270.921875 500.746094 269.894531 500.515625 268.921875 500.957031 C 267.863281 501.4375 266.800781 501.648438 265.652344 501.683594 C 264.007812 501.738281 263.015625 501.117188 263.175781 499.347656 C 263.371094 497.222656 261.777344 495.699219 261.371094 493.765625 C 261.179688 492.84375 260.027344 493.023438 259.355469 493.359375 C 257.464844 494.351562 256.28125 493.765625 255.484375 491.925781 C 254.828125 490.453125 253.714844 490.242188 252.335938 490.863281 C 252.214844 490.914062 252.070312 491.09375 251.984375 491.074219 C 248.554688 490.417969 245.210938 493.414062 241.726562 491.25 C 240.242188 490.332031 239.039062 489.054688 238.15625 487.691406 C 236.050781 484.484375 233.347656 483.171875 229.597656 483.933594 C 227.371094 484.394531 226.484375 482.90625 226.0625 481.191406 C 225.691406 479.628906 224.945312 478.285156 224.203125 476.9375 C 223.445312 475.59375 222.453125 474.582031 220.757812 474.121094 C 218.070312 473.378906 216.089844 471.269531 213.964844 469.570312 C 210.234375 466.609375 206.152344 466.257812 201.765625 467.285156 C 200.6875 467.53125 199.75 467.585938 198.707031 467.070312 C 197.1875 466.34375 195.613281 465.726562 194.019531 465.195312 C 192.109375 464.554688 190.429688 465.707031 188.734375 466.203125 C 184.402344 467.480469 181.449219 465.246094 180.722656 460.800781 C 180.191406 457.558594 180.070312 454.351562 180.015625 451.128906 C 180 450.527344 179.769531 450.101562 179.328125 449.675781 C 177.222656 447.601562 177.167969 446.734375 179.257812 444.820312 C 180.492188 443.707031 180.8125 442.996094 179.449219 441.652344 C 177.539062 439.773438 178.140625 436.320312 180.421875 434.582031 C 182.28125 433.167969 183.5 429.269531 182.882812 427.125 C 182.632812 426.257812 182.527344 425.320312 182.5625 424.398438 C 182.617188 422.378906 182.101562 420.625 180.652344 419.191406 C 179.769531 418.304688 179.75 417.152344 180.28125 416.25 C 180.863281 415.257812 181.996094 414.761719 183.199219 414.992188 C 187.496094 415.839844 188.894531 418.410156 187.371094 422.589844 C 186.804688 424.148438 187.691406 424.75 188.964844 424.859375 C 190.289062 424.980469 191.652344 424.804688 192.996094 424.824219 C 196.125 424.859375 197.859375 426.347656 199.09375 429.269531 C 199.785156 430.917969 201.09375 432.15625 203.164062 432.527344 C 206.1875 433.09375 209.367188 433.042969 211.878906 435.574219 C 213.328125 437.046875 215.523438 437.152344 217.644531 436.265625 C 220.011719 435.273438 221.621094 435.789062 223.355469 437.789062 C 224.980469 439.667969 225.28125 439.667969 226.097656 437.398438 C 226.910156 435.167969 228.148438 434.050781 230.765625 434.050781 C 233.097656 434.050781 235.804688 433.804688 236.386719 430.507812 C 236.527344 429.675781 237.21875 428.914062 238.050781 428.703125 C 239.535156 428.347656 240.632812 427.390625 241.902344 426.699219 C 243.601562 425.78125 245.085938 424.75 246.429688 423.351562 C 248.675781 421.03125 251.648438 420.945312 252.671875 423.28125 C 254.457031 427.339844 257.871094 427.886719 261.53125 428.222656 C 262.238281 428.292969 262.910156 428.367188 263.53125 428.808594 C 266.304688 430.738281 268.851562 429.765625 271.363281 428.207031 C 273.484375 426.878906 275.800781 425.902344 277.320312 423.652344 C 278.011719 422.625 279.601562 422.875 280.523438 423.867188 C 282.945312 426.503906 285.933594 428.613281 287.894531 431.679688 C 288.746094 432.988281 290 432.671875 290.902344 432.261719 C 293.554688 431.09375 295.550781 432.191406 297.832031 433.414062 C 301.261719 435.273438 306.039062 435.609375 308.195312 430.882812 C 309.042969 429.019531 310.671875 428.207031 312.367188 427.515625 C 315.320312 426.292969 317.796875 424.238281 320.660156 422.875 C 321.03125 422.695312 321.4375 422.394531 321.597656 422.042969 C 323.613281 417.71875 328 415.117188 329.765625 410.597656 C 330.261719 409.304688 330.457031 408.242188 329.820312 406.984375 C 329.113281 405.585938 329.058594 404.273438 330.757812 403.40625 C 331.464844 403.050781 331.675781 402.273438 332.011719 401.5625 C 334.363281 396.621094 336.238281 391.484375 338.980469 386.683594 C 340.941406 383.246094 342.25 379.402344 344.40625 376.003906 C 344.761719 375.453125 344.25 374.941406 344.109375 374.40625 C 343.472656 372.015625 343.523438 369.730469 345.714844 368.085938 C 346.917969 367.179688 347.433594 365.886719 348.066406 364.628906 C 348.847656 363.105469 349.925781 361.9375 351.78125 361.917969 C 352.84375 361.902344 353.445312 361.28125 353.9375 360.46875 C 356.148438 356.871094 358.765625 353.453125 360.480469 349.644531 C 362.425781 345.304688 365.078125 341.460938 367.570312 337.507812 C 368.5625 335.949219 368.242188 334.074219 369.128906 332.496094 C 369.78125 331.328125 370.207031 330.050781 371.550781 329.449219 C 371.796875 329.34375 372.132812 329.113281 372.167969 328.898438 C 372.769531 325.128906 376.679688 324.347656 378.605469 321.742188 C 380.054688 319.796875 381.398438 317.917969 382.089844 315.542969 C 382.796875 313.082031 384.191406 311.113281 386.632812 310 C 388.542969 309.132812 390.417969 308.191406 392.363281 307.359375 C 394.625 306.402344 394.925781 303.835938 395.546875 301.707031 C 395.808594 300.789062 395.703125 299.742188 395.667969 298.75 C 395.617188 297.367188 396.058594 296.144531 397.136719 295.382812 C 399.613281 293.632812 399.222656 291.292969 398.550781 288.9375 C 397.753906 286.15625 399.347656 281.816406 401.699219 280.683594 C 402.652344 280.222656 403.695312 280.078125 404.546875 280.664062 C 407.800781 282.878906 411.476562 284.578125 414.148438 287.5 C 417.578125 291.238281 421.023438 295.011719 423.90625 299.15625 C 426.382812 302.71875 427.746094 306.96875 427.957031 311.417969 C 428.046875 313.753906 427.9375 316.003906 427.9375 318.324219 Z M 427.9375 318.324219 " fill-opacity="1" fill-rule="nonzero"/></g><g clip-path="url(#f7d676283b)"><g clip-path="url(#446ef90ba5)"><g clip-path="url(#90daf5b16d)"><path fill="#b80002" d="M 296.234375 473.628906 C 205.59375 444.871094 155.238281 347.738281 184 257.085938 C 212.761719 166.433594 309.890625 116.089844 400.542969 144.851562 C 491.195312 173.609375 541.539062 270.742188 512.777344 361.394531 C 484.015625 452.046875 386.875 502.386719 296.234375 473.628906 Z M 391.964844 171.886719 C 389.71875 171.175781 387.453125 170.519531 385.171875 169.914062 C 382.894531 169.3125 380.601562 168.769531 378.292969 168.277344 C 375.984375 167.789062 373.667969 167.355469 371.339844 166.980469 C 369.011719 166.605469 366.675781 166.289062 364.332031 166.027344 C 361.988281 165.765625 359.640625 165.5625 357.285156 165.417969 C 354.933594 165.269531 352.574219 165.183594 350.21875 165.152344 C 347.859375 165.125 345.503906 165.152344 343.144531 165.238281 C 340.789062 165.324219 338.4375 165.464844 336.085938 165.667969 C 333.738281 165.867188 331.394531 166.128906 329.054688 166.445312 C 326.71875 166.761719 324.390625 167.132812 322.074219 167.566406 C 319.753906 167.996094 317.449219 168.484375 315.152344 169.027344 C 312.859375 169.570312 310.578125 170.171875 308.3125 170.828125 C 306.046875 171.480469 303.800781 172.195312 301.570312 172.960938 C 299.339844 173.726562 297.128906 174.546875 294.9375 175.421875 C 292.75 176.296875 290.582031 177.222656 288.4375 178.203125 C 286.292969 179.1875 284.175781 180.21875 282.082031 181.304688 C 279.988281 182.390625 277.921875 183.527344 275.882812 184.710938 C 273.84375 185.898438 271.835938 187.132812 269.859375 188.417969 C 267.882812 189.707031 265.9375 191.039062 264.027344 192.417969 C 262.113281 193.800781 260.238281 195.226562 258.394531 196.699219 C 256.554688 198.171875 254.75 199.6875 252.980469 201.25 C 251.214844 202.8125 249.488281 204.414062 247.796875 206.0625 C 246.109375 207.707031 244.460938 209.394531 242.855469 211.121094 C 241.25 212.847656 239.6875 214.613281 238.167969 216.417969 C 236.648438 218.222656 235.175781 220.0625 233.746094 221.9375 C 232.320312 223.8125 230.9375 225.722656 229.601562 227.667969 C 228.265625 229.613281 226.980469 231.589844 225.742188 233.59375 C 224.503906 235.601562 223.316406 237.640625 222.179688 239.703125 C 221.039062 241.769531 219.953125 243.863281 218.917969 245.980469 C 217.882812 248.101562 216.902344 250.242188 215.96875 252.410156 C 215.039062 254.578125 214.164062 256.765625 213.339844 258.976562 C 212.519531 261.1875 211.75 263.414062 211.039062 265.664062 C 210.324219 267.910156 209.667969 270.175781 209.066406 272.457031 C 208.464844 274.734375 207.917969 277.027344 207.429688 279.335938 C 206.9375 281.644531 206.507812 283.960938 206.128906 286.289062 C 205.753906 288.617188 205.4375 290.953125 205.175781 293.296875 C 204.914062 295.640625 204.710938 297.988281 204.566406 300.34375 C 204.421875 302.695312 204.332031 305.050781 204.300781 307.410156 C 204.273438 309.769531 204.300781 312.125 204.386719 314.484375 C 204.472656 316.839844 204.617188 319.191406 204.816406 321.542969 C 205.019531 323.890625 205.277344 326.234375 205.59375 328.570312 C 205.910156 330.910156 206.285156 333.238281 206.714844 335.554688 C 207.144531 337.875 207.632812 340.179688 208.175781 342.476562 C 208.71875 344.769531 209.320312 347.050781 209.976562 349.316406 C 210.632812 351.582031 211.34375 353.828125 212.109375 356.058594 C 212.875 358.289062 213.695312 360.5 214.570312 362.6875 C 215.445312 364.878906 216.375 367.046875 217.355469 369.191406 C 218.335938 371.335938 219.367188 373.453125 220.453125 375.546875 C 221.539062 377.640625 222.675781 379.707031 223.863281 381.746094 C 225.046875 383.785156 226.285156 385.792969 227.570312 387.769531 C 228.855469 389.746094 230.1875 391.691406 231.566406 393.601562 C 232.949219 395.515625 234.375 397.390625 235.847656 399.234375 C 237.320312 401.074219 238.839844 402.878906 240.398438 404.648438 C 241.960938 406.414062 243.566406 408.140625 245.210938 409.832031 C 246.859375 411.519531 248.542969 413.167969 250.269531 414.773438 C 252 416.378906 253.765625 417.941406 255.566406 419.460938 C 257.371094 420.976562 259.210938 422.453125 261.085938 423.882812 C 262.964844 425.308594 264.875 426.691406 266.816406 428.027344 C 268.761719 429.363281 270.738281 430.648438 272.746094 431.886719 C 274.753906 433.125 276.789062 434.3125 278.855469 435.449219 C 280.917969 436.589844 283.011719 437.675781 285.128906 438.710938 C 287.25 439.746094 289.390625 440.726562 291.558594 441.65625 C 293.726562 442.589844 295.914062 443.464844 298.125 444.285156 C 300.335938 445.109375 302.566406 445.878906 304.8125 446.589844 C 307.058594 447.304688 309.324219 447.960938 311.605469 448.5625 C 313.886719 449.164062 316.179688 449.710938 318.484375 450.199219 C 320.792969 450.691406 323.109375 451.121094 325.4375 451.496094 C 327.765625 451.875 330.101562 452.191406 332.445312 452.453125 C 334.789062 452.714844 337.136719 452.917969 339.492188 453.0625 C 341.847656 453.207031 344.203125 453.296875 346.558594 453.324219 C 348.917969 453.355469 351.277344 453.328125 353.632812 453.242188 C 355.988281 453.15625 358.34375 453.011719 360.691406 452.8125 C 363.042969 452.609375 365.382812 452.351562 367.722656 452.035156 C 370.058594 451.71875 372.386719 451.34375 374.703125 450.914062 C 377.023438 450.484375 379.332031 449.996094 381.625 449.453125 C 383.917969 448.90625 386.199219 448.308594 388.464844 447.652344 C 390.730469 446.996094 392.976562 446.285156 395.207031 445.519531 C 397.4375 444.753906 399.648438 443.933594 401.839844 443.058594 C 404.027344 442.183594 406.195312 441.253906 408.339844 440.273438 C 410.484375 439.292969 412.605469 438.257812 414.699219 437.175781 C 416.792969 436.089844 418.855469 434.953125 420.894531 433.765625 C 422.933594 432.578125 424.941406 431.34375 426.917969 430.058594 C 428.894531 428.773438 430.839844 427.441406 432.753906 426.058594 C 434.664062 424.679688 436.539062 423.253906 438.382812 421.78125 C 440.222656 420.308594 442.027344 418.789062 443.796875 417.230469 C 445.5625 415.667969 447.292969 414.0625 448.980469 412.417969 C 450.667969 410.769531 452.316406 409.085938 453.921875 407.355469 C 455.527344 405.628906 457.089844 403.863281 458.609375 402.0625 C 460.128906 400.257812 461.601562 398.417969 463.03125 396.539062 C 464.460938 394.664062 465.839844 392.753906 467.175781 390.808594 C 468.511719 388.867188 469.796875 386.890625 471.035156 384.882812 C 472.273438 382.875 473.460938 380.839844 474.597656 378.773438 C 475.738281 376.707031 476.824219 374.617188 477.859375 372.496094 C 478.894531 370.378906 479.878906 368.234375 480.808594 366.070312 C 481.738281 363.902344 482.613281 361.714844 483.4375 359.503906 C 484.257812 357.292969 485.027344 355.0625 485.738281 352.816406 C 486.449219 350.566406 487.105469 348.304688 487.703125 346.023438 C 488.304688 343.746094 488.84375 341.449219 489.332031 339.144531 C 489.820312 336.835938 490.25 334.519531 490.621094 332.191406 C 490.996094 329.867188 491.3125 327.53125 491.570312 325.1875 C 491.828125 322.84375 492.027344 320.496094 492.171875 318.144531 C 492.316406 315.789062 492.402344 313.433594 492.429688 311.078125 C 492.457031 308.71875 492.425781 306.363281 492.339844 304.007812 C 492.253906 301.652344 492.109375 299.300781 491.90625 296.953125 C 491.703125 294.601562 491.441406 292.261719 491.125 289.925781 C 490.804688 287.589844 490.429688 285.261719 490 282.945312 C 489.566406 280.628906 489.078125 278.324219 488.535156 276.027344 C 487.992188 273.734375 487.390625 271.457031 486.734375 269.191406 C 486.078125 266.929688 485.367188 264.683594 484.597656 262.453125 C 483.832031 260.222656 483.011719 258.015625 482.136719 255.824219 C 481.261719 253.636719 480.332031 251.46875 479.351562 249.328125 C 478.371094 247.183594 477.339844 245.066406 476.253906 242.972656 C 475.167969 240.878906 474.03125 238.816406 472.847656 236.777344 C 471.660156 234.742188 470.425781 232.734375 469.140625 230.757812 C 467.855469 228.78125 466.523438 226.835938 465.144531 224.925781 C 463.765625 223.015625 462.339844 221.136719 460.867188 219.296875 C 459.394531 217.453125 457.878906 215.652344 456.320312 213.882812 C 454.757812 212.117188 453.15625 210.386719 451.511719 208.699219 C 449.867188 207.011719 448.179688 205.363281 446.453125 203.757812 C 444.730469 202.152344 442.964844 200.589844 441.164062 199.070312 C 439.359375 197.550781 437.523438 196.078125 435.648438 194.648438 C 433.773438 193.21875 431.863281 191.835938 429.921875 190.5 C 427.980469 189.164062 426.003906 187.878906 424 186.636719 C 421.996094 185.398438 419.960938 184.210938 417.894531 183.070312 C 415.832031 181.929688 413.742188 180.84375 411.625 179.808594 C 409.507812 178.769531 407.367188 177.785156 405.199219 176.855469 C 403.035156 175.921875 400.847656 175.042969 398.640625 174.21875 C 396.433594 173.394531 394.203125 172.625 391.957031 171.910156 Z M 391.964844 171.886719 " fill-opacity="1" fill-rule="nonzero"/></g></g></g><g clip-path="url(#93d07506ef)"><g clip-path="url(#4890d4fd88)"><g clip-path="url(#f9553a66e2)"><path fill="#b80002" d="M 409.304688 529.058594 C 408.558594 528.824219 407.835938 528.535156 407.136719 528.191406 C 406.4375 527.847656 405.765625 527.457031 405.121094 527.015625 C 404.476562 526.574219 403.871094 526.089844 403.300781 525.558594 C 402.726562 525.027344 402.199219 524.457031 401.710938 523.851562 C 401.222656 523.242188 400.78125 522.601562 400.386719 521.925781 C 399.996094 521.253906 399.652344 520.554688 399.363281 519.832031 C 399.074219 519.109375 398.835938 518.367188 398.65625 517.609375 C 398.472656 516.851562 398.351562 516.082031 398.28125 515.304688 C 398.214844 514.527344 398.203125 513.75 398.25 512.972656 C 398.296875 512.195312 398.398438 511.421875 398.558594 510.660156 C 398.71875 509.894531 398.933594 509.148438 399.203125 508.417969 C 399.472656 507.683594 399.796875 506.976562 400.167969 506.292969 C 400.542969 505.609375 400.964844 504.957031 401.4375 504.335938 C 401.90625 503.710938 402.421875 503.128906 402.976562 502.582031 C 403.535156 502.035156 404.128906 501.53125 404.757812 501.074219 C 405.386719 500.613281 406.046875 500.203125 406.738281 499.84375 L 461.988281 470.945312 C 462.449219 470.667969 462.921875 470.414062 463.410156 470.183594 C 463.898438 469.953125 464.398438 469.75 464.90625 469.570312 C 465.417969 469.390625 465.933594 469.238281 466.457031 469.109375 C 466.980469 468.984375 467.511719 468.882812 468.046875 468.8125 C 468.582031 468.738281 469.117188 468.695312 469.65625 468.675781 C 470.195312 468.65625 470.734375 468.667969 471.273438 468.703125 C 471.8125 468.742188 472.347656 468.804688 472.878906 468.898438 C 473.410156 468.988281 473.9375 469.105469 474.457031 469.253906 C 474.976562 469.398438 475.488281 469.570312 475.988281 469.765625 C 476.492188 469.960938 476.984375 470.183594 477.460938 470.433594 C 477.941406 470.679688 478.40625 470.949219 478.859375 471.246094 C 479.3125 471.539062 479.746094 471.855469 480.167969 472.195312 C 480.585938 472.535156 480.988281 472.894531 481.371094 473.273438 C 481.753906 473.652344 482.117188 474.050781 482.460938 474.46875 C 482.800781 474.886719 483.121094 475.320312 483.421875 475.769531 C 483.71875 476.21875 483.996094 476.683594 484.246094 477.160156 C 484.496094 477.636719 484.722656 478.128906 484.925781 478.628906 C 485.125 479.128906 485.300781 479.636719 485.449219 480.15625 C 485.597656 480.675781 485.722656 481.199219 485.816406 481.730469 C 485.914062 482.261719 485.980469 482.796875 486.023438 483.335938 C 486.066406 483.871094 486.078125 484.410156 486.066406 484.949219 C 486.050781 485.488281 486.011719 486.027344 485.941406 486.5625 C 485.875 487.097656 485.777344 487.628906 485.65625 488.152344 C 485.535156 488.679688 485.386719 489.199219 485.210938 489.707031 C 485.035156 490.21875 484.835938 490.71875 484.609375 491.207031 C 484.382812 491.699219 484.132812 492.175781 483.855469 492.640625 C 483.582031 493.105469 483.285156 493.554688 482.964844 493.988281 C 482.644531 494.421875 482.300781 494.839844 481.9375 495.238281 C 481.574219 495.636719 481.191406 496.015625 480.792969 496.375 C 480.390625 496.738281 479.972656 497.074219 479.535156 497.394531 C 479.097656 497.710938 478.648438 498.007812 478.179688 498.277344 C 477.714844 498.550781 477.234375 498.796875 476.746094 499.019531 L 421.496094 527.914062 C 419.625 528.914062 417.628906 529.511719 415.515625 529.710938 C 413.402344 529.90625 411.332031 529.691406 409.304688 529.058594 Z M 409.304688 529.058594 " fill-opacity="1" fill-rule="nonzero"/></g></g></g><g clip-path="url(#35c54943a3)"><g clip-path="url(#ac1a0604b8)"><g clip-path="url(#d639760d1c)"><path fill="#b80002" d="M 545.929688 728.675781 C 544.199219 728.128906 542.539062 727.417969 540.949219 726.539062 C 539.363281 725.660156 537.878906 724.632812 536.496094 723.457031 C 535.113281 722.28125 533.863281 720.976562 532.742188 719.550781 C 531.621094 718.121094 530.652344 716.597656 529.835938 714.976562 L 454.632812 565.558594 C 454.234375 564.761719 453.871094 563.945312 453.550781 563.113281 C 453.230469 562.28125 452.949219 561.4375 452.710938 560.574219 C 452.472656 559.714844 452.277344 558.847656 452.125 557.96875 C 451.972656 557.089844 451.863281 556.207031 451.796875 555.316406 C 451.730469 554.425781 451.710938 553.535156 451.730469 552.644531 C 451.753906 551.75 451.820312 550.863281 451.929688 549.976562 C 452.035156 549.09375 452.1875 548.214844 452.382812 547.34375 C 452.578125 546.472656 452.816406 545.617188 453.097656 544.769531 C 453.375 543.921875 453.695312 543.089844 454.058594 542.273438 C 454.417969 541.457031 454.820312 540.664062 455.257812 539.886719 C 455.699219 539.109375 456.175781 538.359375 456.6875 537.628906 C 457.203125 536.898438 457.75 536.195312 458.332031 535.519531 C 458.914062 534.84375 459.53125 534.199219 460.175781 533.585938 C 460.820312 532.96875 461.496094 532.386719 462.199219 531.839844 C 462.902344 531.289062 463.628906 530.777344 464.382812 530.300781 C 465.136719 529.820312 465.914062 529.382812 466.710938 528.980469 C 467.503906 528.578125 468.320312 528.21875 469.152344 527.898438 C 469.984375 527.574219 470.832031 527.296875 471.691406 527.058594 C 472.550781 526.820312 473.417969 526.625 474.296875 526.472656 C 475.175781 526.320312 476.0625 526.210938 476.949219 526.144531 C 477.839844 526.078125 478.730469 526.054688 479.621094 526.078125 C 480.515625 526.101562 481.402344 526.164062 482.289062 526.273438 C 483.171875 526.382812 484.050781 526.535156 484.921875 526.730469 C 485.792969 526.925781 486.652344 527.164062 487.496094 527.441406 C 488.34375 527.722656 489.175781 528.042969 489.992188 528.40625 C 490.808594 528.765625 491.601562 529.167969 492.378906 529.605469 C 493.15625 530.046875 493.910156 530.523438 494.636719 531.035156 C 495.367188 531.546875 496.070312 532.097656 496.746094 532.679688 C 497.421875 533.261719 498.066406 533.875 498.679688 534.523438 C 499.296875 535.167969 499.878906 535.84375 500.429688 536.546875 C 500.976562 537.25 501.488281 537.976562 501.96875 538.730469 C 502.445312 539.484375 502.882812 540.257812 503.285156 541.054688 L 578.488281 690.472656 C 579.085938 691.664062 579.597656 692.890625 580.015625 694.15625 C 580.433594 695.421875 580.757812 696.710938 580.988281 698.023438 C 581.21875 699.335938 581.351562 700.65625 581.386719 701.988281 C 581.421875 703.320312 581.359375 704.648438 581.203125 705.972656 C 581.042969 707.292969 580.789062 708.597656 580.4375 709.882812 C 580.085938 711.167969 579.644531 712.421875 579.109375 713.644531 C 578.574219 714.863281 577.953125 716.039062 577.246094 717.167969 C 576.539062 718.296875 575.753906 719.371094 574.890625 720.382812 C 574.027344 721.398438 573.09375 722.34375 572.089844 723.21875 C 571.085938 724.097656 570.023438 724.894531 568.902344 725.617188 C 567.785156 726.339844 566.617188 726.972656 565.402344 727.523438 C 564.1875 728.074219 562.941406 728.53125 561.660156 728.898438 C 560.378906 729.265625 559.078125 729.535156 557.757812 729.710938 C 556.4375 729.886719 555.109375 729.96875 553.777344 729.949219 C 552.445312 729.929688 551.121094 729.8125 549.808594 729.601562 C 548.492188 729.386719 547.199219 729.078125 545.929688 728.675781 Z M 545.929688 728.675781 " fill-opacity="1" fill-rule="nonzero"/></g></g></g><g clip-path="url(#0a601d3229)"><g clip-path="url(#6c81b675e3)"><g clip-path="url(#f3f9c7ff6c)"><path fill="#b80002" d="M 311.382812 424.941406 C 290.207031 418.222656 264.144531 403.273438 241.5 370.722656 C 221.613281 342.152344 219.359375 307.191406 234.964844 269.636719 C 242.25 252.289062 251.960938 236.425781 264.097656 222.050781 C 264.46875 221.636719 264.878906 221.261719 265.324219 220.929688 C 265.773438 220.597656 266.246094 220.3125 266.75 220.070312 C 267.25 219.832031 267.773438 219.640625 268.3125 219.503906 C 268.851562 219.367188 269.398438 219.28125 269.953125 219.25 C 270.511719 219.222656 271.0625 219.246094 271.613281 219.324219 C 272.167969 219.402344 272.703125 219.535156 273.230469 219.71875 C 273.753906 219.902344 274.257812 220.136719 274.738281 220.417969 C 275.21875 220.699219 275.664062 221.027344 276.082031 221.398438 C 276.496094 221.769531 276.871094 222.175781 277.207031 222.621094 C 277.542969 223.0625 277.832031 223.535156 278.074219 224.039062 C 278.316406 224.539062 278.507812 225.058594 278.648438 225.597656 C 278.789062 226.136719 278.878906 226.683594 278.910156 227.238281 C 278.945312 227.792969 278.921875 228.347656 278.847656 228.898438 C 278.773438 229.453125 278.644531 229.992188 278.464844 230.515625 C 278.28125 231.042969 278.050781 231.546875 277.773438 232.027344 C 277.492188 232.511719 277.167969 232.960938 276.800781 233.378906 C 265.878906 246.453125 257.121094 260.84375 250.519531 276.546875 C 237.253906 308.761719 238.925781 337.148438 255.472656 360.96875 C 296.34375 419.738281 349.402344 412.90625 349.9375 412.828125 C 350.496094 412.738281 351.058594 412.699219 351.625 412.722656 C 352.191406 412.742188 352.75 412.816406 353.300781 412.949219 C 353.851562 413.082031 354.382812 413.265625 354.894531 413.503906 C 355.410156 413.742188 355.894531 414.03125 356.351562 414.363281 C 356.808594 414.699219 357.226562 415.078125 357.609375 415.496094 C 357.988281 415.914062 358.324219 416.367188 358.617188 416.851562 C 358.910156 417.335938 359.148438 417.847656 359.335938 418.382812 C 359.527344 418.914062 359.660156 419.460938 359.742188 420.023438 C 359.820312 420.582031 359.84375 421.144531 359.8125 421.710938 C 359.78125 422.277344 359.691406 422.832031 359.550781 423.382812 C 359.40625 423.929688 359.210938 424.457031 358.960938 424.964844 C 358.710938 425.472656 358.414062 425.953125 358.070312 426.402344 C 357.726562 426.851562 357.339844 427.261719 356.914062 427.636719 C 356.488281 428.007812 356.027344 428.335938 355.535156 428.617188 C 355.042969 428.894531 354.53125 429.125 353.992188 429.304688 C 353.453125 429.480469 352.90625 429.605469 352.34375 429.671875 C 350.996094 429.902344 333.976562 432.105469 311.382812 424.941406 Z M 311.382812 424.941406 " fill-opacity="1" fill-rule="nonzero"/></g></g></g><g clip-path="url(#1ac9fac90b)"><path fill="#000000" d="M 438.832031 151.613281 C 439.117188 151.617188 439.394531 151.632812 439.664062 151.664062 C 442.507812 151.980469 443.933594 152.925781 443.933594 154.507812 C 443.933594 156.085938 442.667969 158.773438 440.140625 162.566406 C 437.605469 166.355469 431.433594 172.992188 421.621094 182.472656 C 411.8125 191.953125 403.425781 199.378906 396.460938 204.75 C 389.503906 210.121094 386.335938 215.179688 386.96875 219.917969 C 387.601562 224.660156 387.601562 230.347656 386.96875 236.980469 C 386.335938 243.617188 386.652344 247.09375 387.917969 247.410156 C 389.1875 247.726562 390.292969 248.671875 391.238281 250.253906 C 392.191406 251.832031 393.613281 252.625 395.515625 252.625 C 397.414062 252.625 400.734375 251.992188 405.480469 250.730469 C 410.230469 249.464844 415.769531 246.777344 422.097656 242.667969 L 431.589844 236.507812 C 429.214844 238.71875 426.847656 240.933594 424.472656 243.144531 C 419.726562 247.570312 414.503906 250.570312 408.808594 252.148438 C 405.957031 252.941406 403.109375 253.730469 400.257812 254.519531 C 402.160156 254.675781 404.058594 254.835938 405.957031 254.992188 C 409.753906 255.308594 417.351562 253.257812 428.746094 248.832031 C 434.4375 246.621094 440.140625 244.410156 445.832031 242.195312 C 441.5625 244.566406 437.289062 246.9375 433.015625 249.304688 C 424.472656 254.046875 418.296875 256.890625 414.503906 257.835938 C 410.707031 258.785156 406.113281 259.261719 400.734375 259.261719 C 395.355469 259.261719 392.351562 259.890625 391.714844 261.15625 C 391.082031 262.421875 390.925781 263.683594 391.238281 264.949219 C 391.558594 266.210938 392.507812 266.84375 394.089844 266.84375 C 395.671875 266.84375 397.097656 267.316406 398.363281 268.265625 C 399.628906 269.214844 400.257812 270.476562 400.257812 272.058594 C 400.257812 273.636719 404.214844 277.113281 412.128906 282.488281 C 420.042969 287.859375 425.894531 290.703125 429.691406 291.019531 C 431.589844 291.175781 433.492188 291.335938 435.390625 291.492188 C 434.597656 291.964844 433.808594 292.4375 433.015625 292.914062 C 431.433594 293.863281 429.691406 294.335938 427.792969 294.335938 C 425.894531 294.335938 420.515625 291.335938 411.652344 285.332031 C 402.792969 279.328125 397.730469 276.480469 396.460938 276.796875 C 395.195312 277.113281 394.40625 277.902344 394.089844 279.167969 C 393.773438 280.433594 395.195312 283.90625 398.363281 289.59375 C 401.527344 295.285156 403.746094 300.183594 405.007812 304.289062 C 406.273438 308.398438 406.75 311.558594 406.433594 313.769531 C 406.273438 314.875 406.113281 315.980469 405.957031 317.089844 C 405.328125 315.03125 404.691406 312.980469 404.058594 310.925781 C 402.792969 306.816406 398.835938 298.445312 392.191406 285.804688 C 385.546875 273.164062 380.320312 266.6875 376.527344 266.371094 C 374.625 266.210938 372.730469 266.054688 370.832031 265.894531 L 370.832031 275.851562 C 370.832031 282.488281 371.777344 287.859375 373.675781 291.964844 C 375.578125 296.074219 379.058594 301.761719 384.121094 309.027344 C 389.1875 316.296875 395.039062 322.933594 401.6875 328.9375 C 405.007812 331.941406 408.332031 334.941406 411.652344 337.941406 C 410.070312 336.996094 408.488281 336.046875 406.910156 335.097656 C 403.746094 333.203125 399.945312 330.199219 395.515625 326.09375 C 391.082031 321.984375 385.707031 315.347656 379.375 306.183594 C 373.046875 297.023438 369.25 291.019531 367.980469 288.175781 C 366.714844 285.332031 366.398438 280.117188 367.03125 272.53125 C 367.664062 264.949219 367.664062 259.734375 367.03125 256.890625 C 366.398438 254.046875 365.609375 251.519531 364.65625 249.304688 C 363.710938 247.09375 362.28125 245.988281 360.390625 245.988281 C 358.488281 245.988281 355.636719 247.410156 351.839844 250.253906 C 348.046875 253.097656 345.039062 254.519531 342.820312 254.519531 C 340.609375 254.519531 337.28125 257.050781 332.855469 262.105469 C 328.421875 267.160156 324.941406 270.476562 322.414062 272.058594 C 319.878906 273.636719 318.457031 280.746094 318.136719 293.386719 C 317.820312 306.027344 316.875 318.035156 315.292969 329.410156 C 313.707031 340.789062 311.175781 349.949219 307.695312 356.902344 C 304.214844 363.855469 300.894531 369.386719 297.722656 373.492188 C 294.5625 377.601562 292.34375 379.972656 291.082031 380.601562 C 290.445312 380.917969 289.816406 381.234375 289.179688 381.550781 C 291.554688 377.601562 293.925781 373.652344 296.300781 369.703125 C 301.046875 361.800781 304.375 355.480469 306.273438 350.742188 C 308.171875 346 310.382812 331.625 312.917969 307.609375 C 315.445312 283.589844 319.5625 268.582031 325.257812 262.578125 C 330.957031 256.574219 333.800781 253.097656 333.800781 252.148438 C 333.800781 251.203125 332.0625 249.464844 328.582031 246.9375 C 325.101562 244.410156 323.359375 242.039062 323.359375 239.828125 C 323.359375 237.613281 324.152344 234.613281 325.734375 230.820312 C 326.523438 228.921875 327.316406 227.027344 328.105469 225.132812 C 326.523438 225.765625 324.941406 226.394531 323.359375 227.027344 C 320.195312 228.292969 314.339844 233.664062 305.796875 243.144531 C 297.253906 252.625 290.132812 259.261719 284.4375 263.050781 C 278.738281 266.84375 274.304688 271.269531 271.140625 276.324219 C 267.980469 281.378906 263.074219 287.066406 256.425781 293.386719 C 249.78125 299.707031 241.398438 306.976562 231.265625 315.191406 C 221.140625 323.40625 214.652344 328.148438 211.804688 329.410156 C 210.382812 330.042969 208.953125 330.675781 207.53125 331.308594 C 209.113281 329.570312 210.699219 327.832031 212.28125 326.09375 C 215.445312 322.617188 223.511719 315.664062 236.488281 305.238281 C 249.464844 294.808594 258.960938 285.960938 264.96875 278.695312 C 270.984375 271.425781 276.046875 266.210938 280.160156 263.050781 C 284.277344 259.890625 290.285156 254.046875 298.199219 245.511719 C 302.15625 241.25 306.113281 236.980469 310.066406 232.714844 C 309.59375 232.558594 309.117188 232.398438 308.644531 232.242188 C 307.695312 231.925781 304.375 232.558594 298.675781 234.136719 C 292.980469 235.71875 285.859375 238.402344 277.316406 242.195312 C 268.765625 245.988281 258.960938 249.464844 247.882812 252.625 C 236.804688 255.785156 230.003906 257.363281 227.46875 257.363281 C 224.941406 257.363281 223.351562 256.417969 222.722656 254.519531 C 222.089844 252.625 224.304688 249.304688 229.367188 244.566406 C 234.429688 239.828125 239.179688 236.351562 243.609375 234.136719 C 248.042969 231.925781 250.730469 230.03125 251.679688 228.449219 C 252.628906 226.871094 254.84375 225.605469 258.324219 224.660156 C 261.804688 223.710938 265.285156 222.128906 268.765625 219.917969 C 272.25 217.707031 276.203125 216.285156 280.636719 215.652344 C 285.066406 215.019531 289.023438 213.753906 292.503906 211.859375 C 295.984375 209.964844 300.417969 208.226562 305.796875 206.648438 C 308.484375 205.855469 311.175781 205.066406 313.863281 204.277344 C 310.542969 203.328125 307.21875 202.378906 303.898438 201.433594 C 297.253906 199.535156 290.761719 197.007812 284.4375 193.847656 C 278.105469 190.6875 266.238281 188.632812 248.828125 187.6875 C 231.425781 186.738281 217.027344 184.839844 205.632812 182 C 194.242188 179.15625 185.382812 175.207031 179.050781 170.148438 C 172.722656 165.09375 168.765625 161.144531 167.183594 158.300781 C 166.390625 156.875 165.597656 155.453125 164.808594 154.03125 C 166.550781 155.929688 168.289062 157.824219 170.03125 159.71875 C 173.511719 163.511719 177.46875 166.988281 181.902344 170.148438 C 186.328125 173.308594 194.714844 176.46875 207.058594 179.628906 C 219.402344 182.789062 232.21875 184.527344 245.507812 184.839844 C 252.152344 185 258.800781 185.15625 265.445312 185.316406 C 261.015625 181.839844 256.585938 178.367188 252.152344 174.890625 C 243.289062 167.9375 238.386719 163.671875 237.441406 162.089844 C 236.488281 160.511719 236.328125 158.773438 236.964844 156.875 C 237.597656 154.980469 239.96875 154.03125 244.085938 154.03125 C 248.199219 154.03125 252.46875 154.664062 256.902344 155.929688 C 261.328125 157.191406 270.507812 161.617188 284.4375 169.199219 C 298.359375 176.785156 308.960938 179.945312 316.238281 178.679688 C 319.878906 178.050781 323.519531 177.417969 327.15625 176.785156 C 327.316406 178.050781 327.476562 179.3125 327.632812 180.578125 C 327.945312 183.105469 327.792969 185.472656 327.15625 187.6875 C 326.523438 189.898438 327.476562 191.792969 330.003906 193.375 C 331.273438 194.164062 332.539062 194.953125 333.800781 195.746094 C 335.542969 192.269531 337.28125 188.792969 339.023438 185.316406 C 342.503906 178.367188 344.71875 174.730469 345.671875 174.414062 C 346.144531 174.257812 346.621094 174.097656 347.09375 173.941406 C 347.253906 177.101562 347.414062 180.261719 347.570312 183.421875 C 347.886719 189.742188 349.625 193.214844 352.792969 193.847656 C 355.957031 194.480469 358.800781 195.585938 361.335938 197.167969 C 363.871094 198.746094 366.714844 198.429688 369.878906 196.21875 C 373.046875 194.007812 375.417969 192.902344 377 192.902344 C 378.582031 192.902344 380.007812 193.53125 381.273438 194.796875 C 381.90625 195.429688 382.539062 196.0625 383.171875 196.691406 C 384.753906 194.480469 386.335938 192.269531 387.917969 190.058594 C 391.082031 185.632812 395.195312 180.894531 400.257812 175.835938 C 405.328125 170.78125 409.914062 166.671875 414.027344 163.511719 C 418.140625 160.351562 422.730469 157.507812 427.792969 154.980469 C 432.304688 152.730469 435.933594 151.605469 438.6875 151.609375 Z M 438.832031 151.613281 " fill-opacity="1" fill-rule="nonzero"/></g><g fill="#000000" fill-opacity="1"><g transform="translate(154.650917, 215.495336)"><g><path d="M -4.46875 -4.71875 L -3.21875 -6.234375 L -16.828125 -17.546875 L -18.078125 -16.03125 L -23.046875 -20.15625 L -12 -33.453125 C -9.832031 -36.054688 -7.617188 -37.578125 -5.359375 -38.015625 C -3.109375 -38.460938 -0.726562 -37.644531 1.78125 -35.5625 C 4.28125 -33.476562 5.519531 -31.285156 5.5 -28.984375 C 5.476562 -26.691406 4.382812 -24.242188 2.21875 -21.640625 L -0.53125 -18.34375 L 3.828125 -14.71875 L 6.25 -17.625 L 11.21875 -13.5 L 0.5 -0.59375 Z M -3.953125 -22.9375 C -2.984375 -24.101562 -3.144531 -25.222656 -4.4375 -26.296875 L -5.53125 -27.203125 C -6.195312 -27.753906 -6.804688 -28.015625 -7.359375 -27.984375 C -7.910156 -27.953125 -8.429688 -27.644531 -8.921875 -27.0625 L -9.78125 -26.03125 L -4.8125 -21.90625 Z M -3.953125 -22.9375 "/></g></g></g><g fill="#000000" fill-opacity="1"><g transform="translate(172.08028, 194.261009)"><g><path d="M -3.875 -5.21875 L -2.4375 -6.578125 L -14.59375 -19.4375 L -16.03125 -18.078125 L -20.46875 -22.765625 L -7.34375 -35.1875 C -4.882812 -37.507812 -2.53125 -38.773438 -0.28125 -38.984375 C 1.96875 -39.203125 4.164062 -38.175781 6.3125 -35.90625 C 7.519531 -34.632812 8.304688 -33.289062 8.671875 -31.875 C 9.046875 -30.457031 8.929688 -29.117188 8.328125 -27.859375 L 8.625 -27.59375 C 10.71875 -29.03125 12.691406 -28.769531 14.546875 -26.8125 L 16.625 -24.609375 L 17.96875 -25.875 L 22.40625 -21.1875 L 13.34375 -12.625 L 6.984375 -19.34375 C 6.285156 -20.082031 5.644531 -20.539062 5.0625 -20.71875 C 4.476562 -20.894531 3.890625 -20.828125 3.296875 -20.515625 C 2.710938 -20.210938 1.988281 -19.648438 1.125 -18.828125 L 5.5625 -14.140625 L 7.453125 -15.921875 L 11.890625 -11.234375 L 0.5625 -0.53125 Z M -0.625 -23.78125 C -0.0703125 -24.300781 0.203125 -24.835938 0.203125 -25.390625 C 0.203125 -25.953125 -0.09375 -26.546875 -0.6875 -27.171875 L -1.671875 -28.203125 C -2.265625 -28.828125 -2.835938 -29.15625 -3.390625 -29.1875 C -3.941406 -29.226562 -4.492188 -28.988281 -5.046875 -28.46875 L -6.59375 -27 L -2.171875 -22.3125 Z M -0.625 -23.78125 "/></g></g></g><g fill="#000000" fill-opacity="1"><g transform="translate(193.705437, 173.678329)"><g><path d="M 12.890625 -8.78125 C 9.015625 -5.9375 5.28125 -4.753906 1.6875 -5.234375 C -1.90625 -5.722656 -5.34375 -8.203125 -8.625 -12.671875 C -11.90625 -17.128906 -13.234375 -21.140625 -12.609375 -24.703125 C -11.992188 -28.273438 -9.75 -31.484375 -5.875 -34.328125 C -2.007812 -37.171875 1.710938 -38.351562 5.296875 -37.875 C 8.890625 -37.394531 12.328125 -34.925781 15.609375 -30.46875 C 18.890625 -26 20.222656 -21.976562 19.609375 -18.40625 C 18.992188 -14.832031 16.753906 -11.625 12.890625 -8.78125 Z M 8.75 -14.421875 C 9.46875 -14.953125 9.863281 -15.535156 9.9375 -16.171875 C 10.007812 -16.816406 9.75 -17.539062 9.15625 -18.34375 L 2.125 -27.921875 C 1.539062 -28.722656 0.929688 -29.179688 0.296875 -29.296875 C -0.335938 -29.421875 -1.015625 -29.21875 -1.734375 -28.6875 C -2.453125 -28.164062 -2.847656 -27.582031 -2.921875 -26.9375 C -3.003906 -26.289062 -2.753906 -25.566406 -2.171875 -24.765625 L 4.859375 -15.1875 C 5.460938 -14.363281 6.082031 -13.898438 6.71875 -13.796875 C 7.351562 -13.691406 8.03125 -13.898438 8.75 -14.421875 Z M 8.75 -14.421875 "/></g></g></g><g fill="#000000" fill-opacity="1"><g transform="translate(217.643475, 156.162552)"><g><path d="M 9.578125 -4.859375 C 7.835938 -3.859375 6.066406 -3.109375 4.265625 -2.609375 C 2.472656 -2.109375 0.847656 -1.910156 -0.609375 -2.015625 L -4.046875 -8.015625 L 2.78125 -11.921875 L 2.96875 -11.578125 C 3.675781 -10.347656 4.625 -10.070312 5.8125 -10.75 C 6.425781 -11.101562 6.789062 -11.535156 6.90625 -12.046875 C 7.03125 -12.554688 6.890625 -13.160156 6.484375 -13.859375 L -1.140625 -27.1875 L -4.21875 -25.421875 L -7.421875 -31.015625 L 6.921875 -39.234375 L 10.125 -33.640625 L 8.421875 -32.65625 L 14.984375 -21.171875 C 16.898438 -17.828125 17.347656 -14.769531 16.328125 -12 C 15.316406 -9.238281 13.066406 -6.859375 9.578125 -4.859375 Z M 9.578125 -4.859375 "/></g></g></g><g fill="#000000" fill-opacity="1"><g transform="translate(239.096699, 143.735657)"><g><path d="M 0.71875 -0.3125 L -1.875 -6.21875 L -0.078125 -7.015625 L -7.171875 -23.234375 L -8.96875 -22.4375 L -11.546875 -28.359375 L 12.78125 -39.015625 L 17.53125 -28.125 L 9.46875 -24.578125 L 7.296875 -29.546875 L 2.921875 -27.640625 L 5.421875 -21.953125 L 8.59375 -23.34375 L 10.390625 -19.234375 L 7.21875 -17.84375 L 10.015625 -11.421875 L 14.390625 -13.328125 L 11.90625 -19.03125 L 19.96875 -22.578125 L 25.046875 -10.96875 Z M 0.71875 -0.3125 "/></g></g></g><g fill="#000000" fill-opacity="1"><g transform="translate(263.336665, 132.948544)"><g><path d="M 22.671875 -28.96875 L 16.203125 -27 L 15.3125 -29.9375 L 12.90625 -29.203125 L 18.0625 -12.265625 L 20.6875 -13.0625 L 22.578125 -6.890625 L 6.765625 -2.0625 L 4.875 -8.234375 L 7.53125 -9.046875 L 2.375 -25.984375 L -0.046875 -25.25 L 0.84375 -22.3125 L -5.640625 -20.328125 L -8.421875 -29.4375 L 19.890625 -38.078125 Z M 22.671875 -28.96875 "/></g></g></g><g fill="#000000" fill-opacity="1"><g transform="translate(291.124822, 124.350438)"><g><path d="M 15.4375 -2.15625 C 10.707031 -1.332031 6.835938 -1.929688 3.828125 -3.953125 C 0.828125 -5.972656 -1.148438 -9.710938 -2.109375 -15.171875 C -3.066406 -20.617188 -2.476562 -24.804688 -0.34375 -27.734375 C 1.789062 -30.671875 5.222656 -32.550781 9.953125 -33.375 C 14.679688 -34.207031 18.550781 -33.609375 21.5625 -31.578125 C 24.570312 -29.554688 26.554688 -25.820312 27.515625 -20.375 C 28.472656 -14.914062 27.878906 -10.722656 25.734375 -7.796875 C 23.597656 -4.867188 20.164062 -2.988281 15.4375 -2.15625 Z M 14.234375 -9.046875 C 15.117188 -9.203125 15.734375 -9.550781 16.078125 -10.09375 C 16.429688 -10.632812 16.519531 -11.394531 16.34375 -12.375 L 14.296875 -24.09375 C 14.128906 -25.0625 13.785156 -25.738281 13.265625 -26.125 C 12.753906 -26.519531 12.054688 -26.640625 11.171875 -26.484375 C 10.296875 -26.335938 9.679688 -25.988281 9.328125 -25.4375 C 8.972656 -24.894531 8.878906 -24.140625 9.046875 -23.171875 L 11.09375 -11.453125 C 11.269531 -10.441406 11.617188 -9.75 12.140625 -9.375 C 12.660156 -9.007812 13.359375 -8.898438 14.234375 -9.046875 Z M 14.234375 -9.046875 "/></g></g></g><g fill="#000000" fill-opacity="1"><g transform="translate(320.752053, 119.521266)"><g/></g></g><g fill="#000000" fill-opacity="1"><g transform="translate(331.367651, 118.124586)"><g><path d="M 17.1875 -30.671875 L 30.328125 -30.734375 L 30.359375 -24.28125 L 28.78125 -24.265625 L 21.828125 -0.09375 L 9.09375 -0.03125 L 1.953125 -24.171875 L 0.375 -24.15625 L 0.34375 -30.609375 L 15.453125 -30.671875 L 15.484375 -24.21875 L 13.4375 -24.203125 L 16.203125 -11.046875 L 16.59375 -11.046875 L 19.265625 -24.234375 L 17.21875 -24.21875 Z M 17.1875 -30.671875 "/></g></g></g><g fill="#000000" fill-opacity="1"><g transform="translate(361.03562, 118.285664)"><g><path d="M 0.78125 0.0625 L 1.359375 -6.359375 L 3.3125 -6.171875 L 4.90625 -23.8125 L 2.953125 -24 L 3.53125 -30.421875 L 18.421875 -29.078125 L 17.84375 -22.65625 L 15.875 -22.828125 L 14.28125 -5.1875 L 16.25 -5.015625 L 15.671875 1.40625 Z M 0.78125 0.0625 "/></g></g></g><g fill="#000000" fill-opacity="1"><g transform="translate(376.310118, 119.271337)"><g><path d="M 31.734375 -4.109375 L 29.796875 -4.46875 L 28.359375 3.265625 C 27.109375 3.703125 25.347656 3.96875 23.078125 4.0625 C 20.804688 4.15625 18.40625 3.96875 15.875 3.5 C 11.050781 2.601562 7.503906 0.632812 5.234375 -2.40625 C 2.972656 -5.457031 2.335938 -9.644531 3.328125 -14.96875 C 4.335938 -20.40625 6.429688 -24.101562 9.609375 -26.0625 C 12.796875 -28.019531 16.914062 -28.53125 21.96875 -27.59375 C 24.414062 -27.144531 26.660156 -26.460938 28.703125 -25.546875 C 30.753906 -24.640625 32.257812 -23.765625 33.21875 -22.921875 L 31.5 -13.671875 L 21.84375 -15.46875 L 22.1875 -17.28125 C 22.382812 -18.375 22.296875 -19.195312 21.921875 -19.75 C 21.554688 -20.3125 20.890625 -20.6875 19.921875 -20.875 C 18.941406 -21.050781 18.179688 -20.941406 17.640625 -20.546875 C 17.097656 -20.160156 16.726562 -19.421875 16.53125 -18.328125 L 14.4375 -7.046875 C 14.226562 -5.953125 14.304688 -5.125 14.671875 -4.5625 C 15.035156 -4.007812 15.707031 -3.644531 16.6875 -3.46875 C 17.65625 -3.28125 18.410156 -3.378906 18.953125 -3.765625 C 19.503906 -4.160156 19.882812 -4.90625 20.09375 -6 L 20.140625 -6.265625 L 18.046875 -6.65625 L 19.125 -12.421875 L 32.8125 -9.875 Z M 31.734375 -4.109375 "/></g></g></g><g fill="#000000" fill-opacity="1"><g transform="translate(405.27766, 124.930751)"><g><path d="M 0.75 0.21875 L 2.515625 -5.984375 L 4.40625 -5.453125 L 9.25 -22.484375 L 7.359375 -23.015625 L 9.125 -29.21875 L 23.515625 -25.125 L 21.75 -18.921875 L 19.84375 -19.46875 L 15 -2.4375 L 16.90625 -1.890625 L 15.140625 4.3125 Z M 0.75 0.21875 "/></g></g></g><g fill="#000000" fill-opacity="1"><g transform="translate(420.08849, 128.707934)"><g><path d="M 29.984375 4.796875 L 31.4375 5.359375 L 29.09375 11.375 L 14.71875 5.765625 L 17.0625 -0.25 L 19.265625 0.609375 L 19.84375 -2.546875 L 14.859375 -4.5 L 13.109375 -1.796875 L 15.3125 -0.9375 L 12.96875 5.078125 L 0.4375 0.171875 L 2.78125 -5.84375 L 4.25 -5.265625 L 19.25 -25.328125 L 32.59375 -20.109375 Z M 17.1875 -8.046875 L 20.5625 -6.734375 L 21.890625 -14.625 L 21.515625 -14.765625 Z M 17.1875 -8.046875 "/></g></g></g><g fill="#000000" fill-opacity="1"><g transform="translate(448.165745, 139.707072)"><g><path d="M 0.6875 0.375 L 3.734375 -5.3125 L 5.46875 -4.390625 L 13.8125 -20 L 12.078125 -20.921875 L 15.125 -26.609375 L 38.546875 -14.09375 L 32.953125 -3.625 L 25.1875 -7.78125 L 27.734375 -12.5625 L 23.53125 -14.796875 L 20.59375 -9.3125 L 23.65625 -7.6875 L 21.546875 -3.734375 L 18.484375 -5.359375 L 15.1875 0.8125 L 19.390625 3.046875 L 22.328125 -2.4375 L 30.09375 1.71875 L 24.109375 12.890625 Z M 0.6875 0.375 "/></g></g></g><g fill="#000000" fill-opacity="1"><g transform="translate(471.635019, 152.035742)"><g><path d="M 4.328125 -4.84375 L 5.9375 -3.71875 L 16.0625 -18.203125 L 14.453125 -19.328125 L 18.15625 -24.640625 L 31.265625 -15.5 C 34.847656 -12.988281 37.007812 -10.007812 37.75 -6.5625 C 38.5 -3.125 37.332031 0.800781 34.25 5.21875 C 31.15625 9.65625 27.859375 12.117188 24.359375 12.609375 C 20.867188 13.109375 17.332031 12.101562 13.75 9.59375 L 0.640625 0.453125 Z M 16.84375 3.890625 C 17.582031 4.398438 18.269531 4.585938 18.90625 4.453125 C 19.539062 4.328125 20.144531 3.859375 20.71875 3.046875 L 27.515625 -6.703125 C 28.628906 -8.296875 28.453125 -9.601562 26.984375 -10.625 L 25.109375 -11.9375 L 14.96875 2.578125 Z M 16.84375 3.890625 "/></g></g></g><g fill="#000000" fill-opacity="1"><g transform="translate(496.290558, 169.264378)"><g><path d="M 0.578125 0.515625 L 4.875 -4.296875 L 6.34375 -2.984375 L 18.109375 -16.203125 L 16.640625 -17.515625 L 20.9375 -22.34375 L 40.78125 -4.671875 L 32.875 4.203125 L 26.296875 -1.65625 L 29.90625 -5.703125 L 26.34375 -8.875 L 22.203125 -4.234375 L 24.796875 -1.921875 L 21.828125 1.421875 L 19.234375 -0.890625 L 14.578125 4.34375 L 18.140625 7.515625 L 22.265625 2.859375 L 28.84375 8.71875 L 20.421875 18.1875 Z M 0.578125 0.515625 "/></g></g></g><g fill="#000000" fill-opacity="1"><g transform="translate(516.200869, 186.945945)"><g><path d="M 8.296875 9.984375 C 6.609375 8.117188 5.175781 6.210938 4 4.265625 C 2.820312 2.316406 2.03125 0.707031 1.625 -0.5625 L 7.390625 -5.78125 L 13.1875 0.640625 C 12.582031 1.191406 12.269531 1.722656 12.25 2.234375 C 12.226562 2.753906 12.546875 3.375 13.203125 4.09375 C 13.742188 4.695312 14.222656 5.039062 14.640625 5.125 C 15.066406 5.21875 15.460938 5.101562 15.828125 4.78125 C 16.140625 4.488281 16.289062 4.113281 16.28125 3.65625 C 16.28125 3.207031 16.117188 2.566406 15.796875 1.734375 L 14.390625 -1.546875 C 13.253906 -4.453125 12.8125 -6.878906 13.0625 -8.828125 C 13.320312 -10.773438 14.394531 -12.597656 16.28125 -14.296875 C 18.582031 -16.378906 21.007812 -17.207031 23.5625 -16.78125 C 26.125 -16.351562 29 -14.378906 32.1875 -10.859375 C 33.71875 -9.160156 34.988281 -7.410156 36 -5.609375 C 37.007812 -3.816406 37.644531 -2.207031 37.90625 -0.78125 L 32.671875 3.9375 L 27.390625 -1.90625 C 28.367188 -2.78125 28.3125 -3.820312 27.21875 -5.03125 C 26.695312 -5.613281 26.25 -5.960938 25.875 -6.078125 C 25.507812 -6.191406 25.144531 -6.078125 24.78125 -5.734375 C 24.445312 -5.441406 24.3125 -5.066406 24.375 -4.609375 C 24.4375 -4.148438 24.648438 -3.503906 25.015625 -2.671875 L 26.421875 0.671875 C 27.597656 3.359375 28.050781 5.679688 27.78125 7.640625 C 27.519531 9.597656 26.484375 11.394531 24.671875 13.03125 C 22.203125 15.257812 19.582031 16.109375 16.8125 15.578125 C 14.039062 15.054688 11.203125 13.191406 8.296875 9.984375 Z M 8.296875 9.984375 "/></g></g></g><g fill="#000000" fill-opacity="1"><g transform="translate(533.124846, 206.02062)"><g/></g></g></svg>